<mxfile host="app.diagrams.net" agent="Mozilla/5.0 (X11; Linux x86_64) AppleWebKit/537.36 (KHTML, like Gecko) Chrome/130.0.0.0 Safari/537.36" version="24.7.17">
  <diagram name="Page-1" id="3ST_NBpSFnkTufIOXbLS">
    <mxGraphModel grid="1" page="1" gridSize="10" guides="1" tooltips="1" connect="1" arrows="1" fold="1" pageScale="1" pageWidth="850" pageHeight="1100" math="0" shadow="0">
      <root>
        <mxCell id="0" />
        <mxCell id="1" parent="0" />
        <mxCell id="p6dHSxEKcSRuwTVCDza4-1" value="AZ [us-east-1]" style="outlineConnect=0;gradientColor=none;html=1;whiteSpace=wrap;fontSize=12;fontStyle=0;shape=mxgraph.aws4.group;grIcon=mxgraph.aws4.group_availability_zone;strokeColor=#545B64;fillColor=none;verticalAlign=top;align=left;spacingLeft=30;fontColor=#545B64;dashed=1;strokeWidth=3;perimeterSpacing=0;" vertex="1" parent="1">
          <mxGeometry x="1713.13" y="369" width="710" height="531" as="geometry" />
        </mxCell>
        <mxCell id="p6dHSxEKcSRuwTVCDza4-2" value="VPC&amp;nbsp;" style="sketch=0;outlineConnect=0;gradientColor=none;html=1;whiteSpace=wrap;fontSize=12;fontStyle=0;shape=mxgraph.aws4.group;grIcon=mxgraph.aws4.group_vpc;strokeColor=#879196;fillColor=none;verticalAlign=top;align=left;spacingLeft=30;fontColor=#879196;dashed=0;movable=1;resizable=1;rotatable=1;deletable=1;editable=1;locked=0;connectable=1;" vertex="1" parent="1">
          <mxGeometry x="1673.13" y="245.5" width="780" height="670" as="geometry" />
        </mxCell>
        <mxCell id="p6dHSxEKcSRuwTVCDza4-3" value="AWS Cloud" style="sketch=0;outlineConnect=0;gradientColor=none;html=1;whiteSpace=wrap;fontSize=12;fontStyle=0;shape=mxgraph.aws4.group;grIcon=mxgraph.aws4.group_aws_cloud;strokeColor=#AAB7B8;fillColor=none;verticalAlign=top;align=left;spacingLeft=30;fontColor=#AAB7B8;dashed=0;" vertex="1" parent="1">
          <mxGeometry x="1653.13" y="159" width="830" height="786.5" as="geometry" />
        </mxCell>
        <mxCell id="p6dHSxEKcSRuwTVCDza4-4" value="Version Control" style="dashed=0;outlineConnect=0;html=1;align=center;labelPosition=center;verticalLabelPosition=top;verticalAlign=bottom;shape=mxgraph.weblogos.github;horizontal=1;" vertex="1" parent="1">
          <mxGeometry x="174.8" y="260" width="75" height="75" as="geometry" />
        </mxCell>
        <mxCell id="p6dHSxEKcSRuwTVCDza4-5" value="" style="shape=image;html=1;verticalAlign=top;verticalLabelPosition=bottom;labelBackgroundColor=#ffffff;imageAspect=0;aspect=fixed;image=https://cdn2.iconfinder.com/data/icons/boxicons-logos/24/bxl-spring-boot-128.png;labelPosition=center;align=center;direction=south;" vertex="1" parent="1">
          <mxGeometry x="204.93" y="479" width="67.5" height="67.5" as="geometry" />
        </mxCell>
        <mxCell id="p6dHSxEKcSRuwTVCDza4-6" style="edgeStyle=orthogonalEdgeStyle;rounded=0;orthogonalLoop=1;jettySize=auto;html=1;" edge="1" parent="1" source="p6dHSxEKcSRuwTVCDza4-7" target="p6dHSxEKcSRuwTVCDza4-4">
          <mxGeometry relative="1" as="geometry" />
        </mxCell>
        <mxCell id="p6dHSxEKcSRuwTVCDza4-7" value="&lt;font size=&quot;1&quot;&gt;SCM&lt;/font&gt;" style="rounded=0;whiteSpace=wrap;html=1;fontSize=11;" vertex="1" parent="1">
          <mxGeometry x="171.05" y="338.5" width="82.5" height="22.5" as="geometry" />
        </mxCell>
        <mxCell id="p6dHSxEKcSRuwTVCDza4-8" value="" style="edgeStyle=orthogonalEdgeStyle;rounded=0;orthogonalLoop=1;jettySize=auto;html=1;entryX=0;entryY=0.5;entryDx=0;entryDy=0;exitX=0;exitY=0.5;exitDx=0;exitDy=0;" edge="1" parent="1" source="p6dHSxEKcSRuwTVCDza4-10" target="p6dHSxEKcSRuwTVCDza4-7">
          <mxGeometry relative="1" as="geometry">
            <mxPoint x="233.05" y="388" as="targetPoint" />
          </mxGeometry>
        </mxCell>
        <mxCell id="p6dHSxEKcSRuwTVCDza4-9" value="Push" style="edgeLabel;html=1;align=center;verticalAlign=middle;resizable=0;points=[];" connectable="0" vertex="1" parent="p6dHSxEKcSRuwTVCDza4-8">
          <mxGeometry x="-0.0546" y="2" relative="1" as="geometry">
            <mxPoint x="-1" as="offset" />
          </mxGeometry>
        </mxCell>
        <mxCell id="p6dHSxEKcSRuwTVCDza4-10" value="&lt;span style=&quot;text-wrap: nowrap; background-color: rgb(255, 255, 255);&quot;&gt;PetCare Manager &lt;br&gt;App&lt;/span&gt;" style="ellipse;whiteSpace=wrap;html=1;" vertex="1" parent="1">
          <mxGeometry x="169.3" y="544" width="138.75" height="40" as="geometry" />
        </mxCell>
        <mxCell id="p6dHSxEKcSRuwTVCDza4-11" style="edgeStyle=orthogonalEdgeStyle;rounded=0;orthogonalLoop=1;jettySize=auto;html=1;entryX=0.5;entryY=1;entryDx=0;entryDy=0;exitX=1;exitY=0.5;exitDx=0;exitDy=0;" edge="1" parent="1" source="p6dHSxEKcSRuwTVCDza4-87" target="p6dHSxEKcSRuwTVCDza4-30">
          <mxGeometry relative="1" as="geometry">
            <mxPoint x="1133.05" y="600" as="targetPoint" />
          </mxGeometry>
        </mxCell>
        <mxCell id="p6dHSxEKcSRuwTVCDza4-12" value="" style="shape=image;verticalLabelPosition=bottom;labelBackgroundColor=default;verticalAlign=top;aspect=fixed;imageAspect=0;image=data:image/png,iVBORw0KGgoAAAANSUhEUgAAAL8AAAEICAMAAAA5jNVNAAABKVBMVEX////w1rfTODMjHyAzUGEAAAD35M1Jcovc2dhta22BsMTvPToAHR40UmT53r4iHyDYOTQiGxri394fHyDRODMeGhvl4uEWHh8AAAwaFRb1PjsVDxEbGBv/7dUAAA0VHh9FbIMMAAURDxUNHh8gFhPz3cLy8vLCNTEkIyYMChJCP0AuQk8qNj+fnp4ZFhq0My+OLSqqMS7Wv6TPz8+aLywmKS62tbVlY2PmzbCejXqsmYTJs5ozMDG4pI2FhIQsICE4ISIWAAB2aVy6ublzKSdQJCR8e3tJR0dXVVVcUkngz7p+cGKmpaVLQjyNfm1GIyNiJiaCKymtoJDLu6lpYFg7NTGekoSUk5NMJCNyk6NjfIk8P0R8o7VdJiW8rp1UTUhBUlpRX2hRaXVUu24xAAAgAElEQVR4nM1daUMaSRNWxzaw4nA5yGRQwyECIiYSDhU1EYMYjyQbDXsl2ez//xFvV3X3TM/JjGLy1pfNyvVUd91V3TM395RUzbS7uyejXm9MqdcbnUy6w1j1SX9yVpQbTsYGIaRoGLquIem6YRThT+OTYe5X4wui6nCkEWLoig/plDEj3v0/3YjumKLT/LCbRHm4uP6/Y6EdJ8R73ZMe+0BIvP2rEUuUOTFc4AulPBV5Uq8T/E+p5dyFxvBXw+Y0vCCGA3yJkO+33z6/X0J6//7z77d3BZIvydKlkcb/wx7sGsQh81qdXH1eWl9fkmid0vtvtzck30pKHMR/tR7skqJTuPOFL0s27DIXS9/O6sQSJYP8UiEaaoSvpImoXvJFz3mgLJC6+QFy8svQxy6Y5GhF0igKuZ+CnrPw+725CeTi16CvxtHkaAYZ77ZzbdiIArkKgZ4J0udLwYGh/AolmKDN0clg0s5lMrlrugHk5r0/+i2JGAvv70iBq3HsZ6O/RrXVybiby8RiueseUVr5373QU7jzXkS5WP98QzgDP9eQtgcE0feGgD6TO6GSRO5couODXOJh/Xe+BT/TDFV7oLYaGQ9zMYq+vTsoKq36Nwf6adgZqf370k9m4BoFn3p/hn4ypsaTfLcvfjjwjC7zP5OB6gUTnQlKTvukN6ZGiHyxoY8AHrbgjDPwM3SgjTaTjNuAPrbbi1/oSqH+ef3B6IGBq42fxcCEoLXYRdEZxntxuvql+631h0mOtQN1xsBT52YjgG8MYPFjsZNePN7Tlfr3B8q9zMAlKrFmPK0jiwP84jiGkh8HGij1u/VHiI5J92hG9cZTwj8B+CSOstPtAfyxLsN/4OIj9UsYVRvxp4PfRfgjhL+L8ONa6XI28OfVI+aJyfVTwc9J8CcMfsO4f7Tomwx84Qw8VSjU0GF7Zfg9vb41A9EHot+zfsd0uPY08EF69IuMBD9eI5bdfyx6oAEmE8WnyWd0+uVGG+Bfc/iD+tX6TIRHfMl78nReYEhAtzI01myziuZ4oLUCZH9q6OlcfcjvvyED+vgJ8NMwQbugeUo3buhY0NQUK9x3Yt2KtCdLmE9e3d1d/f5deyIVrtKVKXa7I82qUmkDH+FfEusZTilAdb+QfKnVKvGkXp+9E0DbbxR5lUo3DPovzRP+FgP/+cvt7bctNdTyr98RewGGzDqMmFg/QNN1fTyajAyFfPOBv770pUXqpVKeHIRgYInmYHb4SnEyU/QZzSxRGeSCputUD2JEMZj5sYk5wv+9XhcLeTudgaX1e61Vz+c3SgVzjZRZwm+b5UHDOGnnMPbM5C407X7dufwoPLI0kH4I+SHk7vBo//jgkpTEx2aYCWQEHJ2cxNB/ZaA3dEGTRk/4PJ/VWpQK+aOp+Lfm7/dV2CZV7d/ykpAxQx+m89VnORfloHvS69G8i+J/75AedKKAQKuT+7urq7t7MhW+jdQ+S4Y1bWbwR9zm0IQXcy4KHr3vmOL/7F7+e4C/MTjsq0jR4AMHt2SmLiAnCkzdHCQtIx47CPyO5V+HRFDLHzwAuMnAISZJswqj2fJrxhBkZ2KiF/htP7209Jn+dkHZfzh6YOA2P7sYospDKgqfZowSfMT/3mE712kEWVCmm5wpDNxQQ0pmg7/LpBECt6GMnuF3ui4afyXrj4U/Pw+p2IwUAIpTdDNzLviAv+7Av37XUsjxo4QHCTZgRgrAln8Yi7Ud8Kn91Bp2qFvrJaV193j4VIXrijGaBXxsStC4OZYZOeDHG1rrzIGV5h/5x0sPpT5RtJlUUqApoRiTjJlzWTRQ6s7orE9cf3oYqffabBQYrScYHxf8uKK4YgNViehuffFftWaTRaL6Gl7LH9c9wPZnoLyInyrATEI47M81chkX+niPhp9hwR6Hxn2wz/5xlJ+NAcJSfy/nMj5gPltXIfGrV2EZUA+4+donMwlB0fsao5yH+DS0+mFo/Ddh3/m7yBcIXbZZ4T/JnbjlZ6Dk90Nh2oLsPNxbIX5iCZtan4kBZebzJOeGH68p+XDJ+RKgcosajZMdTG1hBWuDvUoNqPFo+FgvB/PvFp+4poURCl6gIHnXKxS/IzfGugV3KhBBPNoBxFnsaUw8rH9cd3lff/jrd3mXX1MPNuwLwN55VWrhq5eFRxdRxrzoQHN2N/6eXgrhakWB6BtpuV47rNtjjSUuargB6lnrsfgvxESVN36tPt0omsX1da3uKqTs50vy3/h715VCQWUOuLj7GPgNcyDMGHma/zCVBRP/lzpxJWV5W7DH37t1UIcNUG9LNG55BAMMfjKL/stD/in+EDbRrE8vlbRW384AFfGSbJZ4KaxPkiXQDijCPJwBJjzJtT8oA9o491D81g4cbGgl+w5gjOP+Dir5lC31oM7yvofBHyP8bGL1dRnjH4q3MajVBo2xpb8h5Ac52ML5GXWguTjOKwXLBLFqS//odkBh7wNzyED3IfB7RQ7/+V6C/qMWu9A1Niem6Q2+F3oI/ZXpyIYWEV+VFNOuqod39618nuRBbupnAv+DolDmtgD+81XArxSl8UhNv0D8SilEaXa+L0pYKqYk9g3oQ5rO/6Qq1mRoS+mrxxuiEho5j79G+EkKf3l5O6G4SBsA/kHrcip+9ZIol7eHR/3+/vFNy5XwqGclpcCDcDD4jJL5G2qWAD82tLViRDfQ5vC3KfznnzYFaBwCzhdMBi60+vT1J0mlUKrn6Qexs+IsRvfzVFZuRcSM393KtzCspeKWfLMGf9EHkeDzemFiD+CL5S+Qmy+f379//+0SX9UaqMDTDZC9L1Fy7hiNIShTRyzi3L+kfGpnx0zgKP7yq6/IgBGpFMd6sInXFP7y8lqWyeD393wWeP0zLqROlbg2PVenMZqkOfUb9xuoUiii4EWtT9+smyL+1Bv8fRKhG9NDy1k+B/jPwXpSUZKHq9axRwsb0AijAIcDUi8VCoVWqe4RQ2OeZaqAjRj+1Ww2mhFiurv2Dlf/+Qf2adtgHmtW6eDB6tPgg9nZP7i6u7y8uzrse3GrHlAVKHlEskcbSnkvldpOoBKHDeVYqyWrLCOlUPrZ6q8vff7MZlPXb2D2sBfWAzPH5NsJUC/BLrklkdqfxN7CQuoVYtBDThij8CcTC2z590B8Ct8R9RWYnxvcCWiSa2MwQGET4EBK0t90F00B//YCZeC8HF4FRuh3E68Q/vLzl2A8oUe0tP49z8zQmUrT2QIoQENTSmELEIEEKuDKpcH/JlYXgAEuxCHcGLP8m+cM/vLzj9R8tWC8CtvjzIZQnd2C2BbiicJ0BQ5B2G+h0an9jwf1ZHkBabWcRJ8zHT/GONnTZUHAeR561Osbd0cHjIE8dTfCt3sajgcwcLsB3+X4WymZTSF+rgLTW9onTHpW+fKnUqcUP7ZIP5+pkFDUSV5DH8qcWImEi0CnMwDDhy1bcEfzr+wbhn8h9RGDAJIJhh9DVOVPHP7yaiqb5DMa72lCpGj5w/l9ivpWVQeERoqDW0+L+CAaFBzeWb1rZd9x/AsLShZ9TjD+BpMeE/4C4OfWB2JFqDeoR9ShqvP7R0f7849oMbqo39KYbpn4b7S1c4GfS1BwMsMaXab0wMeo/BTuOP6jPAaPdF1CTAREp32wbyUrwFALyuYnc/1THzEQCiwIFW22J8Utl4brvwX+kCXb+yRk3hWN2PRky1JiopRfm/gXVtfABgW1lFB5k5vLFvyF1FeKX1lnIw7H+QILEy9noLUes2Us4SUip9vH8MfEn2KRmH9Lg7V5hedaZp7j05pijmgckYGI08PVYoPIOTOEDEC6siHwC/drMvCBVUL88GOfKPvGEn7BNIw4wI/1iUiUDh4t/+6hp3lWsbKySbobiZSMfy8RFIiypAVTLiE9lOAzJYje4BvNauXjzY43fupgzI4OzSZN8y+rsF8cF4flX/sqSw98ZpM6gPt1nNFQ72bjbOdFTciF/7JglQTU+0L2ow3/wnbABuRsttPi+WsW4zfUtmNllvjdCiwXI+bn80nJfDIw57gBnrkkSv/aR7v0cAUoXa1vsfWZUWvx4LOX9kL9QRuIn3CYH2ZDMZXxikOrtuVftT4Ce5Yk/Odm5LbU0q1bdvq3pRL9JZGHYfS8bYcvNsDDBE3k5bd95F0WN2A2yBntk+/OKkT/Cub2Si0ziaGbkVxzLL+pAW4fIMedqVUZ/6syZjCPnOy30fGGve2t7p8B+gK5siybWtOk6M1ugtxtVYx8sn+4l59+JEllTrt/5Gy/A7+Udqrq0SVpUStHbuTiNE3J1j658IsNcOLHwBPrVbLyMvwvYQPqM8kTOUEdd5+n9Ee3ClT0tPzAyn9VJv4u9RXi7CpJY80hq3gtP/0Iht72MWB1/ugxIVA9mczf3R4cXF1u5OHMTovcS+j7Vxjk8uTXAQbF2ZkHnID2ll96Lb8VeksMqIclMni4SkPVXCmUKEG9s7WRvzuS0RMQrrri8L721bQnYkx7U07bKT7CapD5u3nTtdP9yoccjfeifqlVKGhQktsgpbNjSWvnb/N1iFKoiFnJiw0MlpPtGoxFh+xX7+WntIo9MLpQtyi1RzAdXLp7BP75/cvLm5vvl1cHx/tSDqeqB616EjwwRHJe4r8gNNjWmMfQh2uv10dECU8pEeX7d6Zvpa1I53XU22Nb1OdRkVPnD5Q6L6arJcVT/BdMDZaDIIIVt2W/5YfQtcyq0EqyUMBSTP29VwAfQH0QlL5fDRF29aoOdW1WkKHik/3ggwXzGFmAUHzWzn2XH3dAWVMkIu/XPSMwFy3xliiUqFobpHZ3cHzUN1ef70D/6PCswKpjGlbSIRJyBm8mrToFaCSJj/eeUQYWPiayJnx+amc6filOVg+wxoatmNL9zeXlGdIltcMkXzfvgWA+LK9g6dYbyleHABnTxId97NWbRJbfWkKWliLgFzJynDevDNHA+CDlb9W+2aIp5NGQQuqVVPywcAEya3FYtOKhm9/y4+dSrz4mymsS/ukKsMXepGLgqvYvieP+HGrUriz8JT71rQ40H+uJhAKk3Qv8u2D9y5i2Byw/42BhDxJ6VpAOj/+Y8IIFhDr1gh3/HcefbJEz/qkjFB9fMCyRN/sZOB/JnFcwfPwsmt+816kjT2KFI1IQAbPaP7ghG6WCeX0OFLAJ1Ys6uRPhm/q9ECA+woWZVxWg83ozVXw44eaVbtc9FMAru8H3UNuTNwNOVe0f314qJJ/fqFPKU87Ixv2Z1FuCOpZX7Gnix0KEqGSh9dz8FEJ82IehIq3deOBXrzwY2BLG0zY7A2Zz/+j48IDSMft/yQvTLN6detkwbCatM7Yo/sx6hoDPMwgvBVYPvKbhGIvq7cbGketV754YLL9H6iJjeCcpQM8S/xDiw62XpwLsBxy1U29aoQ7i8ZMXAdq74FAArLqdhhUfHj+1+Klf+y97zfII6pPkxv3x9II79RLTlp8nAcwDVK3gIRR8br1KXgpwW6/54zok1D0pLIINYgBuoQqU/gVuRFgdCNW3jKMCYcRHCBDWRJ0bQGM0/6MXeL+GVsrXYRplX1b1ft/6P0xtNv19F8dwiqVcS323Q4sPJSjEewvQbYn494PVG9b+K5TqGziOAgnYBl5vZ+GHTmoyO3UNmRGpmsHblNjH/uFPqMGeIVBLCyqt34gjqXaSFBsiB1vXwgcCa0tDCAeVh2Q5vPgs8BTU0wKpx0TT/PHTvNMV/9Dc3SptqFd1MCZTV5IpMJ4OQO/7Lrz6LvCEnnf1lpwIS62AmWiIf2jwwAZqNJxI0c4kv4AdpM2X0yUBjSDkMJb5CS3+XPx4DOcQIPW+UA8aiobg4e5eqec3Cvc3Z7e29Hd+HmcvphkfJDRAPR48o/mJgB/rwCUvDabGpK7lg6f6HMmX9MIV6odP3mtfwdMkmydg5hOih9Div8DqwEnvJAa6iAFGKIgvfntLUOhmAmARxNxcl5nPqPhhrEYEoU4Yx+RhBwj74uB4wrtwYgMgDOiuwaOfKOLDHaBPFgmJ7kMYuBeJTTI4+kH8LI3KscphIor3wo9vy1mAEwgc3o0uQjdi+YGBaTvAHUBsLq7D259HsJ7waSZ+PiYIrOhGqFsTpE/wG+zSac7AFBfGg5g2Rs/JZDTxT22zqVI22OTZiL6rK/kIp1DVY3bvQ7q5WOE6EKzEvKsynBtrPHkM731Tn8xKkGcUxxjIK6X7kGfIoS6BX5fuPHu2whkofwzMAHAur9jF8CH74Xn44Cf1ShHzxHBHhl8hCO7T00JlLKp6wOtCleazZxYDmx9WA0ChAtIAYsDDh5D4U3sfpDIcjG36SBC7AyF/M3UL1OMBj+oqi8+QXnAG1pRtf1QM/+5cTWGV81D4U6tWEZFrGvGxQZiwaNCSC5rQUtXj+zwfL06/ePbMzkC27G9HWQC0O4eMfnwexvyA4IsibkVZ5PtM/HfgSIE+AfGdMVPnDwYCvVJb3FlxMhBgRxn+iYl/uvqmXp2WedWp0lmxfqV+/9l1hYvAdwWtghK5O3KnjKp6dJa3LiBWaul0RUiQxIBfLBoVf2r7nRCdSpPvNN8Bjdx9Xl93ZgL9o+PD46PjS0DYIgMp74V/9A/PSnl3LuBiQEn4pJICv5D/KegXzl3oJVPRIvdf3q+vSyWoo+8kn6/XN0TCpZVI6+6WMnRE2YLqW90NHr/9hZMBHzsq5J/bn2BnkXq9tikkx0JPaUf8CsWXv6PRPL+x5ZgU3Ngw74WqoXVHkXUrfXKNnTOomQykBQNfvcAJ/Nz+B/uKD1zw08rKMzs1+a/Ajf/YmtgYfL+7ui153JbvpGShtLFxyt64lsh+PP8ATba0qcUvaumAHRD2/4L534BiqSQ6O89c1GHw27s6IQbeqlZotSCUSZYTifKanQ+rfdGqE+Py4Gj/BgdOEx+3n1PCLmFzcVFsQVPEEm4lNv1vT8Pqm3+t/VVWiE7zhRv+sxcMf3VuLtOdjMYNHR5wAZjWXq1uv/5YTmxa7u7+CmvOG3lyenYI+nwEvYBk4h2f2sGzHskViwEeDCXdGZkZ/2D8WX7uh546LC46aafoIHr6Y/CqfGNnFW7hTiZSz58v0zVdfXma2OS7UDhW948PD3FuV0UPTV/Y3Nx7LuZ9l+mPpRcpmTLEGHC38jj+toj//RZ/bU0svg96Sp003sdqHe+gOSmfRVhGFj6Vefc1f7kv5bxwS1Qy8XHZRI/T+ukd/NIXMgPucqhZAJqw/MsTfeo8aPFfLHJa2UnDbXaTTI6zQL+TzyJwFpah9Yc7QF0Zz98x4F8r7/GBNYpgdXUBBKi5IjOAIuSBn1Wgc+x0vlfFghpNZdN/8VcWLVpZBDNUVCbtDOWhSm2aNQIuWNjmcV9rg9ycXd1eXVHRz4rFNwemwKp0+FfzJWMOyoX/nOe/Q1Z/cL2eev1GtNwrrsV/IaNnHFAh0gzSu47hrXZiEE3mYO+0zLRRa0HhE8y2GBS31JMa6o755bgFsLnuXqRZf+DlZ+fMEo11BPqO0+y40DMhAnOtF8nFiKoUtqPYqq5SWkghBy9F+Jctg2XFtM8xrfkmq9Ssr1/h+N0FUTzVBvUfXn9zvP7VDJNdNv+FB3iJA7oLBhslsn/lKmXhOVUoYCHx7tXeJ7rS0LSyDy1ga11anhXmId2t+JTZACBu/Ui9EWFyOu1YfK+lN3+Mc6Cwgp7jF1dxD5a3P60lqLNapg4ouXa+sL0NdtaUHxRr22+86MBIvPccIs5wQMnR3mxl9XEPxfUUHAcHnbQPfpQhKkSvyqxaA1DXEonEm/NVCT+YRfuvgPi7Agip/hzH9p1tYlJMOZjRbDj0XIo6aR/81BUsb5+XcdKCQaByC3+U5AcMqO13fMTfqv+jAyjLAsYPzNplJxx6xkHNE//y3vkpFf8kTJmmWASTcIg/4q/ZTDPF7xU+nPPy2xw3oDKHDD/UMqYrrScDTWXzpcf6p1b3Pr2h+lt+DQIDUBPouCR08MfOiv27PKy/mIAAZ5lzGSA2H9R8wNKbawb20/2jGEycrzFxTv2RpV46ZV9aN/6adzsJAnrtQhp/kN7CTgxbmVA09Isgs9AQcf/oagp0OJtV6KrjmcxEyul3aFjQtC1X2rMfsGeaHzF+Im8iClfaNPyR8a+kAypKqXIye/r1KwaGCWfZmNp/Hr+ZS6Fk/3Dv5Eup/84U2H3QJx3G5nvj7ygJf/wwj5+lJk7X6LZ/er2dAhIvriXTtm9qerbDePU/J8+fuBTADHui42+mE6t+k4xouRWtqPUuiJZdKyfW/jh/+WpvewHYcIl/xzO4TGHeXOT5BiqAPKwIqkWp8wgF8DKg+NXnCXhsHBnsZnK59gUeOMuubZbLifLm6Zs/lCTNf+VvSnt2U9FCmhdc32tOBWACJDQ4Ov4VHMX3Kim9KyvGuN0dsguM8ZE9IlLRUKps4gPi7zEHx8TfvBvOpQBcgEwNjo6/CQmM2+tsn64pWiODFxgjZdo9Atv/tvL3v/9qbyH2kOUHxN+jBsoHKMUhjLbLA7A3mBocWQGYADnxp/YglzfwCmBY/CqwkYu1a1rtz9+A/vz7LRZQLPw1xeMMycICpIWabuarOD6clfEzJRMaHF2AFtPZN86aQOo1vwcBb9Fl6TJyYGh//8bpLwcDaY/YTUz/WAc52QSWbZ+wZJBuPlgBqAW1dx9SqY9UKCsVmFvj8Nuj9hzdgxxJm/h/+xMYML+Fir/HEDoPfqwnJXXdAoRvUSoPV4C0Xe9Se6ebip7+E/Dh8zMgcCFwkKuaIel/f5MZMD0YXQWP2I1N78lHYNCCJpMyfnZUUpQdoivAYjpZto4ep7ah7/EWYP6oMAmCwFHD09RVov+w8P/WTFsanPaM3VB8bGfAxi4BYgNOIoiLjp9qnkj6UqlXX2nUqVWYktJ8SWvk4ATdgGhVxF/5T15/a/lBfNyxG3e+8oO2mADJmsL620KAHqAAKEBAe58UKAW8/dsSEIVQ70V/lh0DzNnwd9Jm/IbO1y0+7C4I2wkqJkBl+V3bcgwxFb/HBqWVxOtXr2nKAjXc5FsLIpUgTclYRxgzpPKX+eJflbT8FR5nGPj0uf3pEphE2vaKCZCwQNPw77j+AotHwwJ+edDbPyUJr8BFFBmz3BiT8Ves5Qfn6xW7fXAdHxEHeGxJAPpoIUDBCrDSrDTd7xD9Byd8usZU/WIZ67etl39UrOzRJ3ZDyyI5L0aa5tRgLkAvwuBXtKZLxLAqCi0PJ3xU4eLErPdS/P/wF/55K0f/aa8TYMyyuy4SwSlKuwZjDMFjoCkKkKaxqotFqAalOztJ5e1fdvigwlQDcsyDUTtq4v9bsp3Av8cRGH4C2HmXET/+K20XjyE6IfDvAH6PPVqBglBa8q7SBpDrGJV8QjLU+L0VgvVWUl5v8WF1Z48DwOz0u80Hw7lTIUBB8GGlmn5CRqXnHxd+2IBGptqlHmwIW8//rKRlNfIUH5yd9ToBn2FnwOQsAF0At6CBdUO6xk3vTaKLKAcH1gak4T74apIMaPhe5Bv0X0Uu3Ta9xIedhfW8xQV9sG0DUIO5AgQqMMW/44kfQDiVl0sKlQFqQsEIjYr/eijvStJTfLA06PmQy7Z7A9DS1qYrgC9+sKEVD/i//XYKQsB8WI/7tr9tRnjHS3z48ns/3Aw6qbYNYJ6OKcA0/Ite70ETmv7XLf/oA4wRBhFzDWaf/pSVlxUe3NaHSb/3fZptlwnCNJIrQBD+RdYfc+PH7nb67Q8PBqgPM2K4AUUmYZo9c097iA8zPr7PFbpADZACVmzScAUIxl/xxL/IXJhSkaIfQTQKKu5CEFFl5l/2vGzn3LEPt/1+15myy6MkJ8xiiM50A5REIfPWX8ZBxenD/qEmdABhNA3fXNKDZU9X7MMC54BLyDCPlLUGLVBlOv6OD34RRHhx8C/1Yd0YNBDBfHZsph83zi4+EIkHXj8zJ65AKVt8o7marsD++HlrlXNgkyLqw+CRJnMT8gNMv2LfN1tPC7C//nR+Gnz9z5y4gKlsMo4xEEsiA/E3ffHbOXj7Q7JFEERQH9Yr/oWm31l1FtE8TT5fvkskypssFNfjQdc4GjgOYnKOCjBdgQPxMw74WG3l7b+mO6MmVO/lMjpV307aXvWEpkt5FcGvvnyT2MxKYyxG0COah0yFRSLDplQ6j8Rv2wPt7UAoAiSS7SFV3x8Ve9UQtBdiYcycpfkVTkF3qGEUwXi3PMA0BZ6K38ZBmooRbsIPnW7AbvEHtT329Ae19xWMAEizpgacU2LV0gAVZnG02TLAVgxT4Mfhl6UIXNrpf/+ACVX0gf4XlVnX8idPUy+zZQu9TuKZuWobn3ke+GS8a5sNQpNbmabAofAjB0kzqay8Hfw3QCwDh+dFp5H9oJQtoTfImC95GzU0SILQCwsvxhR40Q//Dis8BNhPBweiv42aIGb/lM6KRYv8HZbK6oSMrNtCqnC8MOgiTS5BSXb9GyRhzAB5eacaW7mV2nT8FsCmc7aPKu9Os9nsACnptO01Cr5ntzfsCcQBl/kyG7TGVAA9sJ8BguykA1vgHf8IwBQeUFNgrDnwdzoO0OYOucADTYpTvBi7QbaMkTTOeaR9DSj87s6KLX4WYoCIAWxakCdGf9LI4NrLV6GABF5GLK6vTtkMkJdQYIBfq/FC6SLCpqiTHHBUyDKRCz8ZgVQ98MFCVXF9eIpFEP4GdKXDf61CoTdrD1lmb9IcJiY2vDbZgUQl+CJTpgI0EEphuYhFQB74V1ZMXfQCrumGUSRuKhYN8TxMO6GPAielDdrWFWOxSYPY2EEBCnyyFnvUbDa7KkVA7pk3uuKea6cz1EajN5rsdoftdiaXqzLK5WLt4fXuaDygbKClTlegKcOe+z6qgljTGEAb50SBd0jf6XgGBlRrpzyYJM6evnC64GtAqZtxLTkDXuudXA9j0277phIB+UZzhRWY4Bf/KbsAAAfNSURBVKt4RzeGTx7kxfUG0cnY8V3dqQIkHt6RfWNFcA78OxWmpJUKsqFT5Mb45Lod8olpVXgMKbGmRJqKOVAClQRMbUDUDaK4TGh1ugBRI6SzHYCdrbnwr7xYaTZ3dhaZraxRg3zdjvSMhCo08ST8aIr5RABdXwML7G1CBl7Zbk2b/nDRKkYaTDAr7vW3z4RWIj8jBPBndAs/HoUQVh0e/AXFleuh9yLDmfepDxetWk/s8HQA8nRZxYj6sGfAnxto9vMW4la0sU5zezPmqbYp2RjBoeGpj6bKmQ9O8HZgKy9MFqI/aRLXf6yb+FGBRWpF8QkFrp4IC2z0dm0TA9MfaGAywCJoD/8F8g9cdCI/Khbxxy38EPSbRpEqBk2N8Z8Xg0bjojc62e22rZZTBnCF2HLBQNoXP+eiE+ZqeDf+kcGLG9S3dBRpJoBQ9QywwBmwvGGeLVc1mI9ZDM7AVpqRH5SG+E+M9OILNh64IhvQuYZmSB0+12czODIT5ierA3intwO244/4hBnEPzFszWrTgFIDI6q7XpSLdafGoCZBPsbaqAH4d9JRn1GE+HeLVskf8QtIu0V97I8/E4uFx4+x3BT89MeDqjK++K+LVurL8LfFj/IZA7rY3cnJ6GTSldwjtbzgwcLhR1vVmYo/6oPeEH9Xwo8OWLhBur4atuirDSlsjXer/KM5aFaEUzlWlZ6CfzEd1QEw/ESq/AB+cashjXCEA5ir5jIx8GDtISVgIEfxw7Hxou+Xy4T5cmVaBSgd1QFg/ENl05rWwChQ5LUE2ks+8hFj66+Fex5MNRT+mhbxSZlu/Jg6iNYWOjBv/Bh5UPkPu+Oh8HeiOgDE35bxYy4kvkWnDkxMKWZo+mMmQLj8aH/CPluXiAAosII49dEgU/FjKo1RfTWTqYEDi/lRphvh4epGKPxRDWiVL2PHgb8N6gmRqXHijz+HGWTIX9IEfn/4DzCgbvxNTIEnDGBD0+P++EF8Qhs8KDiGwB/RgCL+jGGdFuH4RxmBv5fLCAL5h/8Tyw/5S2iHD64OAujg8mw6pDmz4c9peFxWiCAaUIFfa3S73etd6nx744vBAB47ORky6YeQIHzAOwiDfyWsO7Tjp99t4scAQrvIxTK52PUARuyxUmQYus4qMkpv0gb4bSgehU9YAX96Kv5axAiU4b/QrM4Rw1/Lta97pGiryhRJY7Q7jOVQgHJDmBXzmYHwIpyLqDSDT/GAA4gUgTL5H+sO/HAIFOtamq7TpTdQpK5jTPhBE9ojzKki/FiPl8k6XlOSJv5mxGe1M/xx3TYuaS04GYzjo5OTEZX02mTYjuUgCOrujhoE61IkwnPVT8RDgNNNfw6o9EZ8VjviHxnSzA/HXyS9a9MXwqMQDSsCZTUdhcSDvtlBQ+sBlAEc7EQ1QIjfTMCgDsZ/ZNemR5r5CGVzd0jEJ+rKz5/05yAd2iFK+DGBwW5HkzfGdMfS5sYGLjyjopUFhKc2kdYgTSMWTw7SUyuSHvghAGXtDvH9Hm6wGhteUzcwollY6PKq/QviRHp6blrZ8eAADGgkAxTjAZyDHvKs3xAcTBRpE+geuKSIGtBoEZAXfiraEdPo8NSOyxy49IAa0MCmoDd+9qxPRUdDr+jjJ0MPVD2R/WK6YxMjakCD2vpuYnEOtOKI0ZvgNYDRH7MckaoTGwfpJjQATAMaLYJg+Guadj0Ev4qyH9GwPIDsHFAWOk3WxFgBAxRF93I8zlTYP8ahCyKPJTsH0HisUSZ26PpHUmAG+0KvZbgn/inrj7RbJM72J1rwSAqc4wEcxw8D/D8L/9xcd0Bcfl0Jn5ICsQCOBocsq4Io5WlsvzdRc2qeHbWcTwTvyANQQ2f4M8UoOcksqNodE2LYeIjifQT+IsMPChwxgp0BtSdjEd2CPEUBUOVqS/j60zA9YgQ7I6rGoLIagzQhTEvHJIGf1RQy0FP8OQbUB074lgL/AFt10o6ZodDPVGAXhetpWuTAn5s21fPUBB4oShubJ2BkyPGP9YgR4IwJq0oRNDDD8Xe5AgP/0VK42RKbCgn//hxzu6JOjj3RaCncjAl7UuEVgHfwirsZyQA9aQIwhSCEiaAAHL+o82NVM2oXcKaUCTEWJRHv4Jl1/naUoviTkBa6KYvEFp1XzBl+Z/Xk5xLG8OElmIWdok+R+fX4I0pABhed9SlywxOoc/9a+UEXHL6PihkM0S6G15P4gLDB+J8aQbsIStXhiwg5VkDRiDnOqv3KAG6ODWaGN4FogGpSJqr90vhtjrngCCFEjA9iMDLI4KnrP1OpEcmC8gQYmy6ExH/x4gPtRspiMzxq0wajbrTu/VMRDKuED4IzPGr7pWG/nQbhy2gsAe5GmMT4CbQbNohk8wMsavilUZudQICM6UGAQI8z0L+gbuJPYIGMwUngMHrOBJ/JxegHfmna6CAcrQZ72DjxHh6v8nANsHdPLqCSGqns8sRUFR0htOkXI/tJjCrGarlMjMU8LOiJMIvxE2gsVxQ1dhKmdtGD7iH0EEfx3sXAIEQ+wvOLozY7DV0tRXjar24I0nXNUXyP1E1/ehrwg0UhSSdRjz48NeWux0SIdjCBjvT+PyIHB4FpKbLGv01gNA0HY9iZCv1iFHUW4KdSFUZecP6rMYDpzlpt0Bj34jAHMPSdro1G/wPFj/5q024wdgAAAABJRU5ErkJggg==;rotation=0;imageBackground=none;imageBorder=default;" vertex="1" parent="1">
          <mxGeometry x="545.9499999999999" y="243.31" width="45.85" height="63.38" as="geometry" />
        </mxCell>
        <mxCell id="p6dHSxEKcSRuwTVCDza4-13" style="edgeStyle=orthogonalEdgeStyle;rounded=0;orthogonalLoop=1;jettySize=auto;html=1;entryX=0.5;entryY=0;entryDx=0;entryDy=0;" edge="1" parent="1" source="p6dHSxEKcSRuwTVCDza4-14" target="p6dHSxEKcSRuwTVCDza4-16">
          <mxGeometry relative="1" as="geometry" />
        </mxCell>
        <mxCell id="p6dHSxEKcSRuwTVCDza4-14" value="Check-out branch" style="rounded=1;whiteSpace=wrap;html=1;" vertex="1" parent="1">
          <mxGeometry x="423.04999999999995" y="333.75" width="100" height="30" as="geometry" />
        </mxCell>
        <mxCell id="p6dHSxEKcSRuwTVCDza4-15" style="edgeStyle=orthogonalEdgeStyle;rounded=0;orthogonalLoop=1;jettySize=auto;html=1;entryX=-0.009;entryY=0.271;entryDx=0;entryDy=0;entryPerimeter=0;" edge="1" parent="1" source="p6dHSxEKcSRuwTVCDza4-16" target="p6dHSxEKcSRuwTVCDza4-25">
          <mxGeometry relative="1" as="geometry" />
        </mxCell>
        <mxCell id="p6dHSxEKcSRuwTVCDza4-16" value="" style="rounded=0;whiteSpace=wrap;html=1;" vertex="1" parent="1">
          <mxGeometry x="413.04999999999995" y="405" width="120" height="210" as="geometry" />
        </mxCell>
        <mxCell id="p6dHSxEKcSRuwTVCDza4-17" value="(Build Phase)" style="text;html=1;align=center;verticalAlign=middle;resizable=0;points=[];autosize=1;strokeColor=none;fillColor=none;fontStyle=1" vertex="1" parent="1">
          <mxGeometry x="413.04999999999995" y="406" width="100" height="30" as="geometry" />
        </mxCell>
        <mxCell id="p6dHSxEKcSRuwTVCDza4-18" value="" style="edgeStyle=orthogonalEdgeStyle;rounded=0;orthogonalLoop=1;jettySize=auto;html=1;" edge="1" parent="1" source="p6dHSxEKcSRuwTVCDza4-19" target="p6dHSxEKcSRuwTVCDza4-20">
          <mxGeometry relative="1" as="geometry" />
        </mxCell>
        <mxCell id="p6dHSxEKcSRuwTVCDza4-19" value="Clone" style="rounded=1;whiteSpace=wrap;html=1;" vertex="1" parent="1">
          <mxGeometry x="423.04999999999995" y="515" width="100" height="30" as="geometry" />
        </mxCell>
        <mxCell id="p6dHSxEKcSRuwTVCDza4-20" value="Compile" style="rounded=1;whiteSpace=wrap;html=1;" vertex="1" parent="1">
          <mxGeometry x="423.04999999999995" y="569" width="100" height="30" as="geometry" />
        </mxCell>
        <mxCell id="p6dHSxEKcSRuwTVCDza4-21" style="edgeStyle=orthogonalEdgeStyle;rounded=0;orthogonalLoop=1;jettySize=auto;html=1;entryX=0;entryY=0.5;entryDx=0;entryDy=0;" edge="1" parent="1" source="p6dHSxEKcSRuwTVCDza4-23" target="p6dHSxEKcSRuwTVCDza4-87">
          <mxGeometry relative="1" as="geometry" />
        </mxCell>
        <mxCell id="p6dHSxEKcSRuwTVCDza4-22" value="Deploy" style="edgeLabel;html=1;align=center;verticalAlign=middle;resizable=0;points=[];" connectable="0" vertex="1" parent="p6dHSxEKcSRuwTVCDza4-21">
          <mxGeometry x="-0.1111" y="-2" relative="1" as="geometry">
            <mxPoint as="offset" />
          </mxGeometry>
        </mxCell>
        <mxCell id="p6dHSxEKcSRuwTVCDza4-23" value="" style="shape=image;verticalLabelPosition=bottom;verticalAlign=top;imageAspect=0;aspect=fixed;image=data:image/png,UklGRo4bAABXRUJQVlA4TIEbAAAv/8F/ELUK47aNHEn9lz1hZy5+I2ICvCjAAeUYzYTjAfH0bLDadTHrn5j4ksSMB3QUt9TG8JIsWxhHAH8wMELcoCPAEWfT2SLetm1v29bWtgOgJNspM232Xlbv7VP+/y+TcIEnKAUAV4Wnt3hijGEtpsmJRzy9hYG0beJf879KoACAlJp3Rl2H1mX9LbvLto0hTdm2bduu3Xyzdc1mHDIv6/BnCZIkwW2kHIsn97KqawaYRh5EgD9ZDsW2jRR/lIvN/Q/VRCIRxcdpnGYgdZvWv0YoSNuAiX/NO4oiSWpeIAUFl8OTsNJxBYltG0mSg/xVyd4roI/nXeZdxodU6+0WaxbdamLN8u5fr7rVxJpFt5pYs+hWE2sW3WpizZL+9YduNbFm0a0m1iy61cSapTnjAATE95AAYA4HuCD9iMz9/Xb6fihvWCD8uTayB4A78itegxSv1rvk0DGFTfyPH87/3XE8+sSCfefFIPFl5FoAEKggGl34gANtxIrnxdkeJD0LVgFAAL7ow4I2YqX0grvgKTzAwAePwOm95PSOZ0CXHGiiBRu9l57e0ZkBVqsNZVB7rwF6h3+hc4dQBa3XAh37oJQ4dwjCDcAKIHLgD0jlzR3CBjO9JugdDwB7w1nNHXNAuOmVQe/IKiuONCbqg+5w1hxKiksXyxXCsjiMx0mXE3h+VyUsi/N5E6aUIOJdpbB0tBQSnLyrFnrHuSICs6uKoWMf6gXMHTqa2K4Zesdf8BYvdzjEi7m6oXfQACld7hAXaofekfam0qwcE2frhw4OrIuWPYAkNuuH3rHmSJQseoJ7kyyDs+W8xjCqEA8feMDiGlqgBIdD2dA+o3N399Wh/H9cLrBgNrn3zps/jLtcXCfzzvk8VL7O/f71IbWWl8ULptJPPa+pWHzG+0TwEoFPE9mNWOEINMED0arTpcod4kQSYD5Atp0KSKgJnodgF0pvYl8sHBNwTKSAQQCtiBhN8TQU48AXKXcIpwSwANdWRqwmuQsB7XOJcoe4qYM34C8kEU1zE4rEAuUOIQq2zD2whSSmafYgwILpG9cXA0dCtgxelZKoJtqCwhKES8NnTKu8BaGQlDPVDiToQJSFBjW1veDAqJAImWwDGtVloSFVbS/KC4mU6V6TWOVdFBroYnuxDlKBac7UdC9JOTvnVEvCN5die5FSYk7O1ISvSPpGfzRSOWjwFNuLffCWmKMzNR3LAurncuQOUSq2F31F5vjdhPSO2HLkDnFPbC/MS8xWU9LBhGExcodY1tqLrd+Nq8icMDUlvWMRQm9MX2ofOUTE9npXykx7OxU2jQFEGbIHsBfbuyqszMQ1zQ4kyssQPRnEiO09o1dkttJGDLsJowgQHkVIHg2VazisX49HxGnvEPn4kXAlwjbkSxA88wa1i6vvh4Dn3iGSoXCT8ECE7z8esQC5Q++Z9tjqXRvDee/wY8OJlOchHvWN6EvtI3cmtKdWqI/jt3cYUUNNytPQQXT+c4fY1J5ZIzVGwXOHUd1iJOEuxGG69LKfO/yg3VjhTISC5w7jap6ws5hwE4pZkDOfOwRcvK+Gm6XgucMxnTZZOKyEPQg8fjj4vlR+JHCL2yqwNdRB7vBj4G+QmrIFheKs08AnthKmIZWQO/wY+Ht9SFxK2IEECPec0yAqthK6AbWQO/wY+gMOvxI2oLEF2YzTAIithMaOasgdDqUZf1BK2YDGF2DzTKixVpZTDbnDQZr1h1MpL0lhMMsYjbSynHrIHQ7SIv7QqNM7QjKMVbyVQmohd7hVxB8QoOv0LxvG2c4dXkVbKaQicodDaTFrEMWyzLI4088TymzuMKpIK6VURO4QyVFzMAM7YQPa9/hZsEznDq8iZ5KUFYR3WE5Dms7SkXe4fal85FfihXRAKwjvUMq33jWdDhCuec4eXIkX0ondOHiHUk7HV/E5kwkb0FjH0SxHTxxAvJDO/EbCO+xj/s6o3ydsQOMLsDlOHl2Q1h5H70PCO+yj/uCTkkRGX46DZ4/IiI+jf1l4h+P+0KrTOwIynDu8F59GTYyFdzjuDyi8S9iAxsFh3rBXPvJ78WnUgFh4h4I/iGElYQMa/7wj2c0dPojPoq8svEPFHywuZXr3Pfynx+Q2d+gA4rPoKwvvUPKMbJ1lGeTmNncIQHwWfWXhHUqeAcVtncXhrHM8vL7UPfKYhJFfWXiHmmcQU96iCgxI5pSohJFfWXiHouczFGcvYQMan4DJJ3EJI7+y8A5Vz6uCdXpHy9zMHcqeva6U9yTAuZmZO5Q9b6DxPmEDGvugzMvcoe4Z4lhN2IDGX/DOytxhgmfYg5OwAY0bgM7J3GGKZ+Tr9I60OZk7TPEMKO7odHDW2c/I3GHaezbjj0xfnLXHSc3H3GGaZ2jhIGED2nv767hnY+4w0TNCdZYFDbMxd5jq2evR6R1n5lfuEJNi7jDV888j+L4lbEBjF0qzK3eIn9o+ArKSPT9KztlI2IDGBPBzK3eID9o+AsrTPcMl5Zf1wVVAZlbuEHRtGwkDE3hGsU7vSJxZucNrbXTwYQLPgOK+Tr+E5bzKHaJeGx0cAjeBZ/BjNmEDGosQnlW5Q6SIowOvKTxDD0yZ3jHyF8NGyjuEmzg6+PIk+BSeEanTF68uUt4hJNXR8Tr+7rFTeMaQzrKs+Myo3OFnrKuj4/vy5efxpHsGN74nbEA72478fModNt9tfRMZ+3iBBiQjECfgaY+Vkyun3r+/+zJyIGNJ2IDGL+BmU+7wNIjUXkM4BC+4CMhcyh0eHyd9oPSO2LmUOzwenXcHSgcLhjMpd3g8wf9A6R3zEJhHucNTA9fh/vptuDWPcoe7KPGh0jtsZlHucCvgsXKodDyYQ7nD4ED0odLBfkZg/uQOQwGOlwdKX9Yc507uMHYlxtaBsgzC507uMHbAC+BhsgxSZ07uMH4g4TBZhtLmTe5w7PAqDpIFyfnPHbrKcuuAB8ixt9879JVl5SR2D49jb7936CwLpEE/OI49GN7hPmRyRINxYBx7+71Df1lAQM6fD4pjb7936DHLHxGMtwfEsbffO3SaBXKI9d11dg/lJrS33zv0m+WvxnVOfZUfSjCI5xi7vQVnz89Dus/eIYvrF/jsHbK4foHP3iGL6xf47B2yuH6Bz94hi+sX+Owdsrh+gc/eIYvrF/jsHbK4foHP3iGL6xf47B2yuH5B+71DUiwXp7xDUiwXp7xDUiyLU94hKZbFKe+QFMvilHdIimVxyjskxbI45R2SYlmc8g5JsSxOeYekWJb03ztM/73D6rzD9N87PLh3mP57h+m/d/gs2HlKay6DiKESrx1UXMaD+OF76D28vv7GeBB/1eLjzi/yFapSFo/mXfIGhsoHsV+gCESV5g5vYYEKPHe2tX8hO0tecIjPqIMjuCszdwgz9IKhjVjWvHyPq3AEvBpzh4DCDW+1EcugFywgfg1bh7lDuGK055Sxw1kYRP7TY+ovdwgCenvG2TrxXp1TqL3cIcwxnXmWBXsIqrvcIaIAauTWC8oBrbjcIWJ7CegdFwGvttwhEgtB7+gEpNJyh5fFoHcU1FnuEHLYLQe9w7HGcodA4kNJ6FgCf4XlDlFUFHrH1frKHUIW7LLQlw2z6sodors0LN/WVu4QEmCWhmVZZ1dZuUM0lIcFV+oqdwgu7JWHDhaEqip3CJcC0Tviqip3iM4S0fGwpnKHgGIpYQmdHXwCDUNoiR5e2+54eHjIhBev36N571I+tx8Ogauo3CG0ZJylQcFZGs+C5W+53t9jXL4SwbqicocIUPH6fjZiJpcLcOSpD0RIqajcoVct4t15/ah8LhdaxechoFZU7tC7p+GA51QzulwQwKH2WI2fFZU7dKa1/5rvfVaXC7e0x2ps1VPu8PWjHI72P+SVZnW5kCjehIKnmnKHP4kk3rvDN6vLBVtxD2KwMHmHTxMV791hkNXlgpJ44zyfMHmHjpS4dQOVrC6XT0S8cZ40Ju8QquLOHaSyulzPCIg3ztMPJu8QGuLGLYApyvy3RzmKoHyCAiAjXn49nu1XMA7BMX9Pk9h+LePgGfd8Tn0QhDJcRxdS4Qk+oTagoB77SsfPU/ntcJO192VkcdN8BEzeITTEjVsAE5S5yQR/d/7wHvxRL3fO3O5bNUVM1N9vh/P6dnc1H9AL7qiXx0l51c5vMybgYATR4BqpDYZYjvfAYX/nXYAXSJO092Vkjd/jgck7hIa4bw8gvaSfx4P50CAqYl5+NqIzHjgB+Cnmb6jE1IH0iH6QkNflMONjgiXEABqtDV+FHnyPZkimt3cr7WK9szF5hzfivj2A9JIcdWMQz2NevF5jBaOARLw4S6YOdFits3Xmxx8kcGdAitUGltSDD8gELLkHLyKLd04bJu/wZgyrdM+QN/oeuIgXvLGmIW79PU3c1oEEozVTh608R3B+voovUlsXe4DnH1N7MCCKd04bJu8QGiNLHVG6Z0CxbRzCxXp5Fgy7kf/jj/W3ztY6gUKol/E5f7WniN6Dv3usrU2kd3Sl9gBE8c5pw+QdQkNc6qsJPOOFEVqsF8hETCPd+kOkEaaN56FK8Q5hGcQ0IwE722k9MBr3vLMxeYc34lJfTeAZ1fZZhvUCz9hrvtYfmozQGnp+nqCzI7JgGTxGMh3ffjRoSg+sxj1vmLzDG3GprybwDF/7qRh/OVzsc3eOjyKeGeFs6HmQFqsNm/iOtWi9iDKS6X3FI6EHEUU9Pw4m7/BGXOqrCTx/tkt9nobxAlpElz8b3vjDihGUQs/ea1sbpuEJRGvQxOVIvXgeU+DFmYDPly9fcAbFsYuwd0XvgZWyXBsm7/BGPNMdYIIyAcOOadGKr/GCf7HlP0s/9Aey8YHd68Dzs4QdjvGBSQiE1ocybL3g/CmiZSeUhTYAR4UdJ2frt8OpPYjL9u9pMHmHN+KF/oL0FGWCblo0KAq9gAAwtvyrgkJ/MLbftnroeZ29NYYTtg7v8eiDhG05ioVIyZq52IMRjfZvw+QdDkjXyyMy6WXGvlJZ72oLBKPo2e81hP4QMvZlqyPSCry2jjVXW+91KNPymL7YZXin9cAqTimYvMOJ6XqrCTzDz7QIY6EQET37nectEOqM/hx6Rq0R9iJ1/GgkgEZ3ocKWRwU49s0yXEo9iChKMZi8w5mreqspSoKCaRHYQAdCW/TsxzoggfDI6Jxi6BktRmDE6rg1eghrsy1HcaQ4zJtlQLfSg5hilIPJO5y58m8BF6QneWN6Z8e0CCqB8CZ29tud57tQztZ/PHrnOapIHWM6HXctH9Ea1mGa2lCU1AMQIwjB5B3OXPmnIAeYxLM3YlqEU8FtCHbjZz8c488HvGc7z3HZOsZ0Om7Vx7TKzy4DwpN68N4yJkze4cSU/7UDMIlnr85+vdI7QWbk4o/0naBv6hiq3HoekaljRIEX23KUGJ1RdRbsMkA1qQcgindO44HJOxyQ8r92V5N4XjlvWoQrO8Fz5OIP6k7wj317FmMK6xhT4KUboTPQAD+IcbZsHZgGJKkHA6J45zQCJu9wh1S90xSez6gZr8EPIn/k4o/RnVBp6rhIto3JYQR1jCmszQr7qEPxEaV45DBjdaAhrQcvIot3TiPw9Q5PT4JjL1D4g6CNXPwvgd0Kd8M6HMZvBxnTstWpjclrC2uTToFQ0JkjucOTudUwP4i/Yxd/aG2F6bAOPGgjWrY6tTEtXltYmw5uzIXcocyCJiOcam1AcMCxiz/8WwMOYFgHiiIytTn7kb9CDqDYN/V+DWuTwSIE50juMHjHAiPkt7ZmZjyDZYS61hwtUwfcI7K1IQsW5kC2rfdrWJsKQGjNktzhTqB0+4OnQbTx/P9GeNbawN/UAfGoxDuEndJyhx1tcyR3GAgoHJofPB29DuMZ9mCGwvpvB7FfSz2WW0QJLA+JucMO//mROzQHPoZyWL8d7ui9Cz2DDRy+GeOPHDt6t8I6cDumBLqRTMcmBOdG7tAK7cbzeRr/9BhnN7SLTw39pm1rrnYLBXkReW0JWEViJoP8oVQkfUUjRmP2Ps+M3GEhCDOeV3zPKXS7P4QE07ZB5s8jmJQRnCOevTadiKwXrz2sDU5YtnLWfzvcrMgdlgId49krhKcRvBusTdu8S2dpGSsQjnj+KhOT9eKV2Ze2sW39rXObE7nDYoDEnnmb51sjSDYImLY5o/A2X5tLzPNXlaisl8jrjsix/j7NiNyhUHgSer4GLTZk5l1MwUZVqGPM89duhHH7j8k747ZetMi5wyu7DF7zfMgdSvHyQ89g34XCpa1w39SBmVDIjHm2rzthH2jr5ZfDOwfdSM4dNqyaZcCFeZA71LCs2Yx5RuxWXulYHbCPeI7mziJebq1Gc4dCDg/UeZA71LD8JJLDHPEM7a2XdZ5jdYC887yH3KGQw3tX37nDw7xtIxwCufXyNPGROjAdeN5D7lDI4YE6D3KHKhZUjPwtNQIvzr+4FVzeed5H7lDI4YE6D3KHKha4xPUu8PIuLqTsPO8hd4hiIYf3bgbkDrXnAAmcqLzcwAvihLN/ytyhlZDDezcPcoc6FnyPel7xCrxAPyqwX8a38zxh7jCiaA7PaJbkDh8RoDnq+UlA4AXo72Ny3gae95A7RLGQw3s3D3KHOhZ4xTw7v40XvIvVMVS887yP3CGKI7VFNEdyh48DAYARz16f8YKSSB0OeEFx63lMy1anFpGaO0SxrS2mGZI7fFp4EfG84m6cQAxMW4f3KPA8njt0JltEmDOevdrQ3wcjZERqs9kDdM2R3GHhf8PGs9cesYJo+wBzkfKIZxSZ2hAaE7qMZ/ONW+OXCZo6qpHacM2+89jsyB0WC0dxDbvLsjhMr/IcMmYFFqDicFuH79sZvTHPkA43VfEWqOiWAT7s6nVAr7yFQiAOgncaRVKsNihiPBhENMyO3KFUvxzuPM011zWXZwmOWRniXbNaOXOWwd89VvD8PMHtn2jeExjz8oTY/f197C9xBgREAFxdbaBHagN56wS4NhNyh6ZZZkLu0DbLPMgd2maZB7lD2yzzIHdom2Ue5A5ts1Rs7nBDW2N5RDarywWSeOd0XU25w4uUNZZzalldLgiJd04wqKbc4ROSGsuGQVaXC9LqB+Cpptzhq/jEV+3gnNXlgpF45+QoVFPu8G8eI75qh5SsLheCxDunZwnW0+8dCIb2sg1uZHW50KnhHL5+VD393oEY0V62wR4IGV2uc0hnSXusdv5U1O8diHbxZRvkZXS5BmGL+I/ZVdTvHYhY8WUbMP+YzeXa0He2xBvnobKK+r0DYdPFfXuA6IFSFpfLAbyqS5FllXerptxhAzcORvbtowcm0Ie0wdmVE2s219ewGDvWbK4z4QWu8EUSuvBjWVQWn2irptxha7ijkX0v+NZaNeUOW0Noiegoa62acoetQfRdgejQbq16cofFwsMCgU9baid3WA7MykNH0JbKyR1K5bwuDpgHtrY+d8iaa2nol9X1uUNeP8p7VhgwCnh9fe6Qxx3FelEAG4YB1ZI71LLAoyR0FNTZ5w7BQEEAHYg6+9whN3hUDPADpFr73CE3eFAIMA3RevvcwcDgXhHAZ4jW3OcOBhqNAPMPbgFXeZ87GNaYyzzYRRSg1fe5g5/H7w05YNZ/13Acq8LPHXyexi3YuQZ0mFXj5w7GUTRjM8NgB53Qb6PUS+5wLyxAwuZP+JNVnBl04hRwTaBKcof7xQcZdkhHNx5h3GE4YN7ADiadF96FQc46j0dJiSNWLbnDA7D8x6NfRB4QQYwfb+9fRr66CrxATRwJmMb9PWWulAWI//vqe4dJ/987zDuo7x0m/fcO03/vMP33DtN/7zD99w7Tf+8w/fcO03/v8AXRO0z/vcP03ztM/73D9N87TPy9w4ggprWoQ0cbJ1IsmNHWErGZyh2CT2tRh4k2TqRYsKqtJUL3V0flIwJOa1GHrTZOpFiwo60lzu5qy1D24HbKvxAOKZZLbS1XeeeJ1hyWFjxbOa+NEyiWdVxilnOdR6Y4iV/42iBdGydQLBfJiVnONbtMcXQmtOCZ16iNEyiWTZZilvM8SqY4il9Wk3dNGydQLCtnNJZnBPZXR+1j84a04Bm+aOMEimWQo+Ec/HaQTOUOTyjVgmdgAa2NEycW77p2KmOqZSp32BAlBs9A0caJEwv+aacynrdM5Q4bnMTgGQK0ccLEMsQLUDuV0bvH2mofG8TE4BmGtRHDxIIT4pUc0bmiNaxoySMwANdGjBILusUrOYyzRcNDMXkEI23EILEAhkUNgCBki4ZyMXmEDm3EILHAQXwgf5svGk6KySPsAq+NGCMW3BCT3KDmi4YjYEv0jjhtxBCxQOpSTHLDP1+0htcaHSureLQRI8SCCyIdovusrf6xIVOjd69QGzFALDcARfBlr7XVPzZoiiwO6yx9bcTwsACFryIdRXutrf6x/WhQZ058nXzxjf54RG3E6LCgRqXDYK+1GRjbUInIsuDRW23E2LAgWAaTgJjacvXeQw5HpHcMA6mNGBkW+IGj0hGXN45H332V3kHHEW3EuLAgCqAMDsCXOU5wl+kdUzDRRqxSvEAQNPyX6ejPHQ0I/JXpHSCaIFBJAIlgMBLo0M4drcFPILoDjTKIVBDA4Dz+9BRwdd+1mRgloPia1LYOtu/OitdPIlUNgEEXTVjvSet26cjtuzYbo4S9RtSLc+h7hlSYgFQl/Ha4s7QQCCrWlAftEaF977UZGSWeaox6wQzuoBlZCIADLED5hGMOcEH6EZn7+4dvAMQPX1mg8gnGsILvUKpX6132/XRY4hqNCHuPSe59Nox8Jn3AtkYdehnE7H82rHwhRYg2OlXoxffg9aMySQMEN7TRqUAvDuNJQC5pzeNzFrXRqT8vK175pJ3OMnB2tdGpPS9DJTnleFxzFZ9F150Xb+BtVjmeEKCNTtV58W793WMzS2tI08ap4rx4L38e4UBmw1K3Bn8wtXGqNS/e9UOhmerWYIkNbZzqzItX9x+PPpjZsNWtQQUz2jhVmJd3g/ADmg1j3RrIuKyNU3V5ccY3jA9pNox0/IAnVrRxqiovAL22n42YdVp7moh3TRunivKC8U0mx8xzOh43jHyPtBGrJC8fEPXruAvA8dRggCfaiFWQFywjaQN9KgPbA+YYxL42YnXjBSM4D8whzoHNDg/gEQi6NmLV4gULqIHygc6ByY4d3yIctJsqAmy8Rh4MAT/YObDYY8dfDLthNsj1rjlT72oGrOIRquAB0kHPga4NsgAHPQShAD24h+9YqwqcPWfSo3sXUIU42EDo8OegDR05AAXxGwAOcJbWGZ27uw1thwJK/Pi6oV1WL5C58vhfRLZ/RNc3kxiw/O+ZNN1qYs2iW02sWXSriTWLbjWxZnn3r0+61cSaRbeaWLPoVhNrFt1qYs2iW0OoWRoA;" vertex="1" parent="1">
          <mxGeometry x="933.05" y="492.5" width="60" height="60" as="geometry" />
        </mxCell>
        <mxCell id="p6dHSxEKcSRuwTVCDza4-24" style="edgeStyle=orthogonalEdgeStyle;rounded=0;orthogonalLoop=1;jettySize=auto;html=1;" edge="1" parent="1" source="p6dHSxEKcSRuwTVCDza4-25" target="p6dHSxEKcSRuwTVCDza4-42">
          <mxGeometry relative="1" as="geometry">
            <mxPoint x="773.05" y="513" as="targetPoint" />
          </mxGeometry>
        </mxCell>
        <mxCell id="p6dHSxEKcSRuwTVCDza4-25" value="" style="rounded=0;whiteSpace=wrap;html=1;" vertex="1" parent="1">
          <mxGeometry x="583.05" y="406" width="140" height="214" as="geometry" />
        </mxCell>
        <mxCell id="p6dHSxEKcSRuwTVCDza4-26" value="&lt;b&gt;(Test Phase)&lt;/b&gt;" style="text;html=1;align=center;verticalAlign=middle;resizable=0;points=[];autosize=1;strokeColor=none;fillColor=none;" vertex="1" parent="1">
          <mxGeometry x="583.05" y="406" width="90" height="30" as="geometry" />
        </mxCell>
        <mxCell id="p6dHSxEKcSRuwTVCDza4-27" style="edgeStyle=orthogonalEdgeStyle;rounded=0;orthogonalLoop=1;jettySize=auto;html=1;entryX=0.5;entryY=0;entryDx=0;entryDy=0;" edge="1" parent="1" source="p6dHSxEKcSRuwTVCDza4-29" target="p6dHSxEKcSRuwTVCDza4-33">
          <mxGeometry relative="1" as="geometry" />
        </mxCell>
        <mxCell id="p6dHSxEKcSRuwTVCDza4-28" value="Trigger" style="edgeLabel;html=1;align=center;verticalAlign=middle;resizable=0;points=[];" connectable="0" vertex="1" parent="p6dHSxEKcSRuwTVCDza4-27">
          <mxGeometry x="-0.25" y="2" relative="1" as="geometry">
            <mxPoint as="offset" />
          </mxGeometry>
        </mxCell>
        <mxCell id="p6dHSxEKcSRuwTVCDza4-29" value="JUnit Test" style="rounded=1;whiteSpace=wrap;html=1;" vertex="1" parent="1">
          <mxGeometry x="608.9" y="455" width="87.5" height="28" as="geometry" />
        </mxCell>
        <mxCell id="p6dHSxEKcSRuwTVCDza4-30" value="&lt;b style=&quot;text-wrap: nowrap;&quot;&gt;(Stage Gate)&lt;br&gt;Dev Manager login&lt;/b&gt;" style="rhombus;whiteSpace=wrap;html=1;" vertex="1" parent="1">
          <mxGeometry x="1172.87" y="404" width="140" height="140" as="geometry" />
        </mxCell>
        <mxCell id="p6dHSxEKcSRuwTVCDza4-31" value="Code analysis" style="edgeStyle=orthogonalEdgeStyle;rounded=0;orthogonalLoop=1;jettySize=auto;html=1;entryX=0.5;entryY=0;entryDx=0;entryDy=0;" edge="1" parent="1" source="p6dHSxEKcSRuwTVCDza4-33" target="p6dHSxEKcSRuwTVCDza4-38">
          <mxGeometry x="-0.5557" y="1" relative="1" as="geometry">
            <mxPoint x="652.05" y="670" as="targetPoint" />
            <mxPoint as="offset" />
          </mxGeometry>
        </mxCell>
        <mxCell id="p6dHSxEKcSRuwTVCDza4-32" value="Analysis result" style="edgeLabel;html=1;align=center;verticalAlign=middle;resizable=0;points=[];" connectable="0" vertex="1" parent="p6dHSxEKcSRuwTVCDza4-31">
          <mxGeometry x="0.2034" y="-2" relative="1" as="geometry">
            <mxPoint y="18" as="offset" />
          </mxGeometry>
        </mxCell>
        <mxCell id="p6dHSxEKcSRuwTVCDza4-33" value="SonarQube Scanner" style="rounded=1;whiteSpace=wrap;html=1;align=center;" vertex="1" parent="1">
          <mxGeometry x="591.8" y="544" width="121.25" height="26" as="geometry" />
        </mxCell>
        <mxCell id="p6dHSxEKcSRuwTVCDza4-34" style="edgeStyle=orthogonalEdgeStyle;rounded=0;orthogonalLoop=1;jettySize=auto;html=1;entryX=0.5;entryY=0;entryDx=0;entryDy=0;" edge="1" parent="1" source="p6dHSxEKcSRuwTVCDza4-35" target="p6dHSxEKcSRuwTVCDza4-19">
          <mxGeometry relative="1" as="geometry" />
        </mxCell>
        <mxCell id="p6dHSxEKcSRuwTVCDza4-35" value="Clean" style="rounded=1;whiteSpace=wrap;html=1;" vertex="1" parent="1">
          <mxGeometry x="423.04999999999995" y="455" width="100" height="30" as="geometry" />
        </mxCell>
        <mxCell id="p6dHSxEKcSRuwTVCDza4-36" value="&lt;font style=&quot;font-size: 16px;&quot;&gt;Jenkins Pipeline&lt;/font&gt;" style="text;html=1;align=center;verticalAlign=middle;resizable=0;points=[];autosize=1;strokeColor=none;fillColor=none;" vertex="1" parent="1">
          <mxGeometry x="582.43" y="260" width="140" height="30" as="geometry" />
        </mxCell>
        <mxCell id="p6dHSxEKcSRuwTVCDza4-37" style="edgeStyle=orthogonalEdgeStyle;rounded=0;orthogonalLoop=1;jettySize=auto;html=1;entryX=0.5;entryY=0;entryDx=0;entryDy=0;" edge="1" parent="1" source="p6dHSxEKcSRuwTVCDza4-38" target="p6dHSxEKcSRuwTVCDza4-40">
          <mxGeometry relative="1" as="geometry" />
        </mxCell>
        <mxCell id="p6dHSxEKcSRuwTVCDza4-38" value="SonarQube Server" style="rounded=1;whiteSpace=wrap;html=1;align=center;" vertex="1" parent="1">
          <mxGeometry x="591.8" y="660" width="121.25" height="26" as="geometry" />
        </mxCell>
        <mxCell id="p6dHSxEKcSRuwTVCDza4-39" value="Stored Analysis" style="shape=cylinder3;whiteSpace=wrap;html=1;boundedLbl=1;backgroundOutline=1;size=15;" vertex="1" parent="1">
          <mxGeometry x="463.04999999999995" y="686" width="60" height="80" as="geometry" />
        </mxCell>
        <mxCell id="p6dHSxEKcSRuwTVCDza4-40" value="Data Visualisation" style="shape=document;whiteSpace=wrap;html=1;boundedLbl=1;" vertex="1" parent="1">
          <mxGeometry x="593.05" y="730" width="120" height="80" as="geometry" />
        </mxCell>
        <mxCell id="p6dHSxEKcSRuwTVCDza4-41" style="edgeStyle=orthogonalEdgeStyle;rounded=0;orthogonalLoop=1;jettySize=auto;html=1;entryX=1.033;entryY=0.583;entryDx=0;entryDy=0;entryPerimeter=0;" edge="1" parent="1" source="p6dHSxEKcSRuwTVCDza4-40" target="p6dHSxEKcSRuwTVCDza4-39">
          <mxGeometry relative="1" as="geometry" />
        </mxCell>
        <mxCell id="p6dHSxEKcSRuwTVCDza4-42" value="End" style="rounded=0;whiteSpace=wrap;html=1;" vertex="1" parent="1">
          <mxGeometry x="773.05" y="499.5" width="80" height="27" as="geometry" />
        </mxCell>
        <mxCell id="p6dHSxEKcSRuwTVCDza4-43" style="edgeStyle=orthogonalEdgeStyle;rounded=0;orthogonalLoop=1;jettySize=auto;html=1;entryX=0;entryY=0.5;entryDx=0;entryDy=0;exitX=1.002;exitY=0.487;exitDx=0;exitDy=0;exitPerimeter=0;" edge="1" parent="1" source="p6dHSxEKcSRuwTVCDza4-44" target="p6dHSxEKcSRuwTVCDza4-23">
          <mxGeometry relative="1" as="geometry" />
        </mxCell>
        <mxCell id="p6dHSxEKcSRuwTVCDza4-44" value="" style="rounded=0;whiteSpace=wrap;html=1;fillColor=none;" vertex="1" parent="1">
          <mxGeometry x="393.04999999999995" y="230" width="490" height="600" as="geometry" />
        </mxCell>
        <mxCell id="p6dHSxEKcSRuwTVCDza4-45" value="" style="shape=link;html=1;rounded=0;entryX=0;entryY=0.5;entryDx=0;entryDy=0;" edge="1" parent="1" target="p6dHSxEKcSRuwTVCDza4-14">
          <mxGeometry width="100" relative="1" as="geometry">
            <mxPoint x="253.55" y="349.49" as="sourcePoint" />
            <mxPoint x="313.04999999999995" y="298" as="targetPoint" />
          </mxGeometry>
        </mxCell>
        <mxCell id="p6dHSxEKcSRuwTVCDza4-46" value="Check-in Trigger" style="edgeLabel;html=1;align=center;verticalAlign=middle;resizable=0;points=[];" connectable="0" vertex="1" parent="p6dHSxEKcSRuwTVCDza4-45">
          <mxGeometry x="-0.0404" relative="1" as="geometry">
            <mxPoint as="offset" />
          </mxGeometry>
        </mxCell>
        <mxCell id="p6dHSxEKcSRuwTVCDza4-47" value="" style="shape=crossbar;whiteSpace=wrap;html=1;rounded=1;direction=south;strokeWidth=9;perimeterSpacing=0;fillStyle=auto;rotation=-90;labelPosition=left;verticalLabelPosition=middle;align=right;verticalAlign=middle;horizontal=1;textDirection=vertical-rl;" vertex="1" parent="1">
          <mxGeometry x="489.47" y="469.12" width="130.7" height="988.07" as="geometry" />
        </mxCell>
        <mxCell id="p6dHSxEKcSRuwTVCDza4-48" value="" style="shape=crossbar;whiteSpace=wrap;html=1;rounded=1;direction=south;strokeWidth=6;perimeterSpacing=0;fillStyle=auto;rotation=-90;fontSize=17;horizontal=1;verticalAlign=middle;labelPosition=left;verticalLabelPosition=middle;align=right;textDirection=vertical-lr;fontStyle=1;" vertex="1" parent="1">
          <mxGeometry x="1898.49" y="420.28" width="163.75" height="1102.1" as="geometry" />
        </mxCell>
        <mxCell id="p6dHSxEKcSRuwTVCDza4-49" value="Private subnet&amp;nbsp;" style="points=[[0,0],[0.25,0],[0.5,0],[0.75,0],[1,0],[1,0.25],[1,0.5],[1,0.75],[1,1],[0.75,1],[0.5,1],[0.25,1],[0,1],[0,0.75],[0,0.5],[0,0.25]];outlineConnect=0;gradientColor=none;html=1;whiteSpace=wrap;fontSize=12;fontStyle=0;container=1;pointerEvents=0;collapsible=0;recursiveResize=0;shape=mxgraph.aws4.group;grIcon=mxgraph.aws4.group_security_group;grStroke=0;strokeColor=#00A4A6;fillColor=#E6F6F7;verticalAlign=top;align=left;spacingLeft=30;fontColor=#147EBA;dashed=0;" vertex="1" parent="1">
          <mxGeometry x="1733.13" y="449" width="310" height="206.5" as="geometry" />
        </mxCell>
        <mxCell id="p6dHSxEKcSRuwTVCDza4-50" value="10.1.0.0/16" style="rounded=0;whiteSpace=wrap;html=1;" vertex="1" parent="p6dHSxEKcSRuwTVCDza4-49">
          <mxGeometry x="210" width="100" height="20" as="geometry" />
        </mxCell>
        <mxCell id="p6dHSxEKcSRuwTVCDza4-51" value="Public subnet" style="points=[[0,0],[0.25,0],[0.5,0],[0.75,0],[1,0],[1,0.25],[1,0.5],[1,0.75],[1,1],[0.75,1],[0.5,1],[0.25,1],[0,1],[0,0.75],[0,0.5],[0,0.25]];outlineConnect=0;gradientColor=none;html=1;whiteSpace=wrap;fontSize=12;fontStyle=0;container=1;pointerEvents=0;collapsible=0;recursiveResize=0;shape=mxgraph.aws4.group;grIcon=mxgraph.aws4.group_security_group;grStroke=0;strokeColor=#7AA116;fillColor=#F2F6E8;verticalAlign=top;align=left;spacingLeft=30;fontColor=#248814;dashed=0;" vertex="1" parent="1">
          <mxGeometry x="2103.13" y="425.5" width="290" height="436" as="geometry" />
        </mxCell>
        <mxCell id="p6dHSxEKcSRuwTVCDza4-52" value="&lt;span style=&quot;color: rgb(20, 126, 186); text-align: left;&quot;&gt;10.0.1.0/24&lt;/span&gt;" style="rounded=0;whiteSpace=wrap;html=1;" vertex="1" parent="p6dHSxEKcSRuwTVCDza4-51">
          <mxGeometry x="190" width="100" height="20" as="geometry" />
        </mxCell>
        <mxCell id="p6dHSxEKcSRuwTVCDza4-53" value="Public-SG1" style="fontStyle=0;verticalAlign=top;align=center;spacingTop=-2;fillColor=none;rounded=0;whiteSpace=wrap;html=1;strokeColor=#FF0000;strokeWidth=2;dashed=1;container=1;collapsible=0;expand=0;recursiveResize=0;" vertex="1" parent="1">
          <mxGeometry x="2118.13" y="484" width="105" height="157.5" as="geometry" />
        </mxCell>
        <mxCell id="p6dHSxEKcSRuwTVCDza4-54" value="&lt;span style=&quot;color: rgb(0, 0, 0);&quot;&gt;Public-EBS-env1&lt;/span&gt;" style="sketch=0;points=[[0,0,0],[0.25,0,0],[0.5,0,0],[0.75,0,0],[1,0,0],[0,1,0],[0.25,1,0],[0.5,1,0],[0.75,1,0],[1,1,0],[0,0.25,0],[0,0.5,0],[0,0.75,0],[1,0.25,0],[1,0.5,0],[1,0.75,0]];outlineConnect=0;fontColor=#232F3E;fillColor=#ED7100;strokeColor=#ffffff;dashed=0;verticalLabelPosition=bottom;verticalAlign=top;align=center;html=1;fontSize=12;fontStyle=0;aspect=fixed;shape=mxgraph.aws4.resourceIcon;resIcon=mxgraph.aws4.elastic_beanstalk;" vertex="1" parent="p6dHSxEKcSRuwTVCDza4-53">
          <mxGeometry x="13.5" y="45" width="78" height="78" as="geometry" />
        </mxCell>
        <mxCell id="p6dHSxEKcSRuwTVCDza4-55" value="&lt;span style=&quot;text-align: right;&quot;&gt;0.0.0.0/0&lt;/span&gt;" style="outlineConnect=0;dashed=0;verticalLabelPosition=top;verticalAlign=bottom;align=center;html=1;shape=mxgraph.aws3.internet_gateway;fillColor=#F58534;gradientColor=none;labelPosition=center;horizontal=1;" vertex="1" parent="1">
          <mxGeometry x="1993.13" y="203.5" width="69" height="72" as="geometry" />
        </mxCell>
        <mxCell id="p6dHSxEKcSRuwTVCDza4-56" value="&lt;font style=&quot;font-size: 8px;&quot;&gt;PublicRouteTable1&lt;/font&gt;" style="outlineConnect=0;dashed=0;verticalLabelPosition=bottom;verticalAlign=top;align=center;html=1;shape=mxgraph.aws3.route_table;fillColor=#F58536;gradientColor=none;movable=1;resizable=1;rotatable=1;deletable=1;editable=1;locked=0;connectable=1;horizontal=1;labelPosition=center;" vertex="1" parent="1">
          <mxGeometry x="2253.13" y="425.5" width="40" height="40" as="geometry" />
        </mxCell>
        <mxCell id="p6dHSxEKcSRuwTVCDza4-57" value="Router1" style="outlineConnect=0;dashed=0;verticalLabelPosition=bottom;verticalAlign=top;align=center;html=1;shape=mxgraph.aws3.router;fillColor=#F58534;gradientColor=none;" vertex="1" parent="1">
          <mxGeometry x="2118.13" y="295.5" width="50" height="50" as="geometry" />
        </mxCell>
        <mxCell id="p6dHSxEKcSRuwTVCDza4-58" value="Private-RouteTable1" style="outlineConnect=0;dashed=0;verticalLabelPosition=bottom;verticalAlign=top;align=center;html=1;shape=mxgraph.aws3.route_table;fillColor=#F58536;gradientColor=none;movable=1;resizable=1;rotatable=1;deletable=1;editable=1;locked=0;connectable=1;horizontal=1;labelPosition=center;fontSize=8;" vertex="1" parent="1">
          <mxGeometry x="1903.13" y="449" width="40" height="40" as="geometry" />
        </mxCell>
        <mxCell id="p6dHSxEKcSRuwTVCDza4-59" value="Private-SG1" style="fontStyle=0;verticalAlign=top;align=center;spacingTop=-2;fillColor=none;rounded=0;whiteSpace=wrap;html=1;strokeColor=#FF0000;strokeWidth=2;dashed=1;container=1;collapsible=0;expand=0;recursiveResize=0;" vertex="1" parent="1">
          <mxGeometry x="1743.13" y="486.25" width="126.87" height="155.5" as="geometry" />
        </mxCell>
        <mxCell id="p6dHSxEKcSRuwTVCDza4-60" value="&lt;span style=&quot;color: rgb(0, 0, 0);&quot;&gt;Private-EC2-instance1&lt;/span&gt;" style="sketch=0;points=[[0,0,0],[0.25,0,0],[0.5,0,0],[0.75,0,0],[1,0,0],[0,1,0],[0.25,1,0],[0.5,1,0],[0.75,1,0],[1,1,0],[0,0.25,0],[0,0.5,0],[0,0.75,0],[1,0.25,0],[1,0.5,0],[1,0.75,0]];outlineConnect=0;fontColor=#232F3E;fillColor=#ED7100;strokeColor=#ffffff;dashed=0;verticalLabelPosition=bottom;verticalAlign=top;align=center;html=1;fontSize=12;fontStyle=0;aspect=fixed;shape=mxgraph.aws4.resourceIcon;resIcon=mxgraph.aws4.ec2;" vertex="1" parent="p6dHSxEKcSRuwTVCDza4-59">
          <mxGeometry x="26.99999999999989" y="40.25" width="78" height="78" as="geometry" />
        </mxCell>
        <mxCell id="p6dHSxEKcSRuwTVCDza4-61" style="edgeStyle=orthogonalEdgeStyle;rounded=0;orthogonalLoop=1;jettySize=auto;html=1;exitX=1;exitY=0.5;exitDx=0;exitDy=0;exitPerimeter=0;entryX=0.5;entryY=1;entryDx=0;entryDy=0;" edge="1" parent="1" source="p6dHSxEKcSRuwTVCDza4-62" target="p6dHSxEKcSRuwTVCDza4-53">
          <mxGeometry relative="1" as="geometry" />
        </mxCell>
        <mxCell id="p6dHSxEKcSRuwTVCDza4-62" value="NATGate1" style="outlineConnect=0;dashed=0;verticalLabelPosition=bottom;verticalAlign=top;align=center;html=1;shape=mxgraph.aws3.vpc_nat_gateway;fillColor=#F58534;gradientColor=none;" vertex="1" parent="1">
          <mxGeometry x="2078.13" y="711.5" width="40" height="40" as="geometry" />
        </mxCell>
        <mxCell id="p6dHSxEKcSRuwTVCDza4-63" style="edgeStyle=orthogonalEdgeStyle;rounded=0;orthogonalLoop=1;jettySize=auto;html=1;exitX=0.5;exitY=0;exitDx=0;exitDy=0;exitPerimeter=0;entryX=0.145;entryY=0.145;entryDx=0;entryDy=0;entryPerimeter=0;" edge="1" parent="1" source="p6dHSxEKcSRuwTVCDza4-58" target="p6dHSxEKcSRuwTVCDza4-62">
          <mxGeometry relative="1" as="geometry">
            <Array as="points" />
          </mxGeometry>
        </mxCell>
        <mxCell id="p6dHSxEKcSRuwTVCDza4-64" value="NAC-List1" style="outlineConnect=0;dashed=0;verticalLabelPosition=bottom;verticalAlign=top;align=center;html=1;shape=mxgraph.aws3.network_access_controllist;fillColor=#F58534;gradientColor=none;" vertex="1" parent="1">
          <mxGeometry x="2373.13" y="504" width="40" height="40" as="geometry" />
        </mxCell>
        <mxCell id="p6dHSxEKcSRuwTVCDza4-65" value="" style="endArrow=classic;startArrow=classic;html=1;rounded=0;entryX=0;entryY=0.5;entryDx=0;entryDy=0;entryPerimeter=0;exitX=1;exitY=0.25;exitDx=0;exitDy=0;" edge="1" parent="1" source="p6dHSxEKcSRuwTVCDza4-53" target="p6dHSxEKcSRuwTVCDza4-64">
          <mxGeometry width="50" height="50" relative="1" as="geometry">
            <mxPoint x="2273.13" y="549" as="sourcePoint" />
            <mxPoint x="2323.13" y="499" as="targetPoint" />
          </mxGeometry>
        </mxCell>
        <mxCell id="p6dHSxEKcSRuwTVCDza4-66" value="Default" style="edgeLabel;html=1;align=center;verticalAlign=middle;resizable=0;points=[];" connectable="0" vertex="1" parent="p6dHSxEKcSRuwTVCDza4-65">
          <mxGeometry x="0.2072" y="-1" relative="1" as="geometry">
            <mxPoint as="offset" />
          </mxGeometry>
        </mxCell>
        <mxCell id="p6dHSxEKcSRuwTVCDza4-67" value="" style="outlineConnect=0;dashed=0;verticalLabelPosition=bottom;verticalAlign=top;align=center;html=1;shape=mxgraph.aws3.internet_2;fillColor=#D2D3D3;gradientColor=none;" vertex="1" parent="1">
          <mxGeometry x="1974.75" y="34" width="79.5" height="54" as="geometry" />
        </mxCell>
        <mxCell id="p6dHSxEKcSRuwTVCDza4-68" value="" style="endArrow=none;html=1;rounded=0;entryX=0.5;entryY=1;entryDx=0;entryDy=0;entryPerimeter=0;" edge="1" parent="1" source="p6dHSxEKcSRuwTVCDza4-57" target="p6dHSxEKcSRuwTVCDza4-55">
          <mxGeometry width="50" height="50" relative="1" as="geometry">
            <mxPoint x="2343.13" y="219" as="sourcePoint" />
            <mxPoint x="2393.13" y="169" as="targetPoint" />
            <Array as="points">
              <mxPoint x="2028.13" y="320.5" />
            </Array>
          </mxGeometry>
        </mxCell>
        <mxCell id="p6dHSxEKcSRuwTVCDza4-69" value="" style="endArrow=classic;startArrow=classic;html=1;rounded=0;exitX=0.5;exitY=0;exitDx=0;exitDy=0;exitPerimeter=0;entryX=0.5;entryY=1;entryDx=0;entryDy=0;entryPerimeter=0;" edge="1" parent="1" source="p6dHSxEKcSRuwTVCDza4-55">
          <mxGeometry width="50" height="50" relative="1" as="geometry">
            <mxPoint x="2343.13" y="219" as="sourcePoint" />
            <mxPoint x="2027.63" y="109.5" as="targetPoint" />
          </mxGeometry>
        </mxCell>
        <mxCell id="p6dHSxEKcSRuwTVCDza4-70" style="edgeStyle=orthogonalEdgeStyle;rounded=0;orthogonalLoop=1;jettySize=auto;html=1;" edge="1" parent="1" source="p6dHSxEKcSRuwTVCDza4-71" target="p6dHSxEKcSRuwTVCDza4-3">
          <mxGeometry relative="1" as="geometry" />
        </mxCell>
        <mxCell id="p6dHSxEKcSRuwTVCDza4-71" value="QA Environment" style="shape=image;verticalLabelPosition=bottom;verticalAlign=top;imageAspect=0;aspect=fixed;image=data:image/png,iVBORw0KGgoAAAANSUhEUgAAAlMAAAGoCAYAAABi/GCvAAAABGdBTUEAALGPC/xhBQAAACBjSFJNAAB6JgAAgIQAAPoAAACA6AAAdTAAAOpgAAA6mAAAF3CculE8AAAABmJLR0QA/wD/AP+gvaeTAAAAB3RJTUUH6AcDDyUNC0ir1gAAgABJREFUeNrsnXWYE9f3h994Nuu+sIu7u7tbsba01GgLLfVSd5fvr+5OhTqUAoXS4lDc3d193S3J748JLaW77GQ3yUbO+zx5kNyZzJx7Z+Yz5557DgiCIAiCIAiCIAiCIAhCZaATEwiC4Mf0BYKBc2IKQfA4QUCxmEEQBMF3MQPHABvwO9BKTCIIHqEN8LnjJSZMzCEIguC7PATYL/pYgZ+BRmIaQXA5BuBmYPsl192dYhpBEATfJBg4f8lN/WJR9QPQQMwkCBXGAtwHHCnletssJhIEQfBN7irlxn7xpxj4Dqgj5hIEpzEBE4AzKq61+mIuQRAE32O7ihv8hU8h8D4QLmYThDLRAqOAg05cY4+K2QRBEHyLfk7c5C/+nAXGI6ucBaE0hgB7ynFtrRDTCYIg+BbTyimmLny2An3EjILwN42AuRW4poqBaDGjIAiCbxAJ5FdQTF34/AbUE5MKAUw4yhR4kQuup5FiTkEQBN/gdhcJqQufAuBtJFeOEHhcC5xy4bX0nphUEATBN/jLxWLqwuc0MEbMKwQAtYE5briGNolpBUEQvJ+qKDmk7G78zAKqi6kFP0SHsuou103XjhWIEDMLgiB4N66e4ivtkwXcj7JEXBD8gfrASg9cO/3E1IIgCN7NLA+JqQuflUiAuuDbaFDSgWR76Jp5UkwuCILgvQQBOR4WUxe8VHc5HkqC4EskAos9fL1MF7MLgiB4L4PV3MzjY4Ld9ZCYjxKzJQi+wDAguRJePo6J6QVBELyXd9TczJ+9t7M7HxTnHKJOELwVM/ARYHP1+G/WIFZt2zjpBkEQBO9ks5ob+ZGld9otQQZ3CiqbQ9gZpUsEL6MeSnZ/l497rVZj/+LVAWrb9/JH48pqFEEQfJ1ooHlZjWokhlEjMYzmDWLdeSwa4EFgFUq+HkHwBoYC69RcJ+Whaf0Y+napqbZ5YxFTgiAI3kdPNfeyLm2SAGjdJN4Tx9QGWA8MkO4RKhEN8DhKaaQId/1It7bVqJkYTnREkJrmjURMCYIgeB/d1TTq3FqJD2/dNN5TxxUF/OF4mMlqP8HTRDjG32vuftZ3bl0VjQZaNlYVDiWeKUEQBC+ko5pGFzxTnVolevLYdI6H2RQgWLpK8BC1UaaaB3nix7q1qwZAozrRIqYEQRB8EDPQsqxGIRYjzerH/n3Dj4owe/o4R6HUDUyQLhPcTGdgDR6aTquRGEa1KqEANKwTpWaTeJQ4RxFTgiAIXkJrVKyca9YgBp1OmWnTaKBjy0pJCdXW4S1oKN0muInrgEVArKd+sHenGn//vWFt1RrJ7+KmREwJguDLdFDTqGXjf8dJdW6dWFnHWwulDE036TrBxTwO/IjirfUYg3r8s2i1YR3VYsrvpvpETAmC4Mu0U9OoRcN/v6h3aZNYmcccBSwAhkv3CS5AgxKX9xoeXuig12npd1FKhKpxIQSZ9SKmBEEQfIxWqhpd4pnq1CpR7U3fXZiAacAN0oVCBYXUeyheKY/TpU0iEWGmfw5GA4nxoWo2lWk+QRAELyEIJavzZdHpNDStH/NvJWPU0bVtUmUfvw6YhBLnIgjOYgB+Au6vrAO4eIrvAkkJqsRUfRFTgiAI3kFThyC5LPVqRmEJMvzn//tcFDhbieiB74Ex0p2Ck+PmZ2B0ZR5ESWLqwsq+MkhynIOIKUEQhEqmpZpGl8ZL/S2mOtfwlvPQAV8DV0qXCirHy7fAVZV5EEkJoTQroTSTSs+UHqgmYkoQBKHyaaamUeO6MSX+f6vG8cRGWbzpAfkjSmkcQbjcM/tL4PrKPpAR/eqhKSHcPUmdZwqUla0ipgRBECoZVfma6tWMLFm96DRc0buON52PGaWGWgvpWqEENMDHwC3ecDA3jmhS4v+r9EwB1BQxJQiC4CNiqn6tyFK/G9anrredUzgwx98eNIJLeAa40xsOpF7NSDq0qCJiSsSUIAg+TjBKEKuKG3/pJS76d61ZYnB6JVMFxUNlkW4WHFwLvOgtB3Pj8CalfletiogpQRAEX6EhKhIUJsQGExZSerUZS5DBW1b1XUoL4FPpZgElW/63eDghZ2loNHDD8NJzbsZEWjCbVC3Uk5gpQRCESqaBmkb1a5ZdeHX0FV5bKm8McK90dUBTD5iBkuTVK+jYsip1qkdcVmxVjQsRMSUIguADqLoRlxZ8fjHD+9UjxGL01vN8B+go3R2QBAG/AtHedFClBZ5fTExUkJpdVfEmkShiShCEQKS6q8RUcJCBEf3qeet5GlCmeCR+KvD4CGjuVerOrGf0kLIrwUSFq6q1rFV7HYuYEgRBqEQxVb1qmKqdXS4GxAuoD7wqXR5QjAHGettBXT+0MVERZQulqIggtbusKWJKEASh8lAVNa52mXa/LjVVC69K4n6gq3R7QNAY+MQbD+y+Ma1VtVPpmQKoKmJKEASh8lDlmUpMUBUIi06n4Y7rWnr7vfoblMSegv9yofh1sLcdWPd21WjRKE6dmIoQMSUIguDtxKh52Gg0kBivOucNt1/bHJNR583nXReYIN3v10wA2nnjgT02vr3qtpFhqsVUFRFTgiAIlYMqr1RslMUpcRQbZeGqgQ28/dyfwMtWdwkuoxbwkjceWItGcQzuqb70UnSk6pgp8UwJgiBUEi6Nl7qYh8e1K7F4qxcRATwrQ8Av+QwvnN4DeOKODk5dF+KZEgRB8H5UeabKI6ZaN4lnUI/a3n7+dwG1ZRj4FVcA/b3xwBrWiWbUIOcS20rMlCAIgp+IqcRyiCmAp+/u5O3nbwQelmHgN2iAl7314P73cHd0OufctU6s5kvAS8rkiJgSBEHEVAnERgWVa+edWyfS2zvr9V3MGCBchoJfMApo6Y0H1qlV1XIltHUiz5QZiPKHThQxJQiCrxGrplF0RFC5f+D1x3qg1Xr1C3MIcLMMBZ9HB7zorQf3+mM9yxVDGBrsVHkmv4ib0stYFgTBx1D1JlsRMdW2WQI3Dm/MdzN2erMd7gE+BOx+0q8Xav9EoEz9hJfxwp8B2Er5zub4Phco8OJzHgF4ZaXt64Y2olu7pHJtG2TWo9NpsFpVDc2qwA4RU4IgCJ5FVWoAJ5Znl8irD3fn17n7yM0r8lY71Ae6A0sr8RjCHP0RddGfJX3CULxpeiAUxSMT5hBL7p6uvFhY5ZXx92zgDHDe8Ul2/DvTTcc2zhsHVmiwkbee7FWhfQQHGcjMLlTTVDxTgiAI3iqmYiooppISQnnmnk489dYyb7bFUDeIKQNKYHB1INHxufjvF4skX3iGaFG8XpEV2EfBRQLrjENknQfOOT6ngGPAUYc4U0M1vHQF3/P3d6FqXEiF9hFsMaoVU3H4ASKmBEHwJUIAkyrFVUExBfDo7e35dc5eNu08681i6pFyiNH6KEkiE4Ekx4O9quPPBCSe9lJMDjupmfdKcQir4w5xdQjYDxwEDvPPtOMtKB46r6JtswQm3NKmwvsJDjKobRojYkoQBMGzqF75U5GYqb9vkDotX782iHYjv6Oo2OaN9qgPNAD2XvL/RpTyMw0cbeqjxOY0QDKou5tox6dVCd/ZHCLrANDM6xSjUcekNwaj11VcS4dYVIupWH/odBFTgiD42oOqTIwGnbMrikqlRaM4nr67Ey98sNJbbXI/sO0SwVQTL/R6CGhRMvh7Ze6Nlx7oSpN6rnEUBVvEMyUIguDTYiosxOjSsjDP3NOZFRtPsHDlUW+0yd0yLISK0r1dNR4e195l+wu0aT6ZFxcEwZdQdeO1qL+Rq0Kn0zDl/eHUSAyTHhD8jrhoCz+9N9TpTOeXFVMBNs0nYkoQBF9C1YosV4spUOqN/fzeMMwmcegL/oNOp+Gnd4eSGB/i0v2GWFRPs4tnShAEwcOoCkC3mN0jeDq1qsoPb1/h0jd4QahMXpzQlT6dXR/C5YRnKhwlHYeIKUEQBA9hcfGN3GmuGlifj1/oJz0h+DzXDW3EU3e5p7C3Ex5cDX7gnRIxJQiCL6GqHH2Qm6fi7riuJS890FV6Q/BZeneqwaQ3Brt0ocbFGA1OLSb1eTElk/+CIPidmHJHzNSlPHtvZyxBBh59bQl2u3TMxWg0EBFmJiLURFioifAQE2GhRsJCTISHmigstPLV1G0eO57a1SIYP7oFWTmFZOcWkp1TRGZ2ARlZBWTnFpGVU0hKWh4p6XkUFFr9vn+a1o9h2scjnBU8TmEyOrVvn899JmJKEAS/E1PunOa7mIfHtSM02Mhdz83HZvNvRWU06KgaH0JSQihV40KIi7YQG2UhJiqIhJhgYqMsxEYFERttKTNhqt0OKzedZM/BFI8c+3VDG/H4HR1Utb0grM6n5pLsEFjJqXmcOJPFmeQcjp9S/jxxJsub6zaWSsM60Sz87loiwkxuHy9OEO7r14eIKUEQ/E5MBXlwxd340S2oEhfMjQ/NVluLzCuJDDdTp3oEdWtEUr1qGEkJoVSvGkpifChJCaHExwS7bEpIo4H7xrTmnucXeOTcRvavp7ptaLCR0GAjNZPKfr5nZBVw8mw2x05lcuh4OoePZ3D4xIU/M0jLyPeqPq5bI5JF319LfEyw23/LSc+UiClBEARvE1M6nWfDQYf2rsu66WMYcdcMj3lbykNYiJFGdaJpUDuKujUi/xZPdWpEuKT8jjOMGdmEp99eRnpmgVt/p0ZiGK2bJLhl3+GhyrRl47olz1KlZeRz8Fg6ew6lsPtACnsOpbL7QAoHjqZ5vDxR3RqRLP5hdIULGKtFPFOCIAg+Lqa0Ws+nLmhQO4q1027ijmfmMXn27ko1UmiwkUZ1o2laP4ZGdaJp1iCWRnWiqV7Ve5KOhliMjBvVnLe/Wu/W3xnZv77bgqzLIjLcTNtmCbRt9m8xV2y1cfBoOrsOpLB1zzm27DrHlt1nOXoy0y3H0a55FWZPvIq4aIvHzl08U4IgCN6LqkAPbSU9PcNCjPz83lCuHFCfu5+bT3Jantt/MyrCTJumCbRuEk+bpgm0aRpP7WoRPtGZ99zUmvcmbcBqdV+82ZX963vfg1enpUHtKBrUjvrXFGRaRj6bd51ly25FYK3bdpq9h1Ir9FsDu9di6kfDnUmi6RKc9Ez5fGkBEVOCIPgSqjxTmkrOqTlqUAO6t0vi/pcW8cufe1y2X0uQgXbNEujUOpE2TRXxVCvJd1/qayWFM7R3XX5bsN8t+4+PCaZz60SfsUdkuJnenWrQu9M/STRT0vNYs/kUa7acYvXmU6zbepqsHHWxeXdc15IPn++LQe/5LEjimRIEQfBxMVUZ03wlPcinfDCM+8a05qH/LWH9ttPl2keXNol0bZtE59aJtG4SXykPRncy4ZY2bhNTw/rU9fls9dERQQzpVYchveoAYLXa2bk/mb/WHmPRqqMsW3/8P3FnZpOej1/ox9hRzSrtuI0ipgRBELwWVXMV3iCmLtC1bRJrp93Ej7N28tKHq9h/JK3UtrFRFvp2qUHfzjXp1i6JejUj/b5De3aoTvOGsWzbc97l+75yQH2/s5dOp6F5w1iaN4zl/pvbYLXa2bjjDItXH2XJmmMcO53F928N+U+clsfFhXOLQERMCYIgeBBVGRW1Gu/yRmg0cOPwJlw/tDF//HWQVz5ezbqtpzGb9HRtm0jfzjXp26UGrRrHe5UQ9BT339yG256c69J9hoea6N2put/bTqfT0L5FFdq3qMITd3b0quNyAouv94OIKUEQfIliteLFG9FqNQztXZehveuybc956tWMJMgst+HrhzbmiTeWujRgf0ivOm7N8C2UIaaceykw+/r5Sm0+QRB8iSJ/OZHmDWNFSDkIMusZP7qFS/fpjav4AkpMOTfNJ2JKEATBg6ia5vN0QkSh4txzU2uXBdcHmfUM7FFLjFqZYko8U4IgCF6Lqmm+QChW629UjQtxWcD4wO61CA4yiFErU0zpREwJgiB4K6qm+QoKi8VSPsiEW9q6ZD8j+tUTY1a6mHJKXvh8ALqIKUEQfAnxTPkxnVpVpV3zKhXah0GvZWjvumLMyhZTzk3z+XzwoIgpQRBETAlew/03t67Q9r06Vicy3CyGrGQ0msBK8SFiShAEvxNThUUipnyVa4c0IjE+pNzbj5RVfD6pvURMCYIgeA5VhY7zCyRmylcx6LWMH92yfA80rYbhfWWKzyvUkXPySMSUIAiCBwlS06iwUFIj+DJ33dASs8n5MJpOrapSJS5EDOiD2kvElCAIgufIVNMoTzxTPk1slIVrBjdwejtZxSdiSsSUIAhC2WSpUlzZBWIpH+eBW51Pk+CPhY1FTImYEgRBqBQxlZElYsrXadU4nq5tk1S3b9EojtrVIsRwXoKT2exFTAmCIIiYEtzB/Te3Ud12pEzxeRXVqoQFlJiSKpuCv6MHqgNJQA2UsgXpFz2YDwNHAHn6+gbqYqbyiykqtrms1ptQOYzsX49qVUI5frpsDS1TfF5243Xu2vP5XCYipgR/pT9wJ9APKGt5jx04BewB1gPrHJ+TYkavI1u16souIDoiSCzmyw8onZZ7bmzNE28uvWy7ujUiadYgVgzmu/j8y6y8tgn+Rl1gETAPGKlCSIHiYk4E+gBPANOBE8Bx4EvgaiBCTOsVZKltKFN9/sH40S3KLFp81UDxSnkbTuaZyvd54S9dLvgRw4EfVAooNSQB4xyfYmAVMAuY4hBbgufJVNtQxNTlsVrt7D6YwqadZ9i08yxbdp0jJT2P9MwC0jMLyM4tJDjIQFioiYa1o2jRKI5+XWrSt0sNjAadx44zMtzM9cMaM3HK1lLbSNZzLxRTzoVBFfj++QqCf3A9MAkweOC3bMBqYCrwM3BOzO8xBgBz1TRc/MNoenWsLha7iGKrjSWrj/Hr3L3MmL+f86m5Tu8jIszEHde15KGx7YiLtnjkuHfsS6b5kK+x2//7XWJ8CMdX3I1GnmZeRVpGPlFtPlDbfBfQxJfPV6b5BH/gJuB7DwmpC9dNF+A9lKnAqUAveTnxCClqG6ZnimfqAhlZBfzfZ2tI6vIp/W/5hS8mby2XkLpg19c/X0udXl/wyY+bSxQ4rqZp/Rh6d6pR4ncj+tUXIeWFOFnoWGKmBKGSaQ58Volj2YgSU7UYJYD9cSBSusVtnFfb8FxKTsAbKzu3kGfeWU6N7p/x1FvLOJuc49J93/P8AobdMY2cvCK3n0tpaRKuHCApEfwAiZkS/BILUBMlKDv6kk8Q/wRjh/CPNyjPcUHkAIUogcK5KFNgJ4GzKCvmzrjwwgkHpjmO1xuoD7wGPA18DbyFxFZVmpg6m5wb0IaaMX8/E15eqCqtQEWYvfggvW+czLxvriEizOS237miVx3qVI/g4LH0v/8vOiKI7u2ryVXhhVhtTtXH9HnPlIipwEUH1EHx7DQFGjsEVE3A3WuM04DTwMESPkccYkwNz6Os3vM2QoEJwF0ocVyvA4dkyLmEXMenTAHtSi+ML5GeWcC4J+cwfd4+j/3muq2nufre35jz9Si35fbSajXce1NrHnx18d//N6xvXfQ6mWDxRgoKnUodJZ4pwWeoAnQGugKdHCKqspLwRDo+jUt6oQGOAQeAHSiBiTuA3UDGRe3qAfd4uc2NwHhgLEqg+qvAXhmKFeacQ/RfljMBKKY27zrLqHtn/st74wxV40KIijATEWYmOMhAsdXGkRMZHD6Rgc12+eCoRauO8uhrS3jvmT5uO79br27Gc++tICtHed+SwsZ+I6byREwJ3ooFJW/SEJTElbV95Lh1QC3Hp98l3x1ziKodQHuHWPGV6+wm4DpgIvACsgKwIiSrEVOB5pmaMX8/1z/4O/kFxaq3adYglisH1Kdjy6q0aRpPbFTJDr/zqblM+WMPb325jqMnS89O8eF3m7hyQH26t3PP1Ft4qImbr2zKR99vIsRipH/XmnI1eCnOjEP+qUrhs8gaCP8iChgFjAB6opROEbyPLJSpv3dRpqwE5/gTGFRWo7o1Itm/6PaAMMiXv2zjzmfnYbWWvbQuxGLkzutbMnZUMxrViXbqd3Lzipjw8iK+/GVbqW0a141m2x9j0enc83jZfySNhv2/5OqBDZjywTC5GryULbvP0WroJLXN3wUe8uXzlclm38cCjEZJJnkaZWXbQBFSXk0o8AqwDxgjLzVOoyoI/cz5wPBMffT9JsY/PbdMIWU26Xn67k4cWXYHbz7R02khBWAJMjDxfwN5eFy7UtvsOpDCj7N2uu1869WMZGD3WozsL1N83oyT03wZvn6+IqZ8lzooK8eOo8TjDMV3pr0EhUTgW2ApJcePCRUQU9m5hR5Zsl+Z/DBzJxNeXlRmrqc+nWuw7Y9beeWhbi6pV/jG4z0Z0K1W6d9/sc6t5/3Ibe0Z3LOOXAleLaYCa5pPxJTv0Q+YjeLVeBxlak/wbboBm1BWJ5rEHGWiOt7Mn+Om5i0/zNjH51w2MFyv0/LG4z1Z8O211KvpuvRnWq2GL14dgKWUmnk79yezbP1xt517r47VCQuRd0dvJr/AKc+UiCnBYwwB1gDzHX+XvvMvTCiB6VuA7mKOy3JSbUN351iqLPYfSeO6B36nqLj0XD5REWYWfn8tj97e3i0ZwqtXDeOu61uW+v33M3bKSA1g8vKd8grLNJ/gdgYD61G8UR3EHH5PQ2AJ8AYybVuqRlLb8MiJDL87+Zy8IkbcOZ20jNJT8yTGh7Ds5+vp4eaElg+ObVdqoPnMhQdUBcQL/klahlN5ONN8/XwlNYL30ghlhcMALzmeLMfbQ6bjzwvzJxcynl/AgJIZPQTF2xLOP1nTg6RbVb/kPIqS2uIGlDI1QjnE1OWW8fsqD76ymF0HSi9RWDUuhGWTr6d2tQi3H0tifAgDu9fmjyUH//Pd+dRc1m07TadWVWXEBiDpmU7l4UwXMSW4mkiU6Z678FzhXlDKnmxHSZZ5zPHAOo6SkfwMYHPBb4QAcUA8EOP4ezWgxkWfJMQjc4HWwEaUJcOfizn+5pRjPJbpWT9y0r88U7MWHWDilK2l3zzCzcz9ZpRHhNQFruhVp0QxBbBs3XERUwFKZnahM81FTAkuZQTwCUq2cncLp6Uo8TkXPskeOL9sx+dypVW0KKvc6gENUKa9Gjg+1Qm8qWkLSrqLAcAtKJ7BQKcAZUVffFkN/ckzlZNXxL0vLCj9wtFq+OndoTRrEOvR4+rVsXqp363ceFJGa4CSpt4zZXe8sIuYEipMJEqag/Fu2n8WsBZY6Phscgxgb8TGP16xxZd89yUwLkDHyEigiUNw75ZLhuNqxJQ/xUy98vHqywbUP313JwZ2r+Xx42pQO4rE+BBOns3+z3d7DqXISA1QnJjmS8MPCh1LAHrlMxilXpurhVQy8CnQAyVeqR9K1u2NXiykyiIswMdKfWAl3hNHV9liquxGpzP9Igh676FU3vlqfanf9+pYnefv61Jpx9e9lED3w8czLrviUPBnMaVaH53xh/MVMVV56FG8UbMBV/nlc1CSQA5CmSq8G1iGa+KdvIEIGTZEAn8Aj4iYKpuiYhunzmX7/Mk++OpiCotKztsTFWHmp3eHuq18ixoa1Co53V2x1cahchZdFgJGTJ32lwe64HmSgMmAq14ljwMfoRTRTfNju4XJ0AGUYtBvAk2B24DiALTBCbUNj5zIoFqVUJ890bVbTzNnaelhhv97uDsJscGVeow1k8JL/W7fkVQa1Jbcwq7m5NlsDhxN48DRNI6ezCQ5LY+zyTkkp+aRnJb7d9LMzOwCrDY7J1feTZDZc498J6b5zoqYEspDK5Q6ekku2Ncm4H2UcjJFAWC7bBk+/+JmIBq4BsgLsHM/orbhwWPpdGuX5LMn+tKHK0v9rm2zBG6/tkWlH2ONxNLfcw4dy5ArtYIcOp7Oms2nWLftNOu2nmbrnvPkOlkqyW737HT32RTVNdz9YppPxJRnuRplGs5Swf3sAZ4DpgaY/SSa9b9cAcwBhhFYK/0OqG2493Cqz57ktj3n+fOvkr1SGg189EI/tNrKr5NdI7F0z1RmdoFcpU6Sl1/MX2uP8edfh5iz9BAHfWyq1Gq1cy5FdSmnUyKmBGd4DiV/VEXufKdQ6rd9A1gD0IbJMoxKpAfKKs3BAWSj/SgLKcq8nnYf8F0NvmPfecJDTWRk/VeQDO5Zhw4tqnjFccZFl/5+mJVTKFeoSlZtOsmkaTuY8sduZ/M0eRXnU3OdWfghnilBFRrgPeD+CuwjHyVY/S3+yTweiOyT4VQq7VByh/XFTwI6yyDbcRMuU03sPui7Yur6YY0Z2b8+vy3Yz7fTd7Bw1ZG/H1LP3tvZa47TZNSJmConhUVWvpuxk7e/Ws+eg/7hfD/jXIFxCUAXykSHkrm6IrmRtqLExmwVc7JcTHBZGqMUwu4BpAbA+R5QI6YOHUunoNB62Qe+NxNk1nPd0EZcN7QRJ89m8/2MHezYn+w1XikAvU6LTqcp0RshYqqUN+SCYj77aQtvf7WeE2f8qyD3aedW0B4WMSWUZdvvgdHl3L4AeBFl1VaxmPNvYZmOpEi4HE1RFjj0B3L9/Fz3A93KalRstXHwWDqN60b7/AknxofwxJ0dvfLYTEZ9iUHRWdkipi5l9uKDPPDKIrfEQkVFmIkINRNk1mM2KY/4yHATOp3nMiGdOa/aM1WMEytzRUwFHlqUuKbyCqnNwBhgh5jyX1iB34GbxBSXpQvK4oQR+Pcqz/1qG+4+kOIXYsqbMRl1JYopbwiQ9xZOnMnirufmM3vxwXLvIyzESNP6sTSsE0WDWlE0qB1F9aphxEUHExsVhNFQ+R7Y0+rF1HF/uUeJmHIPHwI3lnPbH4DbUeKkhP/yvsO2coe+PIOBSQ7h6a8pqNWLqYOyENTd2GwlBxxf8I4EOr8t2M9tT84lJd25LCbhoSb6d61Jt3bV6No2keYN4io1QasazqqPmTrsL/0ro9z1/B9K5nFnsQKPA2+LCS/LRhSv31gxRZlcD5wEHgt0MbX3UKqMBjdit0N2bmEpYkoX0LYpKrbxwMuL+OTHzU4JqFGDGnDlgPr06VzDK7xNzuBETcxDIqaEkrgfeKIc26UB1wHzxISq7dwWaC6mKJNHgHXAr354bgdQvG5lBoMsXHWE9dtO0655FRkRbiAvv6jUpfCB7JnKzi3kmvtmXTaD/cXUrxXF3Te0Ytw1zQixGH32vA+rF1NH/KWvpTaf6xgIvFOecQd0ECHlFDkohZu3iSnKRAN8DTT0w3PLReU0wbmUXNpf+T39bp7Chu1nZFS4mMut2PPVVZQV5fS5bLpd+5MqIVW/VhRTPxrOnvm3MeGWNj4tpEApcK0Sv/FMiZhyDY1QSro4e9fYh7KMfb+Y0GnOAR2BD8QUZRIK/IZ/1jbcrqbRhXiehSuP0m7kd/S7eQqbdp6VkeEisnNLjyG2mA0BZ4/zqbn0uWkKW3afu2y7EIuRD57ry445Y7l6YAM0Gv8499KmfEtxJoiYEgClNtofOL9cfxfQE2U1g1A+8oAJKAHp6WKOy9IA+BL/C9zfXp6NFq48StsR3zJ0/DQ27xJRVVHSMkpfLxMfExxQtkjPLGDALVPLXPTQvV01tv5xC/eNaY1B7z+PYie8UgAH/eW8RUxV3H7fA7Wc3G4r0IvAyFTtCX4EaqNkic8Vc5T8vEPJGO5v3qnt5d3Qblfy/bQd8R1Dx09jaxleBKF0Tp4tPelkQmzgiKmiYhvD7ri8QNdo4PE7OrDkx9HUrhbhdzZwIl4qGTgvYkoAeAoYVA4h1RtlmkpwrVh4EqiLkj4hXUyCHaXEzI1AVZTA/Qw/O8ftFd2BzWZn9uKDtB7+LdfcN1NW/pWDy2XwDiQx9dCri1m+vvQclCajjh/evoLXHu3ht/m3Dh1Xfevd6U/nLWKq/PRGKVzs1D0HGEJglPqoLE4DDzjEwxhgmUNUBAo2lNV7z6AEnfdE8dz5a96yA646N5vNztQ5e2k88CuuuW8m+4+kydWkkuOnSxdTVQJETP00axcffb+p1O+NBh2/fDic64c19ms7ODHNt1vElBDreEA5E3Ce6RBSJ8V8HiEPZQq2B1APeBBYCBT66bn+DowHElFWh75KYBSGLnb1TfmCqGoy8CvGPPIHB46KqCrzLfEynqlAiJk6cDSN258ufUG2Qa9l+icjGNanrt/bwokEubtETAmfAglO3vCvQZbyVxYHgfdQ0inEAFcBHwEb8M1SBmeA6cDDQGeUxQ/DgImO7wKN7e7YaVGxje9/20njAYqocmL6IvDEVCmeqRCLkfBQk1+fu81m57Yn55ZYSucCH73QjyG96gTEWNgToGJKknY6z/WOh7Ez3I3kkfIWshxCZLrj30FAGxRvTiuUVW8NUNIJVDaFKGkzdl302YAf5WbxZjF1qaia8scebrmqKc/d14XE+BCx+kWU5r2rVzPS78/9s5+3sHRd6YuyJ9zShvGjWwTEODibnENymupyOSKmApiqDo+GM7zr8BgI3kkesMLxuZhElJijuo5+r4rijUx0/BkDGCr4u1koCxFOoMR6HQdOoUwFH0DxqBVJF5XJBo8o2yIrX0zeyqRpO7jlqqY8f38XqsaJqMrIKuDk2ewSv2tQO8qvz/1cSi5PvLG01O9bN4nnjcd7BsxY2HVAtVcqDT9bzS5iyjk+Bpx51VqNUm9P8D1OOj6LLtPGAIQA4YAFxctV6rMYyEZZZZiJUotRcA0bUVlWxpWi6tvpO7j5yqa8cH8XqgSwqLrcA9TfxdSLH6wsNfu7JcjAT+8O9bm6ehXBiXip3f527iKm1DMAGOFE+1SUKUHxLPgvRY43LIlQrlyyHDfnJp780YJCRVT9MHMXt13TnCfv7BhQaQD+EVPJpYupWv4rpvYdTmXilK2lfv/sPZ38Xkz+ZyzsVy2mtvjbuUsAujqCgE+caG8HbsKPijgKgpezrrJ+ODeviA++3Ujd3l8w4eVFnE3OCSjD776MZ6p+Lf+NmXr23RUUFdtK/K5p/Rgevq29COvS2ShiKjB5EiXDtlomAn+K2QTBY6yv7API+VtUTeSJN5detsSKfz1ASxZTWq3Gbz0zB4+lM23e3lK/f/up3n5VIkYtO/erFlObREwFHokoS9DVcgR4RMwmCIElpi6QnVvI65+vpUb3z3jizaWkZxb4teE37ig5G0f9WlGEWIx+ec7vfLUeq7XkXMD9u9akf9eaAXcBbth+hnMpqqp55eNn2c9BYqbU8CJKcLEa7MBYlBgOQRA8x1aUFZJBnv7hiDATEWFmIsPMjr+biAw3ExFqJjjIwB9LDnLNkIZ+6ak4ciKj1Ado6ybxfjnQUtLzmDR9R6nfv/Rgt4C56Ox2WLjyCJ/8uJlZiw6o3WwbfhhLLGLq8jQAbnai/SRgiZhNEDxOkUNQdSzPxmaTnshwM5EOIaT83XzJ303/+f/YKEtATudcYN220le3t22W4Jfn/O30HaUm6OzdqQYdWlTx+37PzC5k8uzdfPDtRmem9i6w0R9tImLq8rzmhI3SkDQIglCpz3a1YmrMyCa8/lhPIsJMmE1yGywv67eVnnC/TVP/9Ex9N6P0GarH7+jg1/29bc95PvlxMz/8tpOcvHI7lzb5o23kLlI6LYDhTrR/GjgvZhOESmM5cL+ahrsPpgZkGgOXq9etJXumtFoNLRv5n5jatPMsW3efK/mB0SiOfl1q+t05FxZZmbnwAF9M3sKiVUexV7xsvHimAownAY3KtluBL8RkglDpYsqu5rrdvPMsGVkFflE3bv+RNLaU8oD3hLgoidgoS6lCy5f5ZlrplYt6dqjGolVHPXo8rZrEER3hnjDBM+dz+Hb6Dj7+YRPHT7ssDNgvg89xQiwEGrWBvU6IzcHAHDGbIFQ6u1HKAJXJb5+NZHjfej5/wu99s4EHX10sPR+AzJ90Df1cvHJw444zvD9pI5Nn7y41j1YFWAb08Me+EM9UyTzhhG2WiZASBK9hqVoxtXDlUb8QU0LgotW6zh+SmV3I/z5dzbS5+zhyIoNiq80dh7zSX/tCxNR/iUbJXq6WJ8VkguA1LAfuUNPQ01MyguBqdDrXiamwECOvPdqD1x7tQVGxjeOnM9m5P5ld+1M4dDydnfuT2b73PJnZhRX5mRUipgKHWwCzyrYLgVViMkHwGpaqbbj7YAonzmSRlBAqVhN8Eld6pi7GoNdSu1oEtatFMLR33X99l5aRr4isA4rI2rHvPH/+dRh72ZHpNmCNiKnAQAOMd6L9G2IyQfAqTgCHUFn+adGqo9x8ZVOxmuCT6LSez3EWGW6ma9skurZNApQVnX8sOaRm0x1Aqt8KWxmO/6I3UF9l2y0onilBECqfOGAU8D4QrnYjmeoTfPoBrq38NWQrNp5Q3dSf+0I8U//mVifavo6yDFsQBM8TBHQHBjg+jcuzk4WOvDkaH17XPKRXHRIvmqrMyCrAZnPvremnWbtYuu54id/dcV1Lvysl88w7yzmf+t+yOcFBBr55YzAAeflF5BdYPXpcdapHVLptVm06qbqpP9+QJDXCP1iAs0CIirbngWpAgZhNEDxGbaCv4zNI5bVaJjvmjKVJvRixrhM0GvAVew6m/Of/tVoNJ1fe7VcJUdMy8olp92GJArVP5xos/O7agB4LVTp9zJnzOWqa1gKO+KsdxDP1D1c4cXP+SoSUILgdM9ALGOq4Pqu540fmrzgiYsoJ9h9JK1FIgVKPz98yyy/fcKJUT1+XNokBPRYOHE1TK6QO+bOQAomZupjrVLazO8SUIAiuJwYYA/yC4in+E7jLXUIKYNbCA2J1J5gxf1/pb6S96vjd+a7efKrU7zq3Dmwx5UTM4QJ/t4V4phRCgIEq2/4FyN1XEFxHXeAqYATQ3tMvecs3HCclPc9tZTn8jZmXEZ9X9PY/MXX4eHqp33VsWTWgx8KClUdETDkQz5RCX9TnlvpZzCUIFaY2MAFlhc8+4DWgY2Xck6xWO29NXO+KAq5+z9nkHNZsKdlTU61KqF8WNz5yIqPE/48MN/tFbceKXDdL1hxT1RRY4u/2EM+UwiCV7YqA6WIuQSgXzYFrULxQDb3pwF77fA2/LdzPLVc2ZfzoFkSGm6W3SmDWogOlxg8N6VXHp1dFlkZpRX6r+FlsmLNs3HGG1PR8NU3X48f5pS4gninnxNQCIEXMJQiqqY5S63I7sBV42tuE1AX2HEzhiTeXUqP7Z9zxzDy27j4nvXcJvy3YX+p3w/rU9ctzzskrKvH/Az1zvkzxiZi6lKaoD26dJeYShDKJRKkksBQ4DPyf4zrzCbJyCvli8lZaDp1E2xHf8cXkreTlFwd8p2ZmF7J4dcnTOhFhJnp3quGX5221luyJi48JbM/UghWqxVRAJLcWMQU9nWg7V8wlCCViQklh8B1KSZfPUZJqevQeo9NB41oGxg4N4fMnoqmTWLFIho07znDHM/Oo2vljJry8iEOXCUb2d6bO2UN+Qcmi8qoBDTAZdX553kXFVrm6LyEnr6jU2LlL302A1YFgE4mZgs4q2+0EpPaEIPz7ZawncCNwJU6UcXEl1RP0dGlmonNzE+0amwgy/RO406ddEAdPZlX4N9IzC/jg24189P0meneqzvjRLRnZvx56XeC8j343fWep342+opHfnrdBr6Og8L+CqqT/CxQWrz6q9vwXocQai5gKALqqbCdeKUFQaOkQUKMBjyfaCTZr6NBEEU+dmplJiivdI9K7rZkvfsty2W/bbHYWrjzKwpVHqRoXwk0jm3DvTa39Pn7myIkMlm8ouXxMQmwwvTpW99tzj4u2kJ1b+J//LywKXDHlRG62gAmNCXQxVRP18VJL5RkqBDChKIlt7wBae/rHI8O0dGluon/7IDo1M2E0qFs21qimgcRYHSfPu/7Bd+pcNq9/vpZ3v97A8L51GT+6JX061/DLFW2Tpu8oNXXENYMbotP5b2WyuGhLidO7gRpHZ7PZmb3koKqmKEl3RUwFAG1VtrMTIPO+gnAJ7VCCyUfjolp4aqlVVU+vNmZ6tzXTpLYRbTmf1z1bm/lxXo7bjrOwyMrUOXuZOmcvXdokMumNwdStEek3A8Buh+9nlD7Fd93QRn59AcRFW0r8/8Ol5J/yd9ZuPa22hMwqlCoGIqYCgBYq2+0GkuW5KgQIYQ7x5FEvlFYDDWsa6N7KzIAOQdROdM3tqXdb94kpnU5Dy0bx9O1Sg76da9KjQzUMev+Ko1q+4Xipgfd1qkfQoYV/ZwGvV7NkYXzoWDoFhVa/DbwvjVmLZIpPxNR/aaaynXilhECgA4oX6lrAI+u+jXoN7ZsY6dUmiJ5tzMSEu16ItG5gIjJMS1qmzSX7a1A7in5datKva016daxOaLDRrwfF5QLPrx/W2C+nNf/1xt0orsT/L7baOHA0LeCKZM9auF/ElIipcouprfKcFfyUcJRg8ttR76mtEDoddG5mZlAnRUAFm937NNZqoXtLMzOX5apqr9Hwr/ig6IggeneqTt8uNenftSY1k8IDZnBk5xYydc6eUvpRw7hRzf3eBi0axpX63a4DKQElptZvO82uA6ryVu8H9oqYCgxCgFoq226TZ67gZ7QH7kIp72Jx949pNNCirpFBnYMY0CGIyDDPToX17xCkWkzZ7dCycRzXDG5Ivy41ad0kHq1WE5CDZNK0HWRmF5b43cDutamRGOb3NmhYJwqzSV9ijq3Fq48yalADvz13ux027zrL7MUH+X3xATbuOKN205mBdq0EspiqBai9Q+6QZ6/gB2iBIcD9KMW93U7tqnr6dwxiSOcgqidU3u2mU1MTUWFaUlVO9bVvXoUn7+wY0IPFboePvt9U6vd3XtcyIOxgNOjo1i6pxIzff6hb1eZT5BcUs2LDSX5ffIAZ8/eVWpuwDGaImAosMaWGU0g9PsG3iQRuA+5FqZXnVuKjdAzspAioBjUMXmEAnU7xTk1eoC4QfeqcvXz4fF+MBl3ADpo/lhxk76GS69NWqxLKoB61A8YWg3rULlFMHT+dxa4DKTSuG+3T53c+NZc5Sw8xe/FB5i47TFZOYUV2d5wAjDMWMVU2BxEE36QOihdqHG4OKA+1aOnRWskD1bWFGZ0XapBBndWLqbSMfBauPMrgnrUDdvC8/+2GUr+77ZoWfp1b6lKG9KzNQ68uLlV0+qKY2rTz39N3peURKwc/o6QTCigCuTZfTZXtpISM4Gv0BWYD+xxiyi1CSqOB9o1NvH5PJIs/jufVOyPp0do7hRQoMVuXy5Z+KT/M3BmwA2jHvmQWrSr51qfXaRl3TfOAskf9WlE0qB1V4neTpm33yXOKiQzCZNSRlVPoSiEFMCUQr5lAFlNqy2AckWez4AOYUTxQ24AFKLFRbrm+Y8K1jB0awqy34pj4VDQDOwWpzkhemWg0MKiT+lj7GfP3k5qeH5CD6YNvN5b6gB3ery6J8SEBZ5PSVi7uOpDCX2uP+dz5VK8axuN3dGDP/NvYMWcsj9/RgYTYCr937QU2iZgKLNT6ZcUzJXgzCcBLwDHgS9Sn+3DuRqGBLs1NvDMhinkfxDPh2jCqx/telMDgLkGq2+YXFPPjrF0BN6CS0/Iu65V75Lb2AXmh3XJV01ITdH720xafPrcm9WJ47dEenFhxN3O+HsWNw5sQYilX/rTJgXojDuSYKbVi6rw8rwUvpA7wODAGMLnrR+IidYzoYWFkDwtVY30/GLt2VT0NahjYe1RdIfsvf9nKfWNaB9TAevfr9aXWnevRvhodW1YNyAsuNsrCyP71mTx793++mz5vH6fPZVMlzrc9djqdhoHdazGwey3yC4pZsPII38/Yya9z96qdCvwlUG/IgeyZUptpTcrICF71Egl8B+xBSbTpFiHVoIaBN++LZO578dxzdahfCKkLDO2q3ju1bc95Nmw/EzCD61xKLh98W/oszWPjOwT0xXf/zW1K/P+iYhtvTFznV+dqNukZ2rsuD45tp1ZIbQV2BerYCGQxpbYSaao8vwUvoB1K7pbtwE242atcI0FP/w5BXhtMXiEx1c2CUa8+xuvLXwInZ+/rn68lO7fkZfHNG8YGVDqEkujUqirD+tQt8btPftjsl8WPv/lVdYD9z4E8NgJVTGkAta+nIqaEyqQHMA9YB4xAfaLZCrFkYz7p2Ta/NGhEiJZebc2q2/80a1epAsOfOH0um89+3lLq94/d3sHv6/Cp4dWHu5eYFqKwyMrLH63yq3PNyy8utZzQJRQD34uYCjyMTjyUchEEz9MVWAT8BfT39I8XFdtZuC7Pb417ZU/1q/qycgr5dc4+vx9wr3y8mty8kmPJqlUJ5ZohDeWqBJrWj+GGYY1L/O67GTvU1q7zCabO2UN6ZoGapnNRElwHLIH6nhEKZKpsawIKEQTPvNwMAZ5FmdarVFrUM/Ld8/5ZxNVuh6GPnOP42WJ1yrZtEssnX++3A+/oyUwa9JtIQaFVrsIK0r9rTeZNusYvzqXXDZPVpn24Cpge6DfvQERt0K4dKJLbg+BmDMDNwE5gljcIKYCt+ws5fKrYLw2u0cCIHuq9Uys2nGD3Qf+tKvXSRytFSLmI+SuO8ONM34/DPnQ8naXrVAmp8yhJggP+TTgQURu8W0gApsUXPHr93YCyAmYS4HXzKH+s9N+pvuHdnAuw//A7/8xFuOtACt9N3ylXowt54JVFJKf59rUzadoOtav4fkRmbwJWTBWJfYRKRANciZKt/Aegrrce6Kzludj8Mw6d2Egd3VqoD0T/bvoO0jL8LyP6g68sothqk6vShSSn5fH4G3/57gOy2ObMKtavpcdFTJWFgcCNKxPcQ19gLTANJWeUV3M21cqGPQV+2xmj+6kvn5GTV8TEKVv96vz3HU7lr7XH5ap0A0tWHyMz2zcdNr/O2cvpc9lqmq5HSdciYipAz9uZEW6UYSK4gM7AYpS6ee186cB/X+6/U30dm5qoXVV9yq6Pf9jsV16c+rWi2Dl3LH0615Ar1EVoNDB+dAu2/nErYSG++fj45MfNaptOlB539HsAi0i10ZZhQJYMFaGcNAeeAUb56gkEmTQs/jgBi9k/bxe/LMzh1Unqky3+8uFwRg1q4Fc2sNvhq6nbeOz1v5yaygwy6+ncOtEv80+dS8ll2x7nqok1rhvNl/83iE6tfLfkztbd52g5dJKapulAEpAjt/nArc1nQ8kfpWY5T4iIKaEcNANeBob5+ktLXoGdRRvyGNrV4pcdNay7hY9+zSJDZZLS9ydt8DsxpdHAbdc0Z2jvOjz62l98/5u6gPS8/GIKi6x8/soAGtWJ9ht7TJ2zl7ufm6/+QarT8vBt7XhxQtdSiyH7Ch99r3qhxZcipP5BF8DnfjeK16ksvkGKHQvqqQm8DnwONMJPvL/ZuXaGdfNPMaXXaUjLsrF1v7rZ/+OnsxjcozaJCaF+Z4sQi5GR/evTs0M1Vm8+RUp62VO8x05l8sXkreTkFdGtXTX0Ot+NHjl9Lpsxj/zByx+tIjdfXVqQFo3i+P2LKxkzsqlPnztAemYBYx+fQ1FxmS8WduBWpELI3wTyajW1gyBKhomggniHgNoPjPe3F5X1uws4dd5/8xCN7huM1om74QffbfTrwdyzQ3W2/H4Lz9/fBaOh7KFcVGzj9c/X0mzw1yxefdQnz3nqnL00Hfw1vy3Yr6p9kFnPa4/2YONvN9OmaYJf9PtXU7eRk6dqfdYcx71OEDFFmogpwQUEAU9dJKL8curcboc/VvlvZaWqsTp6tlafJmHqn3s5pW61k+8ObLOeF+7vwobfxtCxpboYoP1H0ug7ZgpjHvlDlVfLGzhyIoP+t/zCNffNJDVdXbxY17ZJbJ51C4/f0aHEOn2+SFGxjfcnbVDb/CO59f+bQJ7mG466JImLgE0yVIRL0AA3Ar8BI1GfVb9MWtYz8vKdEXRvaWbdrkIKCr0jb+yZVBvX9Qv222K3sRE6Zi5TJxitNjtajYb+XWv6/UCPjwlm3KjmVI0PYdm646oypW/bc57vZuwkLtpCi0ZxXvuCMHHKVkbeNUN1dvuwECOvP9aTT1/qT2yUf017/zRrF99O36Gm6QHgASShtYgpBz1Qt0R9C0qxWUG4QEdgCjABCHfVTutVM/DkzeE8ckM4ibF66iQZGNo1iKNnrBw9XfllXTKybXRpYSI+yj9vG1VjdKzZXsCZVHXTmVt3n2P8dS2xBBn8/81BA22aJnDLlU1Vr3LLzi3itwX7Wb/tNF1aJxIRZvaa8zl0PJ2r7/mND7/bRGGRuv4e3LM2f341iv7daqLxszcKux1ueuQPzqWoepl4GVgtjwERUxdohpJAsSwOAzNlqAhAPeAz4G2guqt2WidJz1M3h/PEmHDqJv37wWwxaxnUKYg6iXrW7iykoKhyXwb1Og3dW5n9toOjwrTMWa1ueqqo2IZBrw2oHE2hwUqAetumCazceJKMrLITuu4/ksbEKdvQ67R0bFUVrbbyhIjNZmfilG2MuHMG+46oi/SIDDfz/rN9eOep3oSHmvyyX+csPcS736ia4stAqSNagPDvF44APvfrUWoKlcVioI8MlYAmEngcxbXtsrtprap6xg0LYUhni6rg59PJVl74Mp01OyrvPhZi0bL4o3hMRv+8ddjtMOqp8+w/rq5IQliIkSNL7yQy3BxwF0VuXhEvfbSKt75ch9WqTuS3aBTHF68MoH2LKh4/3p37kxn7xBzWbT2teptRgxrw8Yv9/G5K71J63TCZv9aqKmr8P+BpeSSImLqYrsByFe0OAXVkqAQkRuBelKSbka7aaVKcjjuvDFUtoi592P+yKIf3JmeSm185Xqo374ukf4cgr+mkJz9Jo9iFCw1PJ1vZflB9kYQm9WJoXNczOZa0Wg2T3x/mVRfJlt3nGP/0PNZvO636HG67pjlvPdmL0GD3Zwgvttp4+8v1PP/+ClXxXgBV4kL4+IV+jOxfr1Jte+ez80l1cyB/akY+i1apWoFpA/4A3Fmg8lZ8NHdVIIupasAxlQMoFCXJpxA4XIWSL8plQjohWsftw0MZ0SMIfQVXAJ04Z+X5iWls2O352l/dWpr56BHvWeTa/tbTlT796Sl0Og3Fex/1uuMqttr4+PvNPPvucrJy1I3JqnEhfPh8X64cUN9tx7Vtz3nGPjGHjTvOqHsgauD2a1vw5hO9vKIUTFKXTzh5NpsAIhIls7qIKR9CC2QCaiqdtgM2IAQCjVGW/fZy1Q7DgrXcPjyE0f2CMRpcd8nZ7TBtSS5v/5ThUS+VTgfzP0ggJtw7MquImPIeTp7N5v6XFjJ93j7V21zRuw6fvtSfJBcmQS0qtvHOV+t57r0VqgPMa1eLYOL/BtC7k/fEwImY8i1BEajYALVXfFPRGH5PMPACsNlVQkqv03B1bwsz34xjzOAQlwqpC2/RV/e28Ov/xdG2kefeoq1WmLNKHLXCf0mMD2HaxyOY9cWVqsXR7MUHaTroa96ftBGbreKieM2WU7S84hueeHOpKiGl12m5/+Y2bPvzVq8SUoKIKV9it4gpARgK7AKeR4mTcgkTrg3j2bERRIW59zJLjNXx5VMxPDs2giCTZ5zNvy0VMSVc5oLqXZcdc8Zy/81tVK3ey8gq4IFXFtFt9E/s3J9crt/Myy/miTeX0vXaH9l1QF3eqGYNYlk19Qbef7YPwQGQ4kIQMSViSnAH9YF5wCxcmOrgAt/PySavwDPTTxe8VFP/F0vrBu73Uh04UczeY0UygoRSCQ818f6zfVg++Xqa1ItRtc2qTSdpNXQSE15epLasCQArN56k1bBJvP75WlUrCw16LY/f0YENv42hXfMq0lmCiKkKskNlu2YyVPyKUOAtR//3d9ePnEuz8v0cz8Y7VIvX89UzMTx2UzhGvXu9VL8vz5ORJJRJ59aJbP79Ft57Rp33p6jYxgffbqTFkG9YsOLIZdvm5hXxxJtL6X7dT+w9pK7caqdWVdky+1Zee7SHqrqDgqDqhTbAz1/tij6AWCBZhozPc51DSFX1xI8FmTT8/lYcsZGev2kfPFHMs5+nsfOwezxI0eFaFnyQgK6Sn0f3vpVKUbF7PIB2O2zdX0i+ypI+Op2GLq0TMRrdYxStRsO8Sdf47MV36Hg6dz07n/lliKSLKS3X07L1xxn3xFwOHFWXfNMSZOC5ezvzyG3tfaae3nUP/E5ymuun1LfuPsf5VFUvQ6l4tpzaSMAnI+4DXUwBnAbUlPwejjIdJPgm9YEPcaMnqtSB093CS+MjKuWkrVb49s9sPp2WRaEbBMdHj0TRraV/J6z8fUUuz3yWrrr9XTe04pMX+8kVdxmmztnLPc8v4HyqOqEQGW7mtUd7cPu1LcjMLuCx1/9i4pSt2FUO6QHdavH5KwOokRgW8LZft/U0Ha/+Xq3tegDLZMSqeJESE9DL8aAtizMo8TWCbxEK/B/wrcp+djn7jxXRraWZuErwTmm10KqBkd5tg9hxsJDz6TaX7r/Yilcl8HQH9ZIMLFibR1qWOttt2XWOUYMb+H3W7IrQpF4Mt17dzFHn71yZ7fMLipm9+CBL1x3npQ9X8dfa46p+JyrCzKcv9eetJ3sREWYSwwOjH/idY6cy1TRdALwiFhMx5YzHoqeKdkbgCzGXTzEE+BMYWJlj3Y4y5Taih4XKqo8aFaZlZI9gzCYNm/YWYnORpjp21so1fYMxG/3Xya3RKPZbsE5d4meb3c7Z5FyuGdxQrsDLYAkyMKJfPXp1qs7aLadJTit72unIyQzVSUGv6F2HP74cRbd2SWJsBzMX7ueNL9apbX4r6sNgREyJCTADN6poFw98gHtT6QuuIR74FCWDebg3HNCZVCv1qhuonaivtGO44KXq2drM9oNFJLvAS2WzQVKsjia1jX49oGonGlizo4AzqeoSQO46kEL/rjWpVkWmlcqiRmI4469rSXCQgeUbTqiu81caCbHBfPPGYF55sJtXZDH3FqxWO6Pum6l2anUeSh0+QcSU+ucc8Bhlr2zUAitRn+hTqBxGodSP6uRtB7bzUCGj+gRXevBrdLiOkT0sBJm0bNxTSEXzJGbk2BnZ07+ntDQaqFlFz2/L1AcDHziSzq1Xy0JgVQ8irYaubZO4dkgjdu5P4fCJjPJd/IMa8OdXV9O2aYIY9RK+mrqNr6duV9PUDtwEnBCriZhyhkKUpI2JKtqeQplHFryPWsAU4AnAK5/sWbl2goO0tKpf+W/LWq2GVg2MdGluYsv+QtXxQCVxNtXK4M5BRIT4d6aVKjE6Dhwv4tCpYlXtj57KpG3TBOrXipKrU63QjwhizMimZOUUsnrzKdXb1UgM49ePRvD4HR2wmCX55qXk5Rdz9b0zycxWNUU6DXhXrObkPVVMAKhfrdBTTOWVY3g8sA0XrNTT6zRujWua+FsWyRk2rzFe0zpGJr8Sy9ihIWgrcDcIlJxTD4wOw+BE/q5HXluiujacoBRMfuOLtXz8g3Or8c+n5rFi4wmxdSm8OXEdJ85kqWlaBDwtFnMe8UwpmFDyD5VFPPAxINkKvYMWKOkq7qCCZWC0Ghjew8LHj0bTv0MQJ85ZOXne9TfmomLIzbfRo5X3pBPQ6zR0bGqiczMTW/YVkl4OL9XJ81ZuGBBSaQH2niI8REtmjp1tB9QFQaek5REcZKBrWwmCLovte88zbPx0vpux0+m4qaJiG0vXHmfWogO0aBgnsWoXcfx0Ftc/8DtFxaqu68+A78VqIqbKyyngYaCs6GAtSgmaLWKySsUAPAr8hAvKwDSqaeCtCVFc1y+YIJOGuEgdQ7tZaFXfyOGTxS5PJ7DnaBF92pqJDveuyy8+SsfInhasNth6oFB1Dh+AnDw7bRsZSYzV+/3ga1bXwPS/clUn8ly9+RQ3DGtMRJhZrtxShNBbE9dx3QO/c/x0VoX2dTY5l29+3c7BY+l0a1cNi9TbY9yTc9i657yaptkoMafZMipFTJWXQpR8U7VU2uxnMVml0Q2YA4yu6PgNtWh5/KYwnhkbQZXo/+4qKU7Plb2CqZOkZ9+xYjKyXSOq7HY4ctrKsG7eF9p1wUvVqamJTXsLnTpnDRp6t/V/wWAyaDAZNKzcVqBaLJw8ky2pEkpg444zDLntV36ctQuripUQ1aqE0qB2NKfOXv55v23Peb6bsZOE2GCaN4wLWPsuWnWUJ99UnXPzVZTFO0I5kAzo//AI8KaKdvlAHJAlJvMowcAbwF2uGLd925l58uZwYiLU6bFiq53fluby2Yxszqe5Zvrvw4ej6N7Ke8VHXoGd9ydnMnlhjiovlcWsYdFHCVjMnr2tjHzsnFuyu5fpBUm1OVXGJiE2uMLB0Tqdhn0Lb/f5i7mo2MY7X63n2XeXq5p+0mjgxuFNeP/ZPoSHmvjyl208/L8lZOeWPd3avV01Pn25P43rRvucnTqP+oGzyeUrJ2MHTp7JUhtHZgWOA5Ud0NkKyPTFMS1i6h+aoL7w8WiUlWOCZ+gAfIcLMpjHROh4YkwY/dqXL2t3fqGdn+bl8M3sbDJzKnbfqVlFz7TXYtF7eZ2wLfsKefaLdI6dKXsV2yt3RjC0q2c9bu1vPU1BkT0gLgSdTkPx3kd9+hzWbDnFuCfmsOtAirrrJCmcia8OpG+XGv/6/8MnMrj9qbksWnW0zH0Y9FoeGteOF+7vgtnkO1PRSV0+4eTZgJp1iwTSffHAZTXfP+wEjqpse6WYyyMYURLHrayokNJqYFSfYGa+EVtuIQVgNmoYOzSEP96JY+zQEEwVyPx95HQxvyzM9fpOaFnfyNT/OVb8lXG6s5bJ2gyhZPLyi3nizaV0vfZHVUJKo4Hxo1uw/c9b/yOkAGolhbPg22v59s3BRIZf3sNbVGzj9c/X0nTQ18xbflg6Q3A54pn6N+8AD6pol40y1SdPDvfRBMUb1bqiO6oer+fZceG0b+z62lzn0qx8PiOLGUtzsZZj9i8sWMvvb8f5TI6m1TsKeHFiOqdTrKU+AP94J57EWM+FY4pnyvtZtekk456cy56D6rxRtatF8OX/DaRXR3XrS06fy+bu5xfw24L9qtpf0bsOn77Un6SEUK+2m3imfAfxTP2baSrbhQBSFt59An8CsLGiQkqvU7xI016LdYuQAoiL1PHs2AhmvB7HFV2DyvTcXEpmjo0vZvhO+F2npiamvRbH1b1LrjNot8Ofq3JlFAvAP96obqN/UiWktFoN40e3YNuft6oWUgBV4kKY8elIfvlwODGRZXueZy8+SNNBX/P+pI0VLl8jCBceXMK/xeUJoIqKtt8DY8RkLqU28C3QtaI7alHPyPPjIqiT5Nn4iP3Hi/jit2zmr1XvtNTpYOqrcR4/1gp7G7YV8OJX6Zy5xEtVPUHPrDfjPJZzSjxT3sny9ScY9+Qc9h9JU9W+Sb0YvnptEB1aVKnQ755NzuHR1/7i+992qmrfukk8n77Un/YV/F13IJ4p3xIPwj/YgBkq214JhIrJXMYYlPxdFRJSZqOGCdeGMenZmEoRJ/WqGXjzvkgmPRtDS5VlY6xWeG+K7y1g6dzcxLT/i+Xq3v8OOD92ppjtBwtlRAcouXlFPPHmUnre8LMqIaXXaXn8jg5snHlzhYUUQHxMMN+9NYRZX1xJYnxIme037TxLp1E/cMcz89SWWxGE/yCeqf/SA/hLZdtbgUlisgpRBfgSGFzRHXVraeaZW8NJiPaO9Gl2Oyxcn8dHU7M4crrslXCfPxFNx6Ymn+zEvzbl8/JX6X+XyhnVJ5hnbg33yG9/NDVLVY4id7NmRwG7DhepF941I7lygHPrKrQaDf97pLvXjoN5yw8z/ul5HDul7uWgWYNYvn5tEG2buacwcXpmAY+/8RcTp2xVld6jSlwIrz3anTEjm3qFPf/36Roys9XlMzt9Lpvvf9uFXV223RTgayo/FcKlvIiPxiKLmCrZJoeAmiraLkXq9VWEq4FPgZiK7CTYrOGh68O5qpfFK8uZWK3w27JcPpuexbnL5KiqV83AL6/GVqhGXmWSkW3j/77NYM7qPMKCtSz8KB6TIXBuMbn5dq568hynnChD9MuHwxk1qIHPn3tGVgGPva5etFxIVfDSA10xGtz/8jN32WHueEa9yBvSqw4fPt+XWknhPmH/wiIrbYZ/y459yWo36QcslEeQ65AM6CUTh5JpuyxqAD8AaWIy5/QP8AVK2oMKJSVq28jEZ49H06GpyWvrwmm10LiWgev6BxMfpWf7wULyC/77xEnNtBEXqaVxLaNPdqrZqKFv+yCa1jawYlsBSbE66iQFTjkPg15D/eoGZq9Q/2K9ZM0xbr6yKSEWo8+e97L1x+l9w2T+Wntc3TXbLIE/v7qaG4Y1RqfzzJtD3RqRjBvVnPTMfDbuOFNm+/1H0pg4ZRs6rYYOLaui03r3S8Fz761g2rx9apt/D7wtjyERU57gFHCvinYaFJekKHz1NAbmAf0rshOTQcO9o8J4blwEYcG+4crRaTU0rmXgql6Kftx9pIjiS5wYOw4WMap3MEYf9ujUSNAztKuFgyeLaVgjsGqjJcbqOZ1iZc9RddN9ufnF7D+SzugrGvnsOeflF/PepI0UWy8/Y2Q26XnloW589dogqsSGePw4TUYdV/SqQ8+O1Vmx4SSpGfmXbV9UbGPRqqNMn7ePrm2TiI8J9kr7r9lyinFPzlFbSzMFGA7kyKNIxJQnSAauAKqqaNsQ+BAoFrOVyRhgJpBYkZ3UrKLns8ej6ds+yGu9UWUJwY5NTVzdKxitFnYeKuLCcyivwI7Njs/GTl0gyKQJOCF1gXaNjPyxMo+cPHVPt72HUmlSL4Ym9WJ88nxjoiwYDVoWriw953GnVlX586urGdGvHtpK9vLUTAzn9mtbUGy1sWbLqTJFSH5BMQ/f1p7wUO+7JnPzihg49leSU1V7Q+8AVsujSMSUJ9EDQ1S0swD7gG1islKJQHEtPw1U+Ak7fmQovdr4fkHdIJMiqq7oYqGgyM6eI0XYUcTVwE5BhIfIYltfxGjQUCNBz5zVgTPd16lVIgtXHuX46X/nTAsy63nlwW58+b9BxEV7T2Fvg15L3y41Gda3Huu2nubM+dIdNW8+0ZP+XWt6pd0ffHUJc5cdUtt8MfCoXKEipjzNXpSpPjWvI1WAr8RkJb+oA/NxQe6oC9iBK7pY/MZAocFaerQy07d9EOlZNvYfLyI53Ub/DkEyenyUGlX0HDtTzP7j6hzWufnFHDyWzrVDfHO6T6PR0KV1Il9N3f73dF+XNon8+dUohnuBN6o0EmKDGTuqOcFBBpatP/GfVaFtmyXwxSsDvfL4F648yv0vq44wyQUGIvG9IqYqgUKgFtBGRdsk4A+UWCvBcX91vAX9SAVX613K2RQbNw4MwaD3r5ViUWFa+ncIolNTE0s25lMtXk/VGLlEfZUOTUzMWZVHtsrpvj0HU4mNCqJ98yo+eb4xUcpq2jVbTvPyg9348n8DiY3y/pcenVZD17ZJjOhXjw07znLKkSRTr9My83N1uao8TXpmAQPH/kJGluq8WE8Bf8pVKWKqsjgNjFfZNgz15Wj8nVjgF+Bud4wxqw2a1TFSq6reL42XEK1jeHcLhcV2IkJlqs9XMRk0NKyprO5TmwVr8epjXNG7DgmxwT55zp1bJ3LzyKYM6VUHjY8FNMbHBHPr1c2wmPWs3HiS+29uw81XNvXKYx3zyB+s3qz63X0DcDvel1PK77wHQtkDUY13qhioCxwNcHv1RkkX4dbX66t7W3h2bISMTsHreffnTCb9ob4kSN0akWyadTOhwUYxXiWx91AqSVVCCQ7yvkUUn/+8hTufna+2eQHQFtghvepexDOlbjCOUNFOixLOMy+Ax9KLwEQUL51bSclQpvo08jogeDltGhpZtqWAlAx1joHUjHwOn8jg6oENxHiVRExkkEeSiTrLzv3JXH3vTIqKVTuZHgVmSY+6H5lDKJvJwBmVbW9DWbkWcPceh4h81lNj6myqlf3Hi2R0Cl6P0aDhtbsjMRnVK//Js3fz7XRxJgj/kF9QzPUP/k5unur73grgA7Gc57wJwuWxoqQ/6KWirQnIBpYHkH1aoSQtbe3pH64Srad1A5kKEbyfyDAtwWYtK7cVqN5mwYojXDmgPjFRFjGgwN3PL2DOUtVpEDJREiPL6j0PIZ4pdXyG+uKLDwKhAWKXGx1vP7Uq48eXbcmXkSn4DNf1D3YqP1pOXhHXTphFfoHkAw50pvyxh4lTtjqzyUPAEbGc5xDPlDpyUQofq/G+WIB0YKUf28OIkvX9f7ggCWd5OZdmZXS/YMxGCZwSvB+NBjo3NzFvbR5ZuerW951NziU5LY8retcRAwYoO/cnM2z8dAqLVBfQno0k5xQx5cXsBu5BnTevFfApSq4qf6MqSr6SkRV5qDSoYSA1s2Irde12aFDdQL1qBhmdgk9gMmpoVd/ErOV52FQO/407zlA1LoQ2TRPEgAFGRlYBfcf8wunzqleDngEGI7X3REx5MalAE8enLCwoBSX9rQZSN5T4qHKnaY6L1PHBQ1FMuDaMFvWMrN1VSG6+vdwHZDZq6NNOMoULvkNcpI7gIOfip+YtO0y3dknUTAoXAwYIdjvc8NBsVmw4oXYTG3AVUtqsUpCYKef4H6jOv/ckHkgR4EHGO4RUuV+POzU18fMrsbRtpFTo6dTMxNRXY+ldgTp7K7YWqH7DFwRv4YYBwfRtp37cFxXbuPqemRw6ni7GCxBe+XgV0+ftc2aT14AFYrnKQTxTznEWpdZcfRVtLUA+sNTHz9kCfI1SpLhc40WrhfuvCeOZsREEm/8d3xRk0jCwUxBJcTrW7CigyMlY24JCO52bm0iIlqEs+BZdmptYsC6fzBx1bwN5+cUsXXecm0Y28cocSILrmLvsMOOfnoddvdN+FXAzkuVcxJQPcQQYp7JtG5Qklnk+eq61UIoU9y/vDiJCtbz3YBRDu1kum2CzQXUDgztZ2HWkiDMpVqd+IyZcS4cmJhmZgk9hNGho08jI7BV5FKsc8meTc9h7OJVRgxpKwlo/Zd/hVAaN+5W8fNVvlmlIGgQRUz7IcaATSumYsjChTKX6ouu1E8q0XrmXETWsaeCLJ2NoXEtdgHhosJahXS2YTRo27inEpvKtLCffzqg+wTIyBZ8jJlxHraoG5q9T/761+0AKGg307FBdDOhnpKbn02fMFE6eyXJms7H49+pxEVN+zF6UbOdq3g1bAd8DGT50fjcA04FyR7sO727h3QeiiHSyUK9WC60aGOnawsyG3YVkZJfttU7NtDGyp4WQIAkBFHyP2ol6CorsbN6nfvHv0nXHadYglkZ1o8WAfkJRsY1h46excccZZzb7GHhDrCdiylc55RBJDVW0NQBxDnHi7WiAxx0XqL5cA0qnxEc9dH0Yel355yHiInVc2dNCTr6dHYfKLp9Qq6pBtQdMELyN9o1N7DhYyPGz6qe4//zrEIN71iYhVryy/sBdz85nmnMB56uB61CqdAgipnyWHcCdqPNONUOZMjvuxedjAr5ByZxbLhUUF6njk0ejGdTJNakK9DoNXVuYaVbXyNqdl0+hoNXCwE6SIkHwTTQa6NbSzKIN+aq8sQCFRVZmzN/HiH71iI6Qse/LvP3Vel77bI0zm5wF+qIkiBZETPk051DyLTVVc69E8WJ946XnEouSiPOK8u6gTUMjXzwZQ62qepcfXPV4PUO7Wjh6upgjp0sOyjybauWmwSEV8oYJQqW+zRg1dGhsYvaKXNWrWnPyipi77DDXDmlEsEU8s77I74sPcNtTc51ZuVfkuFdLJWwRU37DJhTvlBoFUQ3YBez0snOoh+I1a1XeHVzd28Ib90a6NWYpyKRhkCOFwurtBf9Z/VRshTYNTVSL18uoFHyWqDAtDWoYmbc2T/XDNTU9n/krDnPdFY0xm2T8+xLrtp5m2PjpFBQ6NVP3EDBVrCdiyp9IB6JQVr6poR3wBeAtlUv7oqw0TCyvwHnlzkjGDQtFq/WMR6hBdQMDO1nYdaiIM6n/vgGFh2jp0sIso1Lwaaon6ImJ0LF0s/pC3meTc1m39TSjr2iEXicLMXyB/UfS6HfzFNIzC5zZ7CeUuFZBxJTfsR4lO7iaoIUIlKRqS7zguG93XJjlil6tEq3j8yej6djU8/mdwoK1DOtmQaOFTXsL/36DT8uyccOAEBmRgs/TuJaB7Fwb2w4Uqd7myIkM9h1O46oB9dFIEiqv5uTZbHpc/zOnzmU7s9lWYATKNJ8gYsrvyEPxNKlNbNkJxUWbUknHqwFeAN4ub/83qGHgiyejqZFQeVMKWi20a2SiS3OTkkIhx0Zmjp3BnYOICJE3c8H36dTMzP5jRRw+rd6RvXN/MudScrmiVx0xoJeSkVVAv5t/Yd/hVGc2OwP0AZLFgiKm/JlNwPVApEqb1wV+rITjNDp+957y7qBvOzMfPRLtNYIlPkrH8B4WMrJt7DpcRGKsjhb1jDIiBZ9Ho4Eerc2s3l7A+XT1VUI2bD+DTquhR/tqYkQvI7+gmCHjprFu62lnX9gHocTcCiKm/BorcAwYrbJ9XZTK3ns8eIzBwAwUN3G5uH5AMC/cHolB711TCEa9hh6tzNSvZmDV9gL6tZdl4oJ/YNBr6NHazIK1+WTnqV/utWTNMWKjgmjfvIoY0UsoLLJy1T0zWbjyiDOb2YExwDyxoIipQGEP6svM4Gj7JVDogWOLclyMPct7Q3/+tghuGxbq1fXAaifqadfIhNnkmYM8croYk1HjdeJS8C8sZi3dW5uZvzaPvAL1gmrO0kNEhJnp2LKqGLGy37atdm56eDYz5u93dtMXUZIoCyKmAoq1KMHoaoKJwgGLB944qqCkPmhTno3DgrV8+HAUfdr6hrfHU0IK4I7XU3jzxwz+2pTP+XQbwWYt0RE6KUAruJzwEC1tG5mYuzpPdQ4qgHnLDxMeaqJjKxFUlYXNZufmx/7g5993O7vpVOA+saCIqUAk1SGSOqts3x73ZkavjbJysFF5Nq4Wr2fik9E0qS0xSJeSkW3j7R8zsdngfLqNDbsLmbYklykLc9h1uIjMHDtRYVpCLBIML7iGuEgdTWobmbcmH5v6ECrmLT9MaLCRzq0TxYgexm6H8U/P49vpTufXXIMSklEsVhQxFaisBW4GQlW01TgE1ZcoKRNcSRuHkCpXFGqbhkY+fzKaKtEyREpi5dYC5q7J+8//5xfaOXiymGWb8/lhbg4L1+XRu42ZYCnCLLiApDg9dasZWLAuz5mM2cxfcQSDXkv3dhKU7kkefW0JH/+w2dnNDgD9gAyxoIipQKYA2Ieyuk8N8ShxU8tceAw9gLkosVJOM7BTEG9PiHJrRnNfZ8rCHFUFmIuK4Z6rw2TqT3AZtarqiQnXsmyzU8keWbz6mKzy8xB2Ozz46iLe/WaDs5ueQoltPSlWFDElKGKqKdBYZfsuwDRck0NkJMqqPaeTcWo0cM/VoTwxJlxq3JXBOz9lkpZVtjOxa3MTgzrL6kLBtTSuZUSvg3W7nFu/smTNMfFQuRmbzc5dz83nE+c9UhkoVSn2ihVFTAn/sBwYh7rM6HqU1X3fULHpvjHADyj5pJxCq4Vnbo3gpkGSQbwsktOtfPBLlqq21/YLplkdiTkTXE+bhiZsNti4xzlBtXj1MTRAzw7VxYguxmq1M+7JOXw9dbuzm+YDQ1HCRAQRU8JFZKN4moapbF8FZYpweTl/bwLwWXn61KjX8Ma9UVzRVTwoavhrUwEL16urm/bQdeFEhcl0qeAe2jc2UVxsZ9Ne5wTVX2uPc/JMFoN71vZYXc1AEFK3Pv4n381wupa9DbgB+FOsKGJKKJktKFN4tVW27+a4oE47+Tt3AB+iBLQ7hcWs4b0Ho+jeSgoEq2XyAmXFXllEhWl5YLTESwnupUMTEzl5drYdcE5Qbdp5lu17zzO8bz0MehH8FaGwyMroCbOY8ke58jDfA3wrVvRt5ApyL3aUvFM5KtsbgK9wbppuPPBpeYRUeIiWz5+IplMzk/SUMwp5n7qHVocmJhFSgkd4+PowruvnfM3y3xbsp9cNP3M+NVeMWE5y8ooYfsd0ps/bV57Nn3TcvwUfRzxT7icdJVdIP5XtExwid7GKtveiZMd1+pFdJUbHV0/H0KCGQXrICbJybbzzUyZqVqVf1z+YxrUkXkpwPxoNdGlhJjnDqsprejEnz2Yzc+EBhvSqTWS4eKid4XxqLv1vmcqydeVKFfgC8KpY0T8Qz5RneAfY6OTbSs8y2twOfFAeIVW7qp5Jz8ZQs4peesZJtu4vwqYyv0/rBuLxEzwrqJ65NYIbBjjvodp3OJX2I79n9eZTYkiVHD2ZSbfRP7F+2+nybP4eSqkYQcSU4ATFKCv7ipzol++AyMsIqc/LI6Sa1DbwzbMxJEgyznKhdoov1KKlZlURq4LnBdVjN4UzfkSo09umpOfRb8wUZi8+KIYsg537k+l67Y/sPZRans0/Ah4UK/oX8kT1HGdR0iR0U9k+HKiBkn/qYu6mnDFSnZub+OTRaEKlxEm5mTgzm5PnrWW2a9/YyBVdLGIwoVJo37h8aROKim1M/XMviQkhtG4SL4YsgWXrj9P/5l84l1KuOLMvHfdwQcSUUAGWA4MBtVVHmwJHgK2Of99FOWOkBnYK4s37IjEZJSK6vFit8H/fZVBctpZiWHcLbRrKNJ9QuYLKqNewdqdzmdJtdjuzFh0gK7uQvp1rSuqEi/huxg6uuW8WOblF5dn8W5RZBbtY0v8QF4VnKUTJJ5LjxDYfAnWBO8srpK7saeH/7o7EoJebYkU4cLKIvAJ198GW9STwXKh8xg0L4albwsu1qvSdr9fT+8bJstIPpTzMCx+s5JbH/qSg0FqeXUwExuL6GqyCiKmAZS/wkBPtQ4FFwCflEVKj+gTz3LgI5OWy4uw6pO5tVKeDppL1XPASru0bzPPjItCVYx5i2frjdB71Izv3Jwes/fLyixk9YRYvfrDSqeLSl7wQ3yFCSsSU4Hq+AH5zon318gip6/oH83Q530qFEsTUEXViqn41A0EmMbrgPYzsaeGdCVHlmuY/cDSNTlf/wNQ5gVcy7sz5HHrd8DO//LmnvLt4E7gfmdoTMSW4jbHAcXft/KZBITx+kwgpV7LzoLpg3ia1JXeX4H30bG3m88ejCQt2/raflVPINffN5IFXFlFUHBgOlo07ztDhqu9Zu/V0eXfxCvCYjDwRU4J7ScNNc+hjh4bwyA1SxsSVFBXb2X+8WFXbRjVlik/wTlo1MPLNszHERZZv7dH7kzbS47qfOH46y6/t9O30HXS99ieOncos7y6eAZ6VESdiSvAMC4F3XbnDmwaFMOHaMLGsi9l/vJjCYnWe+qbimRK8mLpJer57PoZa5cyDtnrzKVoPm8TcZYf98KXJxn0vLuSWx/4kv6C4PLuwoqQ+kMzmAYakRqh8lgJXoJSRqRA3Dgzm0RvDxaLu6KTNBSzbnF9mO6New6M3hqGTiH/Biwm1aBnYKYit+ws5k+L86rTc/GJ+mrWLjKwCenasjl7n++/lZ87ncMXt0/h1brljwwqA61ESLgsBhnimKp8LF2CF1h+P7GnhkRtESLmL/cdVBp/XMEgKCsEniAjR8sUT0QzpElSu7e12ePebDXS6+gf2HEzxaVus2nSStiO+ZcWGE+XdRSYwCPhVRlZgIp4p7yAZMFJ2Pb5ShdTz4yIkRsqNTPojh1PJZb/B92htpnsrKRYr+MgDQKehd9sg0DifLf0CZ87nMGnaDmKjLbRpmuBT52+z2Xn987WMeeRPMrIKyrubMyiF7FfLiBIxJVQudVBKxIQ4u2H/DkG8cmek5JFyM+/8nEl+YdkxUyN7WGhSWwLQBd9Bo4F2jUzUTtSzbEsB1nLkpCwqtvH74oOs2XyKXp1qEBbi/dfA+dRcrrlvFp/9vAWbvdyZCw4DfYCdMpICG5nmq3xigT+BchXC2nesiJw8yQXnTpIzbKRnqbNx3WoSfC74Jv07BPH549FEhJb/sTBv+WFaDPmGybN3e/W5Ll59lBZXTGLO0kMV2c1qoCOwX0aPIGKqcgkD5gL1y7uDI6eLeeyjNGyip9zGgePq63DVSdSLwQSfpVUDIz+8EEPdpPKP45T0PK574HeuuW8myWl5XnV+xVYbz723gn43/8Lpc9kV2dVkoDdwTkaNADLNV5kYUbKgd63ojo6ftVJUbKdjUyms6w7+2lTAqm1lx1PEReq4fUSoGEzwacJDtAztauHYGSuHThaXez+7DqTw5S/biAw307pJQqXHdB46ns6IO2fww287sVcsH/kHwHigSEaLIGKqctECPwFDXbXDLfsLqZ6gp55MM7mc35bmsltFKZnm9Yxc0dUiBhN8HoNeQ7/2QZiMGtbvKih3LZT8gmJmLz7I0nXH6dImkeiIII+fi90OE6dsZcSdMzh4LL0iuyoAxgGvI+VhBBFTXsF7KNnPXcqKLQV0amYiLkq61ZV8N0fdSr7ebYPo3Ey8g4J/oNEo036NahpYtiWfovI7qThyMoOvp27HbNbTrnkVtB5aMXPybDaj7v2N9ydtrGgZnGRgCPC7jAyhJCRmyvM8h1L40uUUFNl56P00ktOtYmUXcvysuqdI7aoSLyX4Hz1am/nxxVhqVqnY+M7JK+Lh/y2hzfBvWb7+hNuP+6dZu2g2+GvmrzhS0V1tBdoDK2Q0CCKmvIPxwIvu/IGzqVYefC+NwiLxQrtEoBbaOZemTpxWTxAxJfgntarq+enlWAZ0rPg03bY95+l+3U8MHT/NLTX+Tp/L5qp7fuOGh2aTlpFf0d1NBrqgpEAQhFKR+SDPMRL41lkB26W5iVPJVqcCJs+mWjl53kqftkGSyLOCHD5VzC8L1SWnv3dUKMFB8n4i+CdGRxxVeLCWdbsKK7yCeN/hNL6aug2jQUfbZgnoKliSxmaz88mPmxl51wy27K7wIrti4FHgESTQXBAx5TX0AGagrOBTTc/WZt5/UMn7smKrc9l59x8vxmqD9k0khqcibNlXxLy1ZS/vNhs1TLg2TMSr4Pc0q2ukawsza3YUkJVbMQ94QaGV+SuO8N2MnURHmGneMK5c19CBo2mMum8mn/ywmYLCCoc5pDhefn+U3hZETHnRvQeYj5PZzds0NPL+Q1EY9Bqa1TGSnG5l12HnXpA27S0kIUpHo5qywq+8LN2cz5odZQvZ2okGrukbLAYTAoLYSB1Dulo4eKKYY2eKK7y/jKwCfluwn0Wrj9KkXgxJCepSjOQXFPPqJ6u5/sHfOXA03RWnthElf9Rm6WVBxJT3UAVYjJPZzesm6fns8WiCzf+4vbs0N7F5XxGnzjv31rViawHN6hipFi/xPOVhzqo8dh4qW8S2rG90STyJIPgKZqOGQZ2CMBo0bNxTiM0FYZrHTmXy1dRt7DmUSouGcZdNpTB78UGG3TGdGfP3Y7W6JEb0E2A0imdKEJxCAjzcRyhKmZjqzmxUNVbHZ49HExb8767R6zS8dV8kibHO6d9iq51HPkxl3zGZ9i8PaoPPq8WJWBUCD40Gxg0L4bvnY1y2AMNuh8mzd9Ow/5dcc99MDh1P/9f3h46nc819Mxk6flpF80ZdINMhou4B8qVXhfIgnin3oAemA92c2SgiVMuXT8WQGFvyTcls0tChqZk/VuQ6lfOlqBiWbS5gQMcgCZB2km//zOZ8etmRtgM6BtGsrhQ4FgKTuEgdw7tbOJtqZd+xYpfs025Xsqh//vMWktPyaFQnhne/Wc8ND85m257zrjr0tUBfYKX0olChFwsxgVv4HCUNgmqCTBq+fCqapnXKfiD/tSmfB99Nddqt3qC6gW+eiyHYLN2ulj73nCE5o2wx9faEKPq2M4vBhIBnwbo8Xvoqg8wcry4Yagc+RFmxVyi9JlQUcVO4niecFVJ6nYa3J0SpElKgrPJ76Powpw9s77EiHvkglaJiyUGlhqJiO6mZ6h4I8VFyKQkCQL/2QUx+JZYW9bzWU5sCXAFMECEluAqZ5nMt16AEMap2/Wg08MJtEfRr71zwcot6RjKybew46Fws1PGzVo6dtdKnneSgKouzKTZ+mJujqu1dV0mOKUG4QFiwluHdLZiNGjbvLcTqXU6qc8CrQLb0lOAq5O7vOroB3zlr0wdHhzG8e/mK4z52YzjdWzk/tTR3dR6vf5chPVYGyRnqgs+1WogOk/cSQbj0uhg7NISfX4n1tvQsNYG5QKT0kuAq5AngGhoAC1BW8KnmxoHB3H11WLl/VKNRpvxWbSsgOd25V78dh4rQAG0bSVLP0th7tIg5q8tO2BkToeOWISFiMEEogagwLSN6WAgyaV2WQsEFxKMkU56CTPUJrnh5EBNUmBiUSuJRzmzUvZWZh68Pr/CPW8waPnokiirRzuviT6dnqZ7GCkTSstQJ1KhQuYwE4XLodRrGDg3h2+eiqeU9BcE7AjMBWTkiiJiqZCzAbKCeMxs1r2vkrfsi0brI+jEROj58JIrgIOeDoN7+MYO5KrwvgYja1UihwXIZCYIamtYxMuWVWG69IgSdG+dFosNUX5O9gZ9R0tkIgoipSkADfAV0cGajxFgd7z0Yhcno2ujvetUMfPBQFEa9c/u12eHpz9Kdrv0XCKhdyRcpnilBUI3JqOGB0WFMfjmWJrVdG0t1oUbmH+/E07qB6tWEI4Bv5HkoVASJmSo/L6FkzFVNRIiWr56JoUqMe8xeNVZPzSp6Fq3Px5mwBJsdlmzMp30TE/FRMiQusGBdnqp6iK3qG+nRWmYKBMEZosN1jOgeTHiolk17CymuYH3iri1MfPJYNN1bmTHoNfRpZ2bF1gJSMlS9FDUHooE50jOCiCnPMRp4HydSIJgMGj5+NJqGbl7VUifJQHiI1mlPU7EVFq3Pp0tzEzERMiwAZq/I4+DJsrM5d2pmomNTCeQXBGfRapWwh4GdLBw6WcyJc84rqrBgLY/dFM6jN4YTatH+657bu20QSzbmq52yb48y3bdEekYQMeV+2gMzANWqSKuB/7s7kq4tPOO9aFbHSHGxnU17nVukUlBkZ8H6fLq1NBMVJh7vWcvzOHambDHVo7WZVvWllIwglJewYC1XdLFQJUbHlv2F5BeW7VvXauDKXhbefyiq1Ck9i1lD91Zm5q/NJzdflb++O5ADrJJeEURMuY+qwEKcXLn3wHVhXNUr2LOKr7GJs2lW9hxxLqlnfqGdhevy6N7STGSAC6ppS3I5lVz2m3KvNmbV2esFQSgZjQYa1jRwVS8LBUV2dh4uwl6K/mlU08DbE6K4tm8w5jLiT8OCtXRpbmbemjwKClUJqn7AaWCj9IogYsr1BAHzgIbObHRVLwsTrg3z+MFqNNC9pZkDJ4o4fMq5wqN5BXaWbMynVxsz4SGBK6imLsrlXFrZYqpvuyBvS0ooCD6LyaihawszPVqZ2XO0+F/XYFiwlgmjw3jhtginYk+jwrS0bWRk7po8NUXiNcAQYB+wQ3pEEDHlOrTAZJTq4qrp1tLM/90dWWllWzQaZQpq455CzqQ4F4uQk29nyaZ8+rQL+lccQiDx84IcVcGrAzoGUa+aiClBcCWxETpG9rRQLV7Hpr2F9G1v5sOHo2nfxFSue2p8lI7GNY3MX5uPrezLWgMMQ/FOHZDeENQMGKFsXgGedmaDBtUNTHouBou58k2cnWvjtv+lsNvJKT+AavF6vn4mmrhI53R3YZGds6lW0rJsZGTbyMyxk5FtIyPHRkaWjcxc299viDl5tr9rd2Xn2bHZ7Gj4d/6mS/+tvKVqLvn3v4NPLWYNFrOWUIuGINM//w6xKH8GmTQEX6Z/hj58jmNny36NfWdCFH3ayWo+QXAXRcV2DHrX3EvnrcnjiY/T1GZizwUGAsulFwQRUxXjBuB7Z2wVE67lx5diSYj2HsdfWqaNsa8kc8jJKT+AWlX1fPV0DNHh/xYzKRm2v6cRTydbOZ1i5XSylVPJVlIyrKXGO3gboRZFWAWZNAQHaf7+95odBaoCYT9+NJquLWQ1nyD4ClMX5fDKN6rrk2agJPfcJJYTREyVj44oy2RVux1MRg1fPx3tlQHJZ1Ot3PJyMqfOO7/8uG6Snuv6B3PgeDEHThaz/3gR6Vk2GSEoCVOrJ+iIi9ARFa4lPkpHVJiWuCgd0eHK37VypQmCVzFxZhYfTc1S2/w8Si2/3WI5QcSUcyQB64EE1cbUwOv3RDKgY5DXntTxs8Xc8nIKyelW6WEPodNBVJiOuEgtCdE6qkTrqBKjJyFaR0KUloQYPTHhkopCEDzNWz9m8v2cbLXNTwDdgCNiOUHElDrMwDKgnTMb3XVlKHdeGer1J3fgRDHjXkkmPVs8S96CUa8hIUZHQpSOqrE6qsXrSbrwZ5wuoFdVCoK7sNuh331nOa/+5fKAQ1CdEesJIqbKZhJwszMbDOoUVKkr95xlwbo8HvkgTXraRwgL1pIUpyMpTk+1eOXP6vF6aifqJcGqIJSTWctzefbzdGc32w70BFLFgoKIqdJ5AHjXmQ2a1DLw9bMxZSaPq2xOnbeyZFM+89fmsXV/oc8EiAuXJ9Si/Vtg1U7UUydRT1KcnjpJekwGucQFoSTSs22MeOwcaZnl8tCvQ0mVkyWWFERM/ZdewHyU+kyqqBKt44eXYr025iU108ac1XnMWp7rdDZ0wbcx6DVUi9NRJ8lA3SQ9dasZqF9NEVpacWYJAc5Tn6bxx8q8iuxiEUpyzwKxpiBi6h9qoAScx6rdINisYdJzMdSv7l0JG61WWLoln5lLc1mxtYBiq7ighH8wGTXUSdRTr5qBOol66ldXxFZspOTwFQKDVdsKuOuNFFfs6jdgFFAsVhUxJYAFWAG0UruBVgPvPRhFj9bek6wxJcPG9L9y+HVxrtMZzwUhKkxLw5oGGtYw0KimgYY1DVSL0/tMHKAgqCG/0M5VT5zjxDmX3SO/B24BZEWPiKmA50fgemc2uP+aMMYNC/GKg99/vIhJf2Qzf00+hcXihRJcR3CQ5l/iqlFNI7WryjSh4Ls4mQ5BLR8B94l1RUwFMo8CbzizQd92Zt66P6rS39g37y3k69nZLN+SL8HkgscIMmloUMNA41qOT00jtRPFgyV4P3uPFXHds+exusdx/wrwrFhZxFQg0g+YgxMFnxvWNPDtc5W7cm/T3kI+mprJxj2FMoK9g7nAD0A8SrLXOMef8UAiEOrvBogO19KktpFmdQw0qW2kaW2D5MYSvAqrFa5//ry7F+I8Crwl1hYxFUjURgk4j1K7QWSYlp9fiqVKTOUE6u48VMRHv2ayaptHFo8UAiuBpjgRlB+gzAKGX+Z7i0NUJQA1geqXfGo62vjPjUUDtaroaVHfSKv6RlrUM1Kzil5GilBpfDM7m/cmZ7r7Z+zAeOBLsbiIqUAgCFgFtFS7gV6n4Ysno2nT0PM1904nW3l3cibz1+a5ezpvF0pqiPkoGeBzgEbAQqCqXC6lsh5oX8F9xDiEVTWgFlDH8anrEFsGXzdSZJiWFnWNtHQIrEa1DJIHS/AIp85bufKJc+QVOH8D1WiU+pv7jxepvf9aUWJwfxHLi5jyd74GbnVmg6dvCeeavsEePcjcfDtf/57Nd3OyKSh0i4qyAxuA6Y7PvlLa1XEIqppyyZTIcYcQchc6x/7rXiSy6gD1gXqA0ReNZtRraFzbQNuGRto0NNGyvhGLWcSV4HrufC2F1Tuc8+hrNNCtpZl7rgqlYU0Dk/7I5t2fVXu2CoERKGEkgogpv+R24AtnNri6t4Vnx0Z49CAXrc/nte8yOJfmlkjJncB3wM8OIaCGag5BVV8umxJvnGaHOPU0ehRPViOgIdAAaOz4e4QvGVGngya1jLRpqHxaNzARHCTiSqgYzpaMuVREXcz7UzL5+nfVKwFzgYHAcukFEVP+RhuUfFKqk0O1amBk4pPRGPSeMdXpZCv/910GSzflu3rXqShB0t8BG8u5jwRgAUoclfBvYoFkLzumBIfIagw0A5oDTYAwXzCoVguNahho3dBE+8ZG2jQyESyeK8EJ0rNsjHhcXcmYy4moC9jt8PLX6Uxbkqv2EDKA3sAm6Q0RU/5ClENE1FT9JIrW8dNLsUR7oFSM3Q5TF+Xw7uRMcvNd6uDYAnyMkksrzwX7iwbmOYSp8A/NUQqg+sI1X9MhiC8IrKYoHi2vjhDX6aBZHSMdmpjo0MRE87oGj73kCL6JmpIxakTUxdhs8NhHaSxYp/p2eh7oAeyWHhEx5etogd+BwWo3MBk0fPNcDE1quT/u90yKlRcmpjs9p3+56x1lhdnbKJ44VxMO/AF0kUvob4YAf/rw8ZscoqoNSiWA1g6hZfbWAw4yaWjT8B9xVb+6QXJdCX9TVskYZ0XUxRQW2bnv7VTWqL9nnwC6AUekZ0RM+TLPAi85s8GLt0cwoof7V6svWJfHC19mkJ3rkkoERShxUK+jrMxzJ8HATKCPXEaAf+aX0aNMEba+6NPS0fdeR2SYlo5NTHRpYaJzM7NHPMqCd3K5kjEVEVEXk5tvZ/z/pbD9oOp8fweA7sBp6SERU75If5QVFarvrJ4IOC8qtvPOz5n8NC/HFbuzotSHetHDbz5mYCpwhVxKTMLJFaI+ig4l7qo90MHxaYwTiW89cmPTQIMaBro0V4RVy/oG9DpxWwUKJZWMcZWIupj0bBu3vpzMoZOq6xxvB3qixLAKIqZ8huoocVIxajdoVsfI189EY3Rj/pvTKVYe/SDNmTea0rCjVC1/Bvd7okrDgJKgbkyAX0vrHMIiEAlBmR7scNEn0ZsOMDhIQ4fG/3itqsbqEPyTS0vGuENEXcy5NCs3v5TMqfOqV16vBfoC2dJbIqZ8ARNK4knVyRSjwrRMfiWW+Cj33WiXb8nnmc/SSc+u8LTeJmAC7omJKs84egN4JICvpWyUVXJSJVEhCeiKElfXBSX+ymsUTJ0kPT1amenW0kzLekYp3OwnWK1ww/Pn2X2kyO0i6mKOnSnmlpeTSclQfV9fjBJnmS+9JmLK2/kQuFdtY50OvngimraNTG45GJsdPp6ayVe/Z1c0i/l54GngK5RAc2/iEYeoCtT5lFpIgGlphAKdgM4OkdUBxaNV6USEaOnSwkT3lmY6NzcRFizKylf5ZnY270/J9JiIupg9R4oY978UZ+JfZwJXA8XScyKmvJWrUWJ51KuAG8K4aZB77u0FRXae+Syd+WsrlJnADnwLPIx3z7ePcQi9QCzE5usr+jyJHmiBssKpl+PPyMo+KJ0OWtU30q2lmR6tzNSqKvUEfYXTKVbem5zJrUNCPCqiLmbjnkLueiPFmYoVPwA3e+GLsSBiitooU2Dhajfo087M2/dHuWVZdWaOjQfeTWXjngrFRx0G7kSpmecL9AVmeIvnwYO8CLwgt5UKXbt9HZ/eKDnNKpWkOB3dW5np3z6IlvWNknrBiym22r1ikcGyzfk8+F4axVbVguoT4B7pQRFT3oQJJYaordoN6ibp+f6FWLfUBDt13so9b6Zw6FSFvLjfokxX+lqwYidgNkqy1EBhiUMECBVHixJn1dPx6UEll8epGqujT9sg+rQ106K+Ea0IK6EUZq/I45nP05wJ6XgVZSGRIGLKK/gAuE9t4xCLlp9fiqF6gutd+buPFHHvW6kkp5e7tl4mcDdK5nJfpTFKtvSkALme8hwP/EIEV6MD2vGP56oTlVjgOSZcS882Zvq2C6JdY6OkXRD+w0/zcnj9+wxnNnkYeEcsJ2KqsrkS+FXtOWk08Nb9UfRt5/oEz5v3FnLPmynklL8szHrgOuCgH/RLdWAuSo24QKArsFJuLW4nGCUB4gVx1ayy7mdhwVq6tzLRp10QXZqZMBlFWAkKn0zL4vMZWWqb24FxwDdiOd982/MHaqEE/gap3eDGgcFuCTjfsq9CQsqOkkX7RryvaG55yUDJyt4JqBEA19QBvCNdhb9T5LD1fOAzx2czkAtUwYNZ2guK7Ow7Vsy8NXn8MDeHPUeLsdqgSrTOrfnqBO+nXWMT6Vk2dhwqUuvcGALsAPaI9XwLf7jSjY6HVzu1GzSva+SbZ6Nd7prful9ZyZGTVy4hlY3ijZrtp2PN5Hjjus7Pr6m5wCC5tVQqWpT6ggMdfdGxMl4cjXoNHZqa6N3WTK/WZiLDJOVCIGKzw5MfpzF3jerV3PkOUbVYrCdiypO8h5K8UhURIVomvxpLlWjX3lu3HyzkjtfKLaROoJRk2RoA4+1V4Ek/PsdsIBZJxudNRKJMBQ50fKp6XN1poW1DE4M7B9G3vZlQiwirQOHQyWKe+TydnYecCqXMQql7ul4sKGLKE4wApqs9D60GPnwkmq4tXJuYc+ehIsa/llLeYsWbgKHAqQAad7ejLAf21yQ+I1AS8gneec9r6Xh5GYqy8tej90GjXkPXFiYGdQ6iRyuzxFj5KVYrfPtnNp9Oy6KwuFwv2ckocYG7xZoiptxJdWALTiT6u314KPeOCnXpQZw4Z+WmF86TmlkuIfU7yrRXTgCOvYHALyiZsf2NH4Cb5PbiEyQ4hNUVQD/A4skfDzZr6NXWzODOFjo2MaGTkoF+waGTxTz7RTo7Kl5/9QTKopajYlURU+5Ah5LTp5vaDdo1NvHFE9EurcGVkW1jzIvJHDldrjxSHwEPANYAHn8tUWLEEv3svDKAeKBAbjE+RRBKnrChKDErHk3pERmmZUCHIAZ1CqJFPUkQ6ou4wBtVEvscz7pzYmERU67mOZRs06qICdcy5X9xxIS7TkkVFtm58/WU8mY2f5vALgp8MdWAP1CWtvsTQ/HfxQSBcm9sA1zl+NTz5I9XjdUxsGMQgzsHUa+aQXrDB3ChN6okNqOUXcoQS4uYchVdgL9QGW+j1cLEJ11bwNhuhyc/SWPO6nLV2nsTeEyG3r8IQ8kR1s+Pzulb4BbpWr+h2UXCqqknf7hukp5BnS0M7hRE1ViZB/Q23OSNKollKOEReWJ1EVMVJcKh0Guq3eCuK0O580rXhuUs3ZTP/e+Uq9bw68ATMuxKxIAy9TneT84nA2WaKFu61u+o7xBVV+JE6aoK36w10KKukYGdgxjQIYgoSbVQ6bjZG1USsx3jrkisL2KqIkwGrlXbuG0jExOfdG2cVHKGjdHPnOd8mtOhTv8HPCVDrkwmoEyD+sMr+N3Ap9Klfk2Ni4RVJ5QcV25Hp4POzcwM7x5Ez9ZmDHoJsPIkHvRGlcQPwM2ATXpCxFR5uBX4Wm3jyDAtv7waS1yk657JxVY74/+vXHFSnwN3ynBTTX9gCpVc2NYF7AaaoGS2F/yfGGAwMAoYgOJtdTuhFi0DOpq5oouFVg2M0gtuxtXeKJNRQ9UYHUdOFztTGPkT4B7pDRFTzlIPJR+TqvovGg18+HAU3Vq6tu7eG99n8OM8p7MYzHS8uVpluDlFI5TUEXV8/Dz6AoukOwNSWA13XPt98FBR5gY1DAzvbmFI5yAiQmUa0JW4yhtlMmpoVNNA6wZGOjQx0aqBEZNBw9RFObzyjVPx5S8CL0jPiJhSixFYhbKyRhVjBofw8PVhLj2IvzblM8H5OKk1jhtprgy1chENTAN6+PA5zERJ4ikELuHAMGA0itfV7clqDXoNPVqZGN7dQpfmZslfVUEq4o0qTTyVxMSZWXw0NcuZ3U8APpAeEjGlhjeAR9U2blrHyKRno10aQ5CcbuXqp86T5lxizgNAZ+C8DLOKPRdQXNq3+eoLLVAXOCJdKaCUGroGuB4lxsrt9+CYCB1DuwYxrLuF2lX10gPOXLzl8EY5I55K4q0fM/l+jup1KzaU+KkfpLdETF2OXsBCVAZ1hli0THkllqQ4172G2e1w95sprNrmVP7FNKADsF+GmMt4AHgL3wxM/xoYJ10oXEIth6i6HmjsiR9sXtfI8O5BDOwYRIjUB7wsar1RFRVPJT1znvsinVnAXuiiAAAbeUlEQVTLVU9oFKMsgPhdek3EVElEoBT+ra52gzfvi6R/hyCXHsRP83J4/Xun5rFtKC79P2R4uZxBKCs6w3zsuK0oeYqkxpZQGi2BG1CmAt2eed1k1NC3nZnh3S20a2xCK4sB/7lYy/BGuVo8lXYMD72fyl+bVNdLz0PJQbVMelDE1KX84Li5qOKqXhaeGxfh0gM4dd7KlU+cI6/AqWDDF3AiO7vgNI1R4pDq+thx/waMlO4TykCLUtz2BpTg9Uh3/2CVGB3DulkY2cNClZjADq4qyRvlCfFUEgVFdu5+I5UNu1XPimSglEPaJJeRiKkLXIOyNF4VNavomfxKLEEm157Ona+nsHq7U9N7f6B4pST/h3uJBH5GWX7uS3QGVkv3CSoxoXhjr0cpT2R2549pNdClhZlr+ljo2sLs0vx83s7F3iiNlkoRTyWRk2dn3KvJ7D6iOkfnOZQ6fvvk8hExVRXYDkSpaazXafj2uWia1nHtyuNZy3N59vN0ZzY5CzRHilF6cuw+j1Kn0VcmKZY7vA6C4CwWlOLLY1Cmc9waSR4bqQStX9M3mCrR/u2tOnneys/zczDoqXTxVBLpWTZufTmZQ6eK1W5yAugKHJXLJnDFlAaYi7J8WBUPjA7j1itCXDt4s20Mf+Qc6dmqHUx2xxvkPBlSHuda4Csg2EeO9zqUuC9BKC8JjnE0FjfXCdTpoGdrM6N6B9OhqX/GVtntSm5Cb+Z0ipWbX0zmbKrqdIW7HS9uyXK5BKaYuh94X23jNg2NfPlUjMvd0a9OyuCXhU4l53wfZbWZUDk0B2YAtX3gWFNQsqKflW4TXEAbFG/VDSh52dxGtXg9V/a0MKKHReoCVgLHzhRzy8vJpGSofsnfCvQE0sV6gSWmGgEbAVXL8cJDtPz6f64tFwOw/3gR1z5zHqv6fOW7gdZAvgynSiUaxePT1weO9VeUkiOC4CqCUJbH34qSUsZtaseo19CnnZmrewfTtpGUr/EkOw8Vcfv/ksnJV70oaglKiSN5PrkZb5kM16NUw66hdoOXx0fQop7rL+SnP03n2FnVSsruuIEdkqFU6eQBP6EE7XbBu+OoGjtE+E7pNsFFFKPEmn6HktfsHIqn1uWrAa02OHCimFnLc5mzKo+8Aju1EvWYjZJfwd3ERepoXtfIvDX5WNU5qGqheO5/RRZGBYSYegElBkAVI3tauG1YqMsP4q9N+Uycme3MJhNRsnML3oEdJcnrfpQYNoMXH2tPYBJSakhwPZnASuAjlEUPepT6pi4PWs/ItrF2ZwE/z8/h+Fkr0eFa4qOkdo07SYzVUzvRwIL1eWoLIzdAydc4S6zn32KqDfAtKt3S1RP0vP9glEvLxQDY7PDoh2mkqi8Zcxolb5C4T72P7cAclFVPEV56jMGON8afHSJQENzxcnEYmA58DBwD4oBEV/+Q1Qp7jxYx469clmxUbom1qhpcfp8WFGon6omP1LF0s+rHT0uUZMeySMpPxZQJJTdTFTWNtVr44KEokuJcvyp4zuo8flnkVND5XcB6GUJeyxnge6AF3pvgsy7KkvcF0l2Cm8kHNqB406cBBY7x5/JVsCkZNpZtKWDKwlzSMm1Ui9cRHiIB666mUU0DZpOGNTtU50LshDIdvFys53oq+7XhVeAptY3HDg1hwrWuryRitcKIx89x7IzqPB7rgI7iUfAJtCi5qJ7FjUG5FeQGlHiv0qjmeLNs6HjxiEVZHn9xPEwhkIXiMT0CHEdJ3Lce8Z4KJWMErkAJWh/krpdrrQa6tTJzff9gOjQxeX0aAl/j/SmZfP27U+EpdwOfiuX8R0y1RckGrcrNVL+6gR9fjMHohmRqvy3L5fkv0tU2t6NkmF0pw8enGITiqYr2wmPLQ0myt8lxTbZCWYHT0yGiKnLMBQ5BtRwlfYR4U4WSSAJuB25DSZzsFmon6rm+fzBXdLW4vGJFoGK3w8tfpzNtierwS5vjBU7y3fmBmDKhpEFooqaxQa/hxxdjaFDD9fHENjtc+fg5DqvPLjsVpdyN4HvUdPRfWy88tmMowfODUDntXU52oAS+fweclyEhXIIepSTWnShpRtzyjAi1aBnZ08K1fYNJipOA9Qo/x2zw2EdpLFiXp3aTImA4Smyp4AIqaxS/gpJSQBV3XRnKgI5BbjmQJZvymbxAdaxUMUrx0VQZOj5JOop3Kg5l4YM3EY7ikQp18+/EoVQYuNNx/W9w3FgF4YLXYrfjOvkJZfq4AUpsn8soLLKzdX8hk+fnsOdoEZFhWhJj9TIFWE40GiVT/faDRZw4pyq1jw5lAdVSlJAAoaJ9UAm/2R5YpVbINa1j5LvnYtC5SfaNeTGZrfsL1Tb/DrhZho1fcAtKWougALfDSeBhnCgsLgQcZpQks3eiFOt2C3WSlCnAIV1kCrC85ObbGf9/KWw/qPqZloZSdmaHWM+3xJQZJS6kkZrGJqOGKa/EUquqe2p6btlXyM0vqS5dVOw47gMybPyGFigrm+qIKfgSpZxTnphCuAzNHaLqRtzkRQ0LVqYAR/cNpmqsTAE6S3q2ozDySdWhKydREh1LYeQK4OmR+gowQm3jB0eH0aO12W0H8/6UTPYfVz3gvgO+kSHjV5x19GtjlKmMQKY10AMlJ1GBDA3hMtfMHygJQY+iBK4nuPIHChxTgD8vyGHvkSKiwpUpQEGlx8KooXdbM4s25JOVq2rBeRhKrOYUJIlwufGkZ6o1sBaVq/faNjIy8akYt1UpT820MeD+sxQWqxpsdscDd48MGb+9Dh5FSdUR6HftTSirCLNkWAgq6YiSd+8alNkHl1M3Sc9Ng0IY3DnILSu6/ZFjZ4q5+aVkZxJRrwd6A9liPefxlGdKj5LKXlXm3SCTho8fjSbCjYnefpqXw6rtql/A5wAfyHDxa1YCc1FWMEUGsB2qoKRjmIzkURPUcQL4DcVbdRilHlycq19+/9qUz7QlueQV2KlXzSC1AMsgPERL52Ym5q3Jp6BI1aWc6BDGUwCrWNA7xdRjwE1qGz95cwSdmpncdjB2OzzzeZpaFyjAPUgx40DgFPADiheyfgDboR6Ku19yqQnOUICS8uYzlByC0SjxiC5TPXkFdjbsLmTKghzOp9uoWUUv2dUvQ3S4jhb1jMxdk4dVnTyqhZIZf4a8THmfmKrveMtVNX3SpbmJR24Id+sS2U17C/lhrup0CDtRpoCEwCDPMV6zgV54TzFwT9MV+AVJAyKUj4PAj45rSYOyeMdlb8jFVthxqIjJC3LYf7yIhGgdCdESrF4SVWN01K9mYP461YWRmwJRSA4qrxJTGscNuZ6axqEWLR8/Gk2oxb1vGl/NymLXYdWpdV5CKR8jBBarCOxpP73jhjpdhoJQAVIcD+WPUMoc1QNiXLVzO3DoVDEzluaybHM+JqOGuokGtOKs+hc1q+hJitOzZGO+WndTB6SOn1eJqTuB+9Q2fuG2CFo3MLr1gAqL7Dw/MUPtHHI+St0qWS4emJxCSV4YqKv9mjjOP12GglDRWy/KFOCnKIsc4lCmlFw2B3E+3cbiDfnMWZ2HTgd1kwzodRJXdYH61Q2EBmtZuU11rHAvxz1wk1ivcsVUIsq8q6rVHX3bmbl3VJjbT3jplgJmLVO9+vNXlBgaIXC5MO2XibLSJZDmErTAOXk7FVyIHdiLkpJkGooHtBHgslphGTk2lm8p4NdFueTm26mTaMBiFlEF0LyuEZsNNu5RldRTg1IjdDuykr1SxdQPKEkRyyQiRMvHj0V7JOvtxJlZzuSWeggJPBcUVgPzgX5ARACddzgwUbpfcAPngNkoAetpKPG14a7aeX6hnY17Cvl5fg6nk61UT9ATGSrzf+0bm0jLtLHzkKpQFy1KDb8VSFLPMpWnOxiJE7EWL98RwbBuFrefrNUKve45Q0a2qrwbZ1C8azYZJsJFRAJf40TyWR+nGCXTdb50veBm9I7r6n6gm8sfdhro2sLMzYODadfYFNCGttnhqU/SmLNadQRLBkpS360yTEvGHZ6pEMfbhqo3jA5NTDx8fbhHClxu2FPA1EWqp/i+d5yHIPzrhRclD8t5lGk/g5+frxYlh9Bp6XrB3c94YBdKpYnfUUJEGuHCRLrHzhQza3keSzflExKkpXaiISCLK2s00LONmV2Hizh2VlXOBDOKh2o6EkNZ6o3S1bwIVFPT0GTU8MzYcI8N5iUbnXq5nibDQ7gMn6AU7Q6EAqHx0t2Ch9mEUoy8OvAcShkbl7H7SBGPf5zGsEfP8eviHAqLAi+lkl6n4e0JUbSsr3rRVxWUlZnRMjz/i6s9Uy2Ar9SKtHuvDqOnG2vvXcob32eqneJLRlmFKFN8wuU4B0xCSSHQzo/P80+UIFRB8DQ5wDLgQ5SYnfq4MLVCZo6NZZsLmLFUycFUr7oBoz5wXFV6nYa+7cys2FpASoaqx10M0Bn4GSUEQHCgdfG+PkOlS7Z+dQNjBgd77ETPplo5ekZ13/8pA0VQSR5wN0qcYIqfnqNRulmoZAqAL1HSdQxzCCyXkZxu5d2fMxlw/1k+mppFWmbgvEeHWrR8+ng01eJVz6Z2RVmNKdH8bhJT41Hq+pT9oxp45tZwj+YAWberwJnm82VoCE7ym+NGP09MIQhuw4YST9UDaI0S2+qyF9+sXBsTZ2bR//6zPP1ZGsfOBsY7dUy4ls8ejyY2UvVk1SjgTRmO/+Cqab4YlMA0VUvyrhsQzFW9gj16oj/MyWHvMVVLQe3AvUjlbMF5clBKaKQBffCfnFQzgS3SvYKXcQYll+H3KJ6rZqjMa1gWVhvsO1bM1EW5HDtbTM0EA1Fh/u2ICQvW0rm5mXlr8igoVBVD1gklGH2tDEXX3ew/dRi2TBKidbw9Icrj89Jv/5RBZo6qAbIFeFuGhlAB1gILUVb7+UMpGhFTgjeT7rjevgCyUCoWhLhixzb7BVGVw96jRSTG6YiP8t+8vVFhWlo3UAojF6srjNwfSeoJuCbPVGeUhF6q9vXBQ1H08GDQOUB6lo0ed51R2/wd4GG5PwkuINzxojHQx8/jHpSAU0HwBUzATShJlxu5euftGpsYNzSETs38N1fVym0FTHgnlaJiVQ6IPBRP/GoRU+VHC6xB5Uqm/h2CePM+z7+oL9+Sz71vpaptfg0wVe5HgiAIPv986wNMAK5w9c4bVDdw0+BghnS2+GVh5cUb8nn4g1Rs6mLxU4AuKKWCREyVg9tRXKtlEmrR8tsbscREeN5F+vmMLD6ZlqW2eU0kbb4gCII/0Q54BLgKF8cy1kjQM3ZoCEO6BGHws7QKvyzM4dVJGWqbn0JJupqDUtgalAUDF3aQgZIvLBkl6fER4DCKZyugxVSkQ4XGqmn87NgIru5tqZSTnPBOKn9tUpWw8zRQVe47giAIfkkt4EFgLODSVVDxUTpuGRLCVb0smIz+I6omzszio6lZ7vyJc8B+YCewGyUR8kaUhTwBIabeR6mhVCatGhj55pmYSkvbP/Thc2qXuM4Ghsr9RhAEwa+JcTy/7kFJuuu6HYdruXlICKP6BBNk8g9R9eYPGfwwN8fTP7sfWI8Si7UExevltanqy+vubIrKTOdaLbz/UFSlTO8BFBbZeefnTOzquuA3lFUhgiAIgv+S63hAfwqkoqRVCHXJjgvsrN5ewLS/crFaoUEN38+q3rmZmVPJVrXphVxFtKNfBqMkRr4LaAsEASfxsunB8iqcn4E6ahqO6hPMyB6WSjvBw6etTFmgWlFPRKpiC4IgBAqFwCrgI+AEyuo/l3iq8gvsrN1ZwK+LcyksstOghgGTwTdFlUYDPVqZ2XusiCOnKy2RaTCKI2ckyor7Pigrpo/iBXkhyyOmrgCeVtMwPETLuxOiMFeiq3PT3kLmr1UtYP/PoXgFQRCEwMGKEqfzMUoscH1cVOC7oNDO+t2F/LIol/wCO/WrGzD7YEyVVgu925rZvK+QU8nWSj8coAZK2pkHUVYSah19VylqT1eO9tNRGXT+4HVhtGtUubk4Vm7LZ9V21aVkHgPy5b4iCIIQkNhRklB+BmxAWd1dzRU7Liyys3FPIVMX5pCdp4gqX4upUgojB7FqewHJ6V5Tv1CLMlM2EmUqMBZllWCqpw/CGcahZJctk9qJeq7pHVzpVj6bqrrDs1Ey6QqCIAgiqmajeDy6Of7ukuDnnHw7X/+ezaAHzvL69xmcS7P6lGGCgzR89ng0tarqvfHwolFSYOxFqeHY3lM/7IxnKhjFK6UqSO+N+yKdqULtNn5blsvBE6q8fkdQ5s0FQRAE4QLHUOKEf3c8rBviguohxVbYfrCIXxbmkpJho241AyEW38j+aTZp6NHKzIJ1+eTkeeUCOw3KVO3tQEdgH0oeLLf+oFqeB15Q07BvOzNvT4jyCove/FIyW/YVqmm6BKWWmiAIgiCURgOUkJAbAaOrdmrQaxjePYhxQ0OpGusb9f8OnSrmuc/TCQnSEBWuJTJUS2SYDotJg8WsfEKDtWCHrFxllqigyE5mjp3kdCvn02wkp1s5draYU8lWtavuy4PdIYifRnGcVJqYSkDJ+VBm8UiTUcOM1+NI9JLBMPKxcxw6pcozNRm4Tu4TgiAIggqqoawquw0XJgDV6zQM6RLEbcNDqB6vDxhj5uTbOXC8iP3Hi9myr5ANuws4neLyKdB84DWUxWaFrtyxWjH1AXCfmobjR4Ryz9WhXtNB/e47q3ZOeiIwXu4PgiAIghPEoNT/uw9lqb5L0OlgUKcgxo8IpUaCPiANe/K8ldXb81m4Pp/1uwoptrrMdbULZQpwlSfFVBKKV8pcVsOEaB0z34zzqmWfnW87TU6+qg54F6XKuCAIgiA4S4RDVE1AKbfmErRauKKLhdtHBJan6lIysm0s2ZjP9L9y2brfJU4lG/Aq8CJKaoz/b+/+Y+Ou6ziOP7/3q3e96w8GG26u7ZijZWzghOFYJnEQFspmRDNCdAgaiIaJJk5N+IcQTTT+jpLg1BE14jAUTJiazcy2RPaD2dEpK1u2sYFQNllX96tr70fvx9c/PrdkwbL7XL9f4Hr3eiTfpLncfZN++vm2r35+vD/ewq/Fe74PLLW52cP3NTN/TrhiGr/gwmN/tD5TqAezbkpERKRcaeB5TFX1MeBawHPFateFQ4NZnu4d49hwnvbWMI3xQM01bjTicNWcMJ9eXs+Kj8ZwgCNHc+QnH4Mc4OPAcqAb8HQAYakw1Qb81iZ0LbgizEP3NL1v5+9NJJtz2bDJujDqVmCHfh+IiIgHGWB7MVSdBT6MD2uqXBcOvZGlqyfJ8ZN52lvCZnF3DZrWGOCmRVFW3xwnFIRXBrNkJ1+qsw1YUwzCk97xVyok/QjLOg3feaAySiFcKFeAx/9kHab+DmzT7wEREfHBOLATWA8MY86Za/R604ILB143oWpwKEd7S5imRG2Gqlidw5IFddx5SxzHgf2vZclPrpZoArgb2IepUeVrmGoFfmMRuFiyoI61qxsqrqHz5YWp7cVAJSIi4pcs0IcZqTqBmf7zJVS9MpjjmeeSDJ8p0NEaJhGrzVAVjTjcuLCOzqUxBo/neHNoUnN/EeAuzBrxfX6GqYcxlV8vynHgh1+ZxoxLKq8uRj5fVpjaCTyn515ERN4FuWKo+jnwFmakyvPuv0LBjMh0dSc5dbZAR1uYeI2GqqZEgFXL6pk7K8Seg+OkMmXv/gsAdwD7gQN+hKkGYCMWO/huWRzlntsTFdmwAcdhwybrNWX9wN/0vIuIyLv5fz7wImb6701gIT7s/ssXYN9rZvrv9DkTquqjtRmq5s0O84llMQ69kePYcNmjVAHMOX+7MGf8eQpTa4FPlfqw48D3vnwJ05srs1qr48ATW0ZtF6YdBjbpORcRkfcoVP2zGKr+DSwAPB8dki+YY2q6epKcHXWLocqpucatjwZY9bF6ImGHPQcz5VZXDwKdwB+w3OUXfIfXNtok5ZsWRfn8ykRFN+hT3UnbOlPHig0nIiLyXikAL2HWVB0B5mMKgXoLVXkYODJOV88Y55ImVMXqaitUOQ5c1xFhycI6duzNkEyXlajiwNXAkzZvnmgM8GZgrs2Hv3hHouIbM1Fv3Xmm65kWEZH3SQ74PWaEag2mSrdn6XGX320eZeW6IR7tGuHMuULNNeyiKyNs/NZlzP1g2RUHbgfutQpuE7z2a+A+m8TXMAVOuB5NFSjY9Z23gFl6nkVEpAIEgM8Aj2AOV/ZFPOpwd2eCe1fGp8TfcD+NjBVY97NT9B8oq4L6CaAdUzPMOkxFi6GiuUY7bxMwomdYREQqRBAzUvUIMM+vmzbGA3xhVYI1t8Vravovk3X52k9P8cJAppyP/QT4Zqkf0oU6sRiVqmLP4qECqoiIiM9cYACzpup1TJ0qz7v/MlmXvv0Znn0+SSjk0NEWJhSs/lAVCjqsuCHGy69mOXrCeqffYsxa8jO2Yep+YFkNd9ptxU4rIiJSSc4vVF8PDGKOqWn2etNUxmXnQIa/7EgRqwvQ3hoiEKjuUBUKOtx6Q4ztL2U4edZqHVAQM3O32TZMfQmz+K1WHcYceCwiIlKpoep8SYX/FEOV5+KfoymXbf9K89ddaZoSAea1hCvqrF2/hUMOy66NsmVXirRdcc9rMGcVn7MJU5/Dx4VuU9AYZihPRESkkuUxxabXA0PAIkzBbU9Gxgr09qfpeTHFZU1BrpgVqtpQ1RAPMH9OmM07U1jEqRBmx2WPTZj6bI2HqUbgx3pGRURkCoWq3cBjwFHgej9C1emRAlv7UvT2p2luCPCh2eGqbLzZM0KMplwGjljt8JsHPIoZHVSYuog4sAEY1fMpIiJTLFTtAX4JnMaMVMW93vTUSIHu3Wn69meYPSPErOnBqmu46+dH6N6d5sxoyfVTCcwU60GFqdJ6MVVoRUREppos5ly5X2BqI30EqPd60+Mn8/x5e5K9h8eZMzPEjGnVE6pCQYeWy0NseSFl8/Z64Km3v/j2mdAnMRU/a9m3McN4IiIiU10D8FXgG/hw9h+Yot3Lr4vy4J0NXNlSPdN/D/zgJLteLll/Kl1sx9TFwpSIiIhUn0bg68C64teeBRy47cYYa1c30PaB0JRvoP4D49z/3f/avLUT2KowJSIiUpsuBR4CHsSH6T+AYBBmXlod037HhvO4pbf2layILiIiItVvJmYHYAZTZV2X/bVX3UdERETOawV+hVm4rqBkd2WBiLqOiIiIXOgq4AlMiQUFptJXh7qMiIiITGQh8DSmMKVC0ztfn7yw0QLqNyIiIlK0D7gLWIqpuygTa1eYEhERkYvpA24tXv9Qc/yfyxWmRERExEYvZpRqBeYoFZmAwpSIiIiU0gMsxkwBHlJzKEyJiIhI+VzgGeDqYqh6VU1iqAK6iIiITEYEuKZGv/ch4Ki6gIiIiIgP/gf0X2YDih/YDgAAACV0RVh0ZGF0ZTpjcmVhdGUAMjAyNC0wNy0wM1QxNTozNzoxMyswMDowMDWX/1UAAAAldEVYdGRhdGU6bW9kaWZ5ADIwMjQtMDctMDNUMTU6Mzc6MTMrMDA6MDBEykfpAAAAAElFTkSuQmCC;fontSize=20;" vertex="1" parent="1">
          <mxGeometry x="1370" y="620" width="112.27" height="80" as="geometry" />
        </mxCell>
        <mxCell id="p6dHSxEKcSRuwTVCDza4-72" value="IAM" style="shape=image;verticalLabelPosition=bottom;verticalAlign=top;imageAspect=0;aspect=fixed;image=data:image/webp,UklGRrpEAABXRUJQVlA4IK5EAAAwNQOdASpABkAGPmEwlkgkIyIhItEoCIAMCWdu9T/t/tYZ0vywgbHBv/53ksG/q++rcHfqxSrwqgE9ldz+E/pX7Y/v/8b5pOufkt+Qf3CcD+J3dHvr+QH3p6jvp3k36N/sv8H+P3z1/zX+6/Ir5Pfpv/te4B+mn+d/vX+K/XbuSeYD+q/3r/vf5X3hf+D/vP9d7pP8f+OHwAf0b/Af/P10vZI/yf/f9gf+e/3j/r+uX+0vwqf1P/Zftp8EH9E/wv/89gD0AP/B1//W7/RdsP+S/s/VTfAJW5yP8n+9/87+4e2/+h/4Hg38wdQj2R/qfy34ObcPMC7u/8v+8ett9L5reIBwNFAL+Uf4D1bP679qPQH9Rewj/Of8B6Z/r+/b7//+6D+3X//BzCi3RH1k96lwJp8j/Ci3RH1kTHD+rtnD5H+FFuiPrImOH9XbOHyP8KLdEfVs/6yafI9ulyI+60jrh8lmkA9nd3bOHyP5beMNIPUZHLc3q/1wvUgNlAGVr2P327XrImOH9XbOL4H1kVYf6i3RHraSMjwot0R9ZEu7u2SK2zjaXyMZV5aC6Xanc+IyqQJDB9X59RboYu7ZGTlyoYPrKNadz4jLtnD5E+bmfiq+WdbT5LWbWRT10eHt0Q/8ifN0R9ZExw/q593bT3FbChKLT4mm8o4m6I+siY4cUmnl5NV86svz9VeVe+ghm8+IyqQJDB3x9RMcP6u2cPkf4UW6I+sfRF+Iy7ZGR4UW5n4mMUJd3m8fWREw1Vktj3nxGVSBIYL5w8kMH0tLGRl209vV2zwm9W1dHraTh8j/CO0nCvjDZmVZH+EhQco7XrgvnbCkeFGHqW7Zw+SGWiY4l08KLdEnox+W3jDR/hRboi+dsxlHgpLbv2zhY7PuNUu2jtJtXR9Y+iMu2cPiSWRMcmVZH+FFtFMXE/q7R4f4UWz+Mugv0Sd5LI/vzFk5man0e3RLu7trkty4n8+Iy7Z0vpNUwh/5OIr85n4l3d2zhVgoSi08vJJ4jLz0APhqY+A708MotKsFFutt7Jw+R/hRgh/kYY4f1dzbnhlFp8j/Ci3RF87Zz/LDHEBPoj2KDlHahIP+Jd3ds4V6uHyP8LE4PrImQNE3RIAuuC+ds0+R/hRbmfiYxR7tu17qxdpSXfKqji9HaTauYu90HVF3bOHlHE3RLDN4vndWlr8F87Zp8RWcKLdeIzYC7T52TmMHsUHKOzzN9j+FFcTidWkVnCe/yjibmghpSG6JjjzEheboj6WkxKQByQ9bV0Xzsq1H9+YsIcH0QGq0f4R3Wernojkbc2dJL1ECbhu8T+s1kV9N6If+JJX1ui3PE2fxfiMzsW3zVmwpLt4e3RMcOQlhpYsGj2dHG/iWZOHxFYxAkMXdFtF27u593PHXmnoH4r0doLx2oRtzaADvIJTtp2ZiApNK3lzSG6JeRs3M/ER7zzSPGY5icegcUmnyPZ0a0XcYaPbnxpHhQqBLij0NmK5gmpiAFqKuKkZho9uiYwaawSi7d2za/qyi00+R/hG4ANk/qqQGq0Ukv2yUJieotLkR9KlSj591pYsDGHXosaDD+Uacw7u1pD70teaegcUmnyJou14jLn3c8derzPeZZ4qoMrqS3ChORDMrkhBHbHd2tHs9LGCpGe9KdvIGYyRdrxBr0dpIfTQ12vTBtvmhfEdol3d44FUCTT4ixh2c0p/NDK1sRiNkaTaUqtc0LzdEYFrJJY+iMqkBqmhrtemDbfNDSdWUV3xE+gZDx9RNPZSfoAK70qyhWtF27rxGVKUf1kksiXhMW54m6IvnZHoHFJq9AQ0gHJ1m1kU9dHrjReONSMXKkqwulyXNXiMqmlkQ4uklA5H8KE5Ccegf1c+7tHh7dLkMXc8lMrrNC83r7eD2q8ZUpXG008s12mhleL8Rlzx59nK2IxIYu6LaLuOH4r1Fuhi7zy+dkeYbtrhevKqru0eH99UpOwOaur4CpGYaPZ6TSmwRtnOKuSF5Ji2i7d3c+uX60e3S+RG0xK42xsi2kOEGuivEGu548m1ZOdb9VFD7GxDSq+Pwr6muUYTadFum056vQbinLEnl/EdpLud02nRsIcOerdhbLqcrVjOqWJPMJtITYTadGwm06NhNpCbCbTot02nRsIcOer0G5vywvZhNp0a/ibQ7jMSNYGIx8aG6IgOTCUHjYaTaui+cPGqbq6gL7w7NEK3/z6i3RIleqpAkMH1j6Iy7Zw+R/hRboj8zNxxCgEpfmRAUNyvKpVmm+lddXlWnzsjzG324ha4oyGeWAABv6Yv00Mo/pjDroHYUf0xh10DsKP6Yw66B2LGEHsK4qJrAIdcwhn2ivEFxq/mKNZzD+6/DFizM9CNUBj9CD/bEe9AoNvyxJ5hNp0bCbTo2E2nRsJtOjYTadGwm06NhNp0bCbTo2E2nRsJtOjYTadGwm06NhNp0bCbTo2E2nRsJtOjYTadGwm06NgQ0Pqp8Kaji7saZ4h4ubUPtVxrH4CkOAtDKSFRdyf3PDxl0dBfnjC36Ci3QwKk6Xno2eER9ZLjL/sjej6yJjhwe0VsgrxguJM6PrwJzNkXSUxrh/KRB9ZJJa24IkmWUBCsQfRGFRoLwylLpBxUJkk4RrRdR4Tj0DikxWPeZkQWqGaC1o9GhjXmB3f8iaLo7vE4rbckHvKAlEdiirXPDFC6oo1IRc8Mo1MO+gVIz4O3deINejtJGRyQ11AoWn3w1WSTGngcjs846K5oXwKVAxx3sA8zYucABK//2AmXSfI0nH5vsqLP+XVCB97wOMrXnCHGAzQHWb5TZF0lMitkdlt4w0e3RD9NEb1tpF9FdgKLeSFoVGgvDKSF5bQacNSuyO3Pr4Sv5jgbb5lz6UUb5yXYC0tLPYqBOPD4jKxCA/VNC8trRRWtk1ytzdEerX+DoqVBA70+xl442IeSVomi6O7w55y99cy+I515Qj18VfpNvmWM9xFKeqlSLBzC3czfC3G4G0BirKJNi7O105B5alK+3+y2O8+aVxrOYwfWRDf4OinIu69uywOFKTt5+ZH9XVEpjWyNKU6lpEmdLFLbDEBoTDkbFJXgy/7phGl/+5+ITqZDSOoBQ1w9qc3BKMaV8FdbSbGlDycSc0Ly2tEz32Zw4pMV0XOOpCKR9zsgZRbvGWnFCONVkU0CmhB+MBVo7O5PLB25djrAACbY6fsJGqm3adSNS/RjnI14l+c/Dc3aO7wjkiZRbvE4Rxt+iGF5cT8V2fHKDk7nYae6K6rxlUfaLpxYwjV1UOjbWKjdNinGHaxEQQFcz/iKeroGi7WP4AuiFvan1Gd6nED5tAdbedSrthSnMTnMXi6o+uq1+p4Si08vJJzATcWph8RWLSiK+NTCpkEyy6deuzxAyr+4G2x5cCsis4SBM4lCqB5WLWAKBIQCHJaGV4y8aEa0Xbu7nipXW2vDik08vJJzSO+3g+oRFtAqV1trxEpGn2qLVWOwpIJLlZflNuX/+pw75PmLGJC8FdiSySWRLwmLc8S2mMKldSGrfKFYI7ScTDJHCI86TFhl6hEWzw3GTmXg2Xhp0KUjJ59r1Zfnx+9PpjmU98qF4MPdJTIsPmDgHAJX17hMYvsyGvJ/PiMzWCG4ro9XBXfnkpQ27Telh9dPByGvgN4xHM7r7Ub4Ua2k6a9cMYqUyLD4l6BwCV9bdVr9VsIPfVgorrLeM/Eu7zePVr/CmPaO7vMHhmkzgAJxCRB90JTujmXepAq4Rf/qh+y+7qG7O6bTot02GSMV2nx8nkg1cZXwTyC1tsRD2YdsTYacy6S/WSTP7VXhLik0q2MPiKBUdEdV+M+1UG0i1rR/MRSZ98EHlTzh7dF8pNxNncqgTnPKDb4M1juybtsnEo5l3pSkhebsCCWifOHkhBvIYLED11jHU8JSgHLvweKNfHDIisPe0UDYpa6uFkM6OH9XbINrw36rX56dFnqPNaTUrsjs6EW7zePVsWX5eN8TGAKjoiirMbhG8Qgk0eCoyqgIig5lPeiHCyE6RTkAXNT8gtj1lPE8wm06NhNpz7yGtzlRqEz9usJr/6OwIbmrh8J+CgL5wnsWPxMb59YxAjZHWXBUcNyo59h+v9i82N4QD3/fc7AtwBa7Ebhvlyr53/PhJ5hDYzPQ8muan4okH/gqVyPhEK7xmGzfm4bL74rJBXjhnjBwxGlueK7hRW0JvPJ8rVL5zKakw+R7OhFsl6itpoZXi/EtU5lNSnULSfdTuEbHRS/sdf7g/rm1XDD4cNVpi3HOLmY3WR7OjXOvwAkPB766PNmcoSGD1bCuNpp8RTQNppVhOV8alt1Xs9RtD5H+FFuiPrImN7dqxAb0RMNa9KhG8740jwj5IuajUNo7u2cKa6Nc8TczCNc8S2xZK4+tQbK1T4nwvrmo5JYuL+JzE5Yk8wm06NhNpz1eg3N+WJPMJtOerxvnEk2C23a9kY3mYw66TzCbTo2E2KhbJ+Unxy99HO6r0TUYwnmE2nRr95l4iBRy/Va/VbCEW7ueOvNcxg9WxZfl8XaldbbyAcu/AdzpKaMFp/ysvetDGhvz4Uaxnpw7XD5HsIy7L6ni3Mjw2PR5szk7RdOLouxgJvVSrKFa54lpzKak8mhAuXlcuJub3Ejkpwwiod/20wjVP9mmXaWFWwTUkzjqcsjVMZok8W6IuCX97u+iYwBQGBTmU1Jh5RxN0MDr0WnkauYByPyQ27UJrjbZRoWKo+siQUth/mMPkqklgZ3ooe6NVLmuxCb4gTeG83wKV7tq5qfkFzU/ILmo+RHXNtyTSDRZ1SxJ5hNlGJQ2DhUg6Dx5skLQ64wu547vE/DXkUimK4n4a808wCo6I7yNVBpHZx0Akqxm32eUp2NAB0W4wj4hN1DOQ5qZQSWCquo5GvDgYRaScVw8Nu/jLtnD5uNkZHkJeQGx4ZIunm988P5RpzXbslO3jh/PMA5BUJPrSK1FAcu/B0lMZCts4wRSjwnzFTYeo9VxCPJauURQogYw0mHxB0qDK8ZVH4MaaeRiZjw12upSuttcGjhiMNk/Fdt2vWRDhXFNCUFtJzPDNK7AGsfihCxD/Vn/Jnch5Cklxs7YwMd/gzQklIxs2fmzJf2hBGFuCMChAS/S8Cle2aX2M2jqco7Q12nBUcMny7UMXdouavEZdo8P5bd2O7pzKakERW222ebwUWRDUJ9Pi+USInUfywg2obdBgF5NVEB0qGrPJcSy0YBNc1zUoWk68+Yp0N1nYoNo7pqmE2kJsJtOjYQ4dGwm06NhDh0bAVPvhDrukjvnwn4Dscz3ntUkjwotn8Zds2lH5zKak8mhAuZd6UhtbBKQSE++roWcwqvjafDXiB30y7/JwuYS2GBetH+YiMbOHyP8KLZqC+NCEWobdqBYi+aRyjWySWkxXR9KjWgVK622Rh4XUiqiujDHe+NHgKcMjkvgKWa9hHuJJUqofgk8v3I0NkUNy9vxzLn9qC9tE8HmrZffliTzCbDJGIBgXt+WJPMJsMkYgGBZDWvuqaoVKsn+E/BPyvzMUmJR/WRWdk5jBdoFNCUF4DYKWwaHXj6WbW9U3HqBX2YJAlSLm9SbnRD45jZxf65cdsYsL/8+a/V0YTvUYznlyR3HckRmXT89185mJzlZGkjI5SLCildbSKk7bZq63yPcGwS0LoHDUbUmHxB0rRu24ewo/pjDr0WnxJLPIFSuttgMxki6S9G4ARtzczFJp8QcympBEVttso0LEbFmTaYUPqN8BtKVpHpOy2WhPL+JzEliHODpC0Wm6qe+Ea0Du8UBPP5zcGGzkOqjxDBdjQqNJECbz4jKpAkHv1Wv1RGnlCfTYcQlupMZNwQa6GATe+TCZ3bivU1BLj42CVHfVcVItjrzXMYLtEXt4tup4uNXhXGs5WyR+GC+dsKR31BjuO5IjQNSnBUlPFIkXnHsnhlGBNAm9ZgO+jKlWUK1oHd2tIO3h7COqGVWR764YHYA4BLH0RlUgRtzcxC6DXk6qttVGqg27Xr/H+oRFtBKZJ1ccKRVW4aFc0Tjnut5p0Ep28b7InbXAEv8THHmJC83Qxd2i8cMosPwn4JeV/YUsY2ct02nRsIcOjYTadGwmxUTsJpFh32uk8wm0hNhDaTMCDPnVdwMQLdMTUlkU0QWvNc4EmlFK6kNW/FKRYfEvQOASx9EZVIEbcsKCP0/jlXnDmUwOiY4f1ds4fI/worJLGSjMuPCYZWFvLl+mMO7w7H758J+CgPW0nEvCLZL1CUWlWChJmEl4oDbBSXCJ3YcSJjh/V2zh8j/CitgACuKZmwZAcpb6I+xV9NekH6yK2EMAVHRG9f1o/wj5Iu14i/EZVIEbGpXW2jBayiIB2MvKp+QXNT8guan5Bc1PyC5qfkFzU/ILmp+QXNSh+N1nP3FH0iuGzmbIujrzTormkcZdjPc3wn7QNpqDNXoJuGvNcxeLu0CKjsiceG3LaFVKBDHnozYguBfhDi6TnxFfmLF85NpSQp77M3uql7mLgIRYrmkeGXx9hzxfMA5H76rwNJpqo7vevmdAHI/fcyrPrHxgJhSap6ou14nNMRGUgDf1jD6bZOJRyhJcleMu2jtDK4qRbJeoSZhdhF5+gWo+fOhzgeST7kkrz+/MgQ3gUq5tMxvrDbGpgJKhDgO7+ggrbCbMFsCdrZFPHLh8DMOZuxy4c2joqcD2UgnFF6/xzFyHDnslLv5zNj2FeMugvnSFPfZnDibS+CgqGjwywwFS1tvywvZhNp0W6bTo2EOHRsJtOi3TadGwm06LdNp0bCHDo2E2kJsJtOjYTaQmwm0+XCbCbT5fReaYTafLhNhNpz78oub8sSeYQ2iJgLe1AAGwJqtIH6qVdUS9TLm3ZKY1sksfQAQyZeNo/cD6yJjh/V2zh8j/Ci3RH1kTHD+rtnD5H+FFuiLoABXa/upIOJSAeFLxrnigh/fVcVIt3do9snst1piwsTVFR4rlsDMvvyxJ5fjfLJhNp0bCbTo2E2GSMQDAs6MratJPILmp+QXNT8guan5Bc1PxRHSLJL/ZffliTzCbTo2E2nRsJtOjYTac7/nwk8wm053/PdV/TVF2fRnrVB9fgqKo+QHT9s4phDix+JjhxOPMMavEZVIdJldsQrYAYsbB4pwAxY2DxTgBixsHinADFiXVjyP8KLdgrL3rgKM4fiu3EUtvHD+qlWUK1zxLa0eze16WkH6yKzsj0D+eX6Y1eIy546806CbYD2FIBN55pL1EDh0Isos1sVdH0qNaCUyLCm9EP/InzZ0Acj99u16vr3aaGu17FWGBKmNmYBAd3a0e3RMb6GXQeOJcT+fAq1oJTt4waOGUWlWCNsWUWmK6/1CItoJTt45Ygrq5vWhll8I42T8N6BbnpMSkAmFJp5GunCuKuRtzcz8S7Hd2mhleL8S30MEpjWySyWyZ+sl/UzSloa6B3/E+Lnn1kQ4uj1tJw8jVzAOR++q8Zds2lJCnvszhwmO/aLwykhUaTaUgZq6EXCjTou7ZtK8ZVIDdZFuZ+JjfQGtiy/Lnku1XjKlK4qRbu7SUqwPVvrsWPxMhgwEXbDnFcT10a54ZRca9ftYnb6rhxSafEVi0rjaaU3oh/5Hs846K8RlSsRYRt/2ivEZdDfxu4TM6J8/F+mNdvI2boYMNfZnDikxXMEpjWySx9EXzSO+3adjQvNzMhH1fW6B31YKK2xr7Zh3egKmAmFJiV4ypV2urfZbu7ZtK4qRbu7ReNfgBG3NnQByP34l/XCm71vNcxhTS6NaSQxJZLz0xrt2S9QlH8If+RPm6Iu0CpFu7tHh/Lbxho9nRrniXGZG5mJx0V4jM1sw1LwIM9Uv8glsl6Qmbo9afqF+K9QlFp5GunCuNppTXRrnibOkKe+zOHFLGRfNCnvszh+HGr+AJYJ8/GAcj99u16Wc5h/xLu7tkPrIpoG00proPf8iaNBc1eIyqLe8I2+uxYxScf9Lbo5h3egKmAmFJiuj6x9EX4jKpAkLwSmNbJLHxgJhSaU15x0VzSOXFIj1b67Fj8TTAPLMHR9gLUKFIt3c8l6i2fxfNI5SLD4isWlcVcjY9iy/LtF4ZSQqLteJb6GCUxrZJZL1eBWkYxMx4ZR/TGJUhJIYL52R5jJJY+MBMEIt3douYdei0pvPjAN/TQTQzdDBKY1sksilYF6v2P3ulyXNdxw4pMSvBr0dpNq6PrIl2O7xP55gJhSaeRq5gG/po3ikdX17tNDK8bIWCnIOcnerhlH9NHDEYapoa7TtA1nMYPVvrsWPxLsdea5jBdoFSLY6809RmF0l2q42mqe2BQp8rp3NDK1sQO+x2fGAcj8ts/Vgora0TPfZnDhB76sFCIJbHd2mNXiW8/FR7CuKuSfg+BlG2c4/WCe/yMS9RW00Ndp87YQE3q7ZD6ySWPi/WSSx8YBv6xaUkL6yP5SIPrJJZL0+ddnIxMx+rGnhlJI8I2xZQrWivA2mlVUiD6yKzsjoJTt430BrYsoUi4v0MVzQp77M4jx6WziqmHukpjTmHdL9Vr0qEWx3eJxOcxgu0QWvNcxeB15rmHwjjVNDKQBwDCCNkXR3drSDtc65ZM8O0gFdi5ivEZc8d3aaGu11tJw+R7OjWi7djroJnDikxKSFPYy4Fd+0XhlJC83QwPGa/MI7fLIw7zmYpNKa846K8RlUgSD/iHCuNppTXnHRdzx3dpoZSAOTmSMKi6O7xP7n9+YVPZQ2KxaUkjlIsPIxKY1sklnOYwerfXYsfiXY7zP4y55KY1sUxoU+fdVKsoVrniguF5cRY2jrijToAAAD++Fkew2zJPPj9/vy9QvjnY+cFl8E5kIWHO82hpP5mwGgMfHU8BawvZPnVxx6r0xvbuBcJ2VcBbmmWLucHZnnuTX/yBn5+CC01x0iiSLrcGFPUBID0mKEZdr3WBgwpl5ZnhqnQbkDRxNsTd2kGeFur6o9ZSztkiVbUJsFK9olV5oTpYPAOJInQN5E07+mEqrStGtVFYkUpRTLrcg7QlNMprxG49xScug64LKA680IFixoX6yClykIwz2Ob3nhos1cTGx83oQai1/cTx6OuolaBtPSuIO7oja3YN6NGbqWpvF9CTeZn00HTUIoXPHlSEQz6XnQdsKukSBjDNCBeFSzcd915K5laniMR5fO6WB8lz+Tr6m0rEgYHcC3HagBjWFmDBaKCDB6L9OX6xUQTs90bT/C56Ha0INGSMklWgh3Zmga52lEv+lcHhFfSFTcBl8/+qCu+p2ZQS7TrE49L1x8+eSEBKdo8EIiv8/f9nwT1O+JZLhUuDNSLLnjytdgtH2ArsqMuzXTNDtyHnoxAHmctBKwV4zo0jTfw9+hJqKG20NgaLH61Ysha4u2jHL1aLikVIP4SJaXdPGBP6GcDW6zj0baelGiH+gobWNGDJ62/yCJBEVJiK4Jhbp7IuleI048fB/2MdBzNPxeTBtQmLlpDXRXBo6/QhV/V9QEiatyUcKIRdyUbhako4KH8cpZor/QUj7uBVdUppRVvw8OOFQdeOHJLAnPtMl53U7hPu0dTdxJvTI3whKbW96QLmgzfuhiPsQ287Tle+ffWNlvLJJVQS2j3ODO5GQFgSaDM9EAR1IfZoBS4+ge3gIvCWtSrLuZ+riMfU72K26SCko5BMHntp9tLlFycZxdPSANaZo1sZA7Jn2CNNFReUxJDOx32Pz25D6Qgm1+kTYc4ScU6f0ZySXl+4WG3dvsNz91HMwUM2Y0qhD39gi3IBot1vKZSbgB3YoMYdx497vDQVbD6tUhe8dXOFeD2Fw4I9JI/hsc8iQsDfonfpAjn8iJEQkeAtSFpJJV+bqQVY1v6RElXC7QakmC/qFvmnhyxyqEA/o9v3Z+dMy3gFILPWq3xn4Wlk35lpbcY77gSK7/GQMAmecj0Cqznu6rvjuMXxFHUibwbElrmMTCQufgvCULqBlhq5J6atO3FggPi/jPRUf1QD6Wwa9AvJJwULVrkQRAwgjGwzdZkBln01Ji8PK9Y5K4TfclfQTftUFGWgR9ht8Cx0nJXSuR0/SaiFJ7hYjAnzWMiwdtXpeGBem+t9Uvdm5imqWU8rohz7HcJCLZ6+ehoUK43OfIxlsba68qq1N2VnzSvyHfSHqgoB4dVONfScdBFtaELEnpeJSOYHA0uPt8J7m9uLui/DfZjXSmxkGOYNZLVHZm8Fu6ecpxvUaF2KE1PCyfhNvAN8msjZ3A8UsaiWO977BbLT0HP4NHfim6eFmkyyt3yUBIoaeW9XVACCoStHZNTuGEYWrJukzfbF18evz8t6lDQMO+T508EvYWoZ2JGltpO6FBRHNOZ80gAX7vkvIZ4B/Rs/fiCJarZWI8jxUC3LufGNMQk+5r6+JfjLzLytDzWRn/YgMwrdZp+LCOPRvbxPWDwsMEMmRZr7BpXxLVpnr8d3/39QI77P2AUbFONc9a+j8tFxI8DB3fgHMmmcTDTMJYawZz9wnZutUooLupMxwqomKEl1K1hr3MQhigwbGNaWyT1Uvefgtz9xTyAEvF60PQtcclvuq8xnw2F9Mwb7DPuSdD1ieM9yW9VwDt3Y9kqD9x7I9cSDvc2/SW44oulffi+1nxtuQZ0iSUVF0c7KMz1KVEc6rNrjcvVQAAAAAAAAAAyA9zoBOUVWCkI6hc8Cpsd0zCpiOx3eQCNLL5D9rqIIsY6PehvULrTLV/jRpMWmmXvJrsNHU4vW0StnpV1s7Qgx1uf2zpjiPAvz+kV3h77Ql1CMPD8jbh7+kU04k7uPdvCu/olzfCpbvV84GFs1Oq4+sfsi1t/wqACk+AhV5+q4vkawxkaRVBtx+kMd9vOIx2TwnBjuSjt19IgAAAAEnONL8U4TULBC+rG5mNQSNgzbWbAmNADX1XjS9YZNF9OvsPexBfQqsz8MXB5hLbTyPTmbSD7JGh86L8bA4F5bkNI92hJcDazHddaNk5NRo0b1TzlzKVOJiL1L6SDj6gCwK3T1ADYijg8n33+5qXyBeTvg9qQQ4RdA9sI/ARTB0v3J4ZgF+jAasu5qGzdkkbJhHS2knpbkMgQciIQvzqihusct7fIKKsqlMtKZCqAxJjPKl+HO7Dc/c8yN1VuPKe9y8UyCUUFxvLgDuz+gK/86NWpq0dpM/ztlX1UAk9EfC705datHAAYbRmQQiHc2qqLJd85wFYk8EhBZn4XNo0G9eghzhHEoS144+RJ4JBu4K6NzJ0RrsijYcDunhavEUImGmN83a4dH4+Mb5u1ydlfMjyJbNZfECT0D9DYEIJRPmNZL9dH1IslI7AXzFHqYSP5Mg3V5c4yukyfPOM/prIefnUmaZ+W1z9EnsAXaRSUby94JAys5l26Rua6bZJq4LcjXPkU0pPI3RR+JVb49Xc/ELbod7JMzX6WOGJpFweHLlu9NZhMo0nMQNBydWNyk/93gV8yONzA+r+mjHLbQ3AOv8fiVOS/cPNIl20ThEUEYd2PbggNsKwddyQQWxYdGQAX2DZNoRqD881etZ/g1GF4rE7IGmomCiZRI//d3az6zatr3VSbltZvyRGQG30MbVeFULkK2U8jFClE75ZR32YzB7Wd3Du6LqA1B1/pXqRHRyYq49P95Fg4dDpkh2vVUBzQOhgQIYSUhANrvuxodO3hq02PLDBcpO/OBZUhfNoBWzapygzi1wFMDknW6lx2PnZMDuiM610imHP0ERwudy4DBhEAkBJNnw4EfsG6vbVYO9S7aocUoJ6RhIza0Hi0yFDojDDdf9usAQtOYCf9Iuv1Qzrs64oCvU/Ir4eRxrfLqBsYg9lwccQlQyV0/idzKFE6M2s8s9PE4jhnsoiy62sfIffZAPfLk18pWvP/UnAvm3P+CuRwA9/9Er3hncfN3vK0GdcqRUbjZMhYOFa6jxkfO4Hqdt8LN9G8UGbyseMmLAwG9ir+N/KSe5zAKALJfcvWP60T+TIB/9fbBTCpS4CukIWoN0kFR42fc2A1R80km7o4gNC4wzAZsyUPFmn1rzf8/9zB7JLIrHhMljJD/xAJ16pFa9JIQ5S34E9s5pxXGtU+7w6CARxV93zeVbj2HvJkWyRdKSWvbt2wSlinjT311VFfy5cKuvLDTIcDC6NbfVtfnIZfUkSykHGB6QZBB5TuhHEYClGtVd8kthrwaTQFPgMwXGmNWLkaoeLKLAvOiRZ07QugLDu17mAvpCCFvnlNBkdKM/jSIM9e6wDo6/D6hlcdehmXYXYo2aPfxsCqxOEpfjVIlsqv3wBBguRS8ZtlBwlO66Oi9zg8miKBAsKohk6ZvBf1N1FVXzizEASVrBTvbWhCza0VQ9aG67/LY7xdpwwopI1eTqphh5ozQgUsoh1HC2DQ6heyNFAbiqNSjB5GtvA/vAJf6kEFYvvrTfM6yHvrjELhJs5lWuNGgz7AdIb8WHSkvX5y+V6006ivQMvqatoHTL/D7HZgB2LxYjJtbeY5y1F1pp9Gs7r82R7HGxR/LIYy6K15Se5KNIGXvNgT/jNUysLNg1SQ9GJVDKQ02cWUMTv0TUEfqJUKVMyNrf1NgCg+9VME+SLcb9Wgw+MewNRbTCwptOtm0UCXBVC/fqNXJ+ihI34Bt3qknba8qcRbq2RSeZsn0udRhjUilsXlOS6EWSN3avta5+e7K46iqDcdQp9Rhwnuv/e2tPrOB+GX3I4qeYuoUn2XIDor6y8hNq9Q+9+s7cZjluzaBPJKB0Oia7htokRs9Hroa1ka/dltsg5InJbr1KL43pUBGsiAayhTI8HqzARy9YYb1Gsu/ZrIzjfaFURoq6+li04sorRJ54QlfEldlXqwrG9hZZbzciGBbTsiVb0szRWzu//A5Bi/r4BE2Fw2+17NFiOarkx41mmUS+KgPTD/DxWtACon8vDR1lURD2zcnGomO5ljFi7WRbbIf3GCQankymS8COZN3ltzCC3oF2Ner9gOvVZ3y3vH2E1FEm0epNKqfHCLJq5JjhdQe1UUPhJVgE0fTweRPR0ZolIm8Nod5bCg5p0EfFjAAecGtfaZI1P7C4WpJLZcYqO1DqGpkaYQ2HeTF+8/08z7uBit6koRjM9frCP4LwaDdzvb98yuhN3a8FpXL1odf2YPwIdtQxKErKGpQO7pC9bYLG197dQeAzJ+loSo+RPVJx/21pIzC4zK3dn21vS64Kr+7lCAVUlI27vK7uKhKHDZC+LWxcwFAQj0GLtN+WHHhKYjClAISGjfZoB15GZMA4WKyUJDgCLbutAZwUlyrr5+0W2AEp3nrY0es1reQ2Ja5o3dcuL+PlR8UscJZcWiLjl6RkRPSP/LmVsBr85HHwp1bU2wy1x+ZRhAyGz+cs7mJh8ByCcp8S4acZjg/UosbbyXFwzp+YunJkrgmfFVT7l4QAzoSu+iqPke7V9BmP4bbJv3KsbGaVF8qyGG8eSIclxqDNUlbuo6vPAk/oSLzp8IMC00HioeXFczRx964xazcCSxtq5fXCzjRZXAL4+q7PmXJa8Nsv9Dwx2Ifvwo529iEX1wnQwreTUSChNTPOvZ4DZGpaHki5OoL+D9+UVucUHr4iUSHorbhn/J/bIV8s182HWDb5nLLpDaQqJDRK2ansefVWHuU7CtCogKExefkK/BNvynq6DUibhwHIFSlREYw7wkZePqsNnEVj7V5uEhG6jJZFIvIi1A0wwJUJrfl5KrFdnPNUXifM6jWXeLvcwmFzxs2/GaN+kL2tv1Fe2HZSGlnR3aucouMcv2rANUaPfaz+i/K/XqO7V43u0epzTWUt9ANf+19QAf6g0k1etub/N5gPTAViV5rva/jvqpgQzIrEy+Xvm488L28rWWi51GKC897g8PtjmR8x/qUAHuFITyCz/PaTs0UR24WS2vvXZHq/MZioaAji5w1yaSsmoYMEXhYP2SXiDgZhiXvLmYBufF1FHf2qphwha5LHI6gIaIR+7dZOYjWNCFegCJX1gxy0SM5FBhWK18kFOGG4gZ3fgE+mSH2/gxmpIS+H24fVcPBZ4sFUuKG91j/VnxZHpxFAIOU8oEVbIzlvLrJfqJRWoyIJ+DUvv+sLQ7jQdGZvQKgKpk5RSTt0lZe2SZRp+oitWjXQ8na4Xu61ICOIyLIpi+j5UD7BjOSBFNpY/8CkWI632W1UY2tBr7RZLUr+I2/ad0bQ1G5gLM6FN3PauGyVvtChwuwFxNzlvzdtVRem/y89Rsr96xzfVP4ujEcJ8w8PoaCHjnF8HL8f65n9En6Q4NXAktCMeLaA9l9iQaxp+QvaUdr/LMXRCQoJdEStVDSO4OlQw0sQ2lF4tOaagaKJIAImVx2N7nB0/49hBXKginuTG/YGhvlFbbUYKVSvedZrVX4aEJBtrljtX1mG5i/OrkFj558ormeD5aI3+w00difxxOzSG56/nlORasVoT/nnOHz5oyRoELuSm8464/1TNncCTcaNEKK1ajj9E57jJP3Ps13GSEfb87em33rtPnhdQzim5El68spVrcHtFEkrd6EoLTSRf2nm7iGq+WDMWDm7Nj2P+JbRU+xNnjLhlX6Y4LRgBN5L5gqWuhHheEvg+oYq2n+1YeEM5qbaU2zC/VnkZHG0reglUqjLGMrwa8ELLnWv7ePoUHgzWezvzpYqb9U+QBZeu2uFX52+k3UHqW7ki8Hm+Js7QSOSAT9XChM4ky0p7B/Rtn0re9+UalM12/5d8qdkudIXwauWTdmuPBMoUhlamPE44zfM4KA9CjphPm3kZxSuQ07RnsVW/ShAQAQdDWzRS2Z5IyXulZaKj36y2hEyFqMuGeOWTweBUj7HM35qOMl3BF4Xd+lvWCZw1spFk+xtgU+fu1wNwBW9dm7w0jemxRvWXD+EYOR/qvG/4OciM5jRdRS9M+nhC87GK4TQB4zRnr0Rrkj++tc2zHhDMELQciJyBW2LW0SF7OBurH3Q4+uVicwBUPeyYAH9P+c99hUeQi4AL+HiJRstDM6oEtwd/n/6e1sNxOENfYr6ZWyHoF8kiC+YwfXa6i0SG7kHUYa41/vZblJxSFCgukRCr2uSpG+5kIZCGMw6WAszBDM2Iew+xK84fpM8N5m21I7JFz8uWwuWiT0KclFhA9ITcgQig04fU3JPyn0QttBWVwFk5ksINeTSVPitO4aMiezVlBKO53cf6AVStjr9m33SI2+AoLEK/sY9cLJ28NLJeufZGWUuABOhVKwmfMMotRXJ0q+O2ZOaWZ9zAJZt5w7HNlqIz2cNPVfUQhXoHLGJXyd2GYoffyzKTn7n0kZLlUTFGCqZZeqSFRodAUI67IXxYzXgOIrbR/p0Ttlmzn1u6qpvpVFf8hk5703AfAI/AeMkufJ2F2j4Itvql/agYiAdFqbt0FReR8RAdb1X8y0fMP3QjIukpTFDJsi2OwkbL+SHNAS5w+4dz/OlxZRL/oVD0WWaiLbSZ5afSUzRU0HpNt4XqKvIC3tzsGPSkcJxGmiX4qXgcgHB4uJZ7SyEyrW1dIj0cRR59h4f0qySZh4nCEOcPEor7MR2Naf0heArOqIQ2Hexv2AjlwC25d5PkueLIiMz23+whMAFghFYbj9dCSzi+4XQK2024L65WWRimp3LL6oihG5/7F0gFquMyxWp8t+yGiHdZttqTeP6478pHCaE2z/skJC54NCrdqTmcgoy8ySzngHNLV48lN+UVzmUzWCKXaB7ScT2dHHS9o1jXHhXLgv+j2O6Q7JoMlptCPyabW0DMR6J6BEutBhihWTCZhfeDNuRveyVFqimVa8rkPRCKhRr2YHCAcAzvQoOe+ypvVZuaSIt2q2i+jyIqshAyodjLx0Zsk9VkEf8f0d8rBKHHVircJXW0jmKLxLydCz5xgiuetfxAeaUN/fSB/e9M68JLWGdzkDo4ERDKCBQGdHJPR3RJY9qCrgQkGtBtO62DQGvGFEHtqIUgoYerzvByaKavGvCXjYzv3oJGZijvOaoG+XX7mC5tsU7PIYyFYLnvlE63ANV3UdrnKvGNX001OQ+pq2aeOWaFgqHhaBK+JT2pmwSrNQ0FC381wN/5sCZub4v68EcQCxW+qJvrt1whsONdbEHZZ6i0IIdn0Ta0yUaH2o1milQ3s6As1oePYU1h0Ez4oFW+RpJaPdVjiLDXrdD7cDj6td2r+KB6xxXXOMB6omiJPri2TAeEyq2u738JXQtDJmGK/48iK0/geiP72D7m4TurwGlwDk0AAACw6BuM2cmcg1w+cTNXw8vuiSjhvVnotv2iRan8d63OsvYlbW8IPia3C79g4c1mJ2LXBXMfciybfQcfoCGp2Nd21317tDx9N7MYhqOg3SCv6ZPAhSRBqRQYQfZBS//1hgmjdU4PCfiKFtqOrMFmu6kdTIAAAYwTgWGaVGp8LyzIlMo6T0xHt/7+IO/BU9m9ZXgbKq0VilU/6HyEknGIkSCq9v/T7mXyQCWT0frq7T6MKbWhxyaa/dZJKpp8PemzcNeARHmC1mb3pu2FOUo3EvbspxQICIg0JSvHTjssaWJ95WFObITI8x6dlM21GNh4C0nOX3/Nm5/gPwiFv2BbwlO3MIsfiMyzDJTNApkSmqXK0CGjsPzLA17hPUocyTxfhomvuwfIY8XNSNFL9LG5zqbt2X0w1FYR+qNlnq34iKsVEbEea01iMm2xWZt0o4pl/ag2jWfC9t+RU28FOjvrGRqBB14CP3WbFvz75f5lj0E2nYmm6G0DYe/NDpbFSrFUnIxDX0GOGpo151JzLRtsBjbk2l50OgjWW0gOuy+iZuLjtyG+Q1UlPwBcZmAgcCaKhZL5MoJDRrHQ5g13CZYUIf8s+m3Lv3jZfc9wVWv+sb80OlsUngHzbGqZe8V8N6VqtbdSHkHFfCz2NLu/ZKTEwaFw+5CNyvAEP4FtUVHJqEK69sQaRJAApI0m09seopW/A/pAiHpXAabSNCC3oUEMsBsyHaw5mgeuqrmiIPdYlBm0Za8JIBP/JSQsJHU5qTWASO99vYmBU7YBxF2gvsq2r66nR0iEgM7q5CpXToTW1oY4kkkspDFd1pmWB4tojpE/QEovJw61csZ3EkIQWmJV9ur1Qd+GhzVB2Hu9KmV5U2CXt4lLJ8ovSoISxutb5NKcHUmFOfZGj6xOuqafzh8P8auT9HsuOV+hb98zXid575MpHbxq4a8fCLRGPtcTa6+nGjUfqvqrsojYvQQuviFY1k+f07gIqly3CvAs40J87JvVwwKAwkThfUt6ZmlOQuoOTjIzE+5iLZHPzxvyRGnOsMgDisIh005tvZyb9lpKYCFT3SrEXHzCdiiRqoSRtI0pXVQMd+2I+vO3q5m+/y6/nK9hmz1GWMoB85PSVaWpyjK81tBcyRdJjHz40lKmhor3VNdbG2Exf2i2fwAuY3v/N5/+ae4WfOKGrF/C2q9xjgYQimqRxZ1zR90t/yCsHHJh/iLmjheWZNMvY9MEft0BkfAIx1dd+qnm5TJ+pQ60ROBVDEl5P8hzebp5haBJkJ3BI6VJ+Nt5B4ZL1j4xpew3wrfm5IB6RJMaNurGWrTR1X8j6QD1xvfZHxElCy15FhVpddhpdJ3ZdPkFo27FBXKBW3tY4OPMyWTcQPgcLd6IH4jTe9I51l0qtxhnZY4epCPtVCDNnynC+eAX/njjxYWAYkopCaQZAv+IVMk7p0qoRliywCXeiRI3I9Rj0fLcBpcX8s+U8eitDXkPEnWxruZIukyQMt0J/sCSivdVEU+Qzhg2xqiwFjewn9bIPqNJDu0z9maZCOcZIQeWZT+mfPkKLYU3t99bNF/VqZueAkT9tEdht5rCcyqcOuhdhTmT8MAzcwfsN2NIaYXbCfzTIKqWgzVwfAAwS/A4fob6a0R6mwS9QSQohu4NXHdbDgLsNOmXopufNjLX6PHJf06a5AOJ/yg31Dnxy7SYWykS1SZDBu8zNMdWSwfKJhoNFpB5gzWRAw174PrSqnX/abYnufVaLtiej+m5euI0+A8wwUA3beHH9i1c1thoQ/V7JmQICQMvQc0H5QlCt80eV7byagDrVKgEpbrXcTkTSszl5EneEIK6krwn59fskLS4XPlqYsXCgwz2ob0LWTGl7K09Y2OHKEMjf3ItQbd3K3gycsCd/NQqbAM6O7V64ok3okwV7Vrt39VSmphqJV4nCL5/PceYi7mjmPNomlOWKvzqmLCMmBk/bfc7vX3Aa8uAaTKucEJjsV6+ggtKDAdQAZWo1xKlOvb7/4fIjWeM6rKCyUo1jD77TXqQhTHu5o2KyrHjCQRr6lU9lrz7acukGsAiMym2WBZMRkFcQrg1I/s2Hj/23ZhLH+QDCAfNa2YQMnCA96n2B0J+aVrE2dKTWpSy+j7c8nKs54uu91Srib1JQ7FBoYsQMGsLBU3OznK8QXAmQWyIgoZQ2Do0s+UFqXa1W+cqa12DDiHZhN86eG1E4/1Ip66pvV0GzMLw7Ec3T+GrzW3DO8g/JPiLDgKvo/cQNvyGsUEE/6jA0FGPsodXB3wjfVdZX0FRkccSfuS7v/W3todSqfYa2C+1En4V0JV8kTO4k1wzlHgMxwsVt8iyqt21hC9rkrmhKuUaY/saC1KEERQ87CTUh13goUHLyxWnKSzqOT/3ogF8sBjG2Mnb+taCx6KtQfxTrUAvzRR6/uDSoJTBMFoWNqvm8bLT37WAHuzsA6q5jv3s7/OCaaQUfdjf3c9IsZd6FntEMlAlBbzdg//2WaDMTFqzKaO5fNBwCQUNvdnNlplsL+zd9lMSLbsXwMYmAX2aU5AY1/0ypTilR3XGYvSKTzQ1DAmaePjuap7uZpumqdt1pOEQJRv9nfSsjLm/61yi/38D+6ZZTOpwv0dbCAk6C7kGq0NCK0j1ptaD5K1Srfgots2y5hQerpo5VijXFq+2qgcUbQzv6Tyztny7e1sbGOUBVL1hsSZmWLK/OvpVoq6D17a7kqdRkg+xLaTRvHN0RRhopUU3B+6Pwazgkk/scttn3IOt+UFVLK0p+i41Fkalf6bSg9pdkp9VFVNivVdCNZcof7rlzLYrYvQw7HXkdTZKF3VCoF7GBE36eAPY4m1KV7LBm5L4PedAxUmCzi+HOlsqXADGdmcpnY/AX0Gv/9VvTq4sTjP1haKESyRWgaQ5xWxUzq5PIqoH5UTcYN4DphA5rEITIWf2IGijRGEAtAzy+M09oPHhiOxrVVWGuI9x8vf8B+Cm7bn8whgvHjLC5Sy0P8WLCC/EE5iIhvgSpDOQ2xPepbllLoK8gtMkhvqg0MzopnBHb5APClVi0LRpQaeNIAinTg55SLF/bVqespxkuG77fRp1VKXixwRtbQkAY9kP2c/UNCsM0unBhFoXzK+QRH+JOR0I+zBkcHfp4AiMg03PYeq0v9Zbn6MKctb7mWRXhSaDFVazkDRiOUhnDA4AMZST+P7MAXUrZWD/YmplKW0q+5+g6FHKCfUdJw9IrTpGDz9FIi+g+QrO6o+YXdTz4JVtqVDHidIFZEFLasOaCMAAGetXXg9WhEP2hYVhR+hlxDVXMzWEc66z5h3DDXhPpVg2bdYWTa7NBszny0BGpj34RWIr7iHzfbfzrvcnrl6lLpqV7j9JztkXwoxAg2EDuf07ndAzCgSEUZEfCnUgHbwYJtYxSL76OWKwG0P7n4fYe2/TFq+u6NEWvQRrFV3Qjl7TwJIyITy9RNrF8Xn2RsMtLJKX+3PHs79KwZy8/W4wFHUy5erZyGPHRenRk12yGDxQLjhZPoIGMVDPqtDSYVs8TBmv5HWS/Svpz8x3Vs0VPsuvudecjdTnYRNWnZTB7CiWxzZaiM9nBB5xrrBhKMUqDUK9M/hQGNoXygcNQey68MknqGH6pWG5oV5oj+0HYMVKDtibJLfk+A+d9i3zMKB36MduNta0LmtcPu1yqsHzDLn49Wt86aGgOc+MSdDMZU0JUKVs9kx3Gn/BznxUoUNU2IdCigKEtFDkS7lWFUez9rFoMXXCn+exj7eaXMMgvrxDCKSKzskckUfnhC2GhmN1K5masdDOtuJxS8KfUpPGSXESqhPqEC7YsEyYZ+nwacAl9HpdbeZ4GGePrjIwF+B2e5WfCQSG1iIdtXzallHwGOTwnOCP1ItsKkCh+p3DjpDUrT10LCIHBzlgflwJoJ+4lFwDIqg6LpGlsPs5pLyeM1WTGBDRLAVwBVq2AJhaY4uFYM5dOuJ6v77PHUVoNbHY9Kkf9T6WboBrmsmyIrcmZG9i53BijU3HayAgMTpKL7sbnnv1AtzVnqZ0iNbGSESp6w+zVENKJcdjfkjwkJpgCq8ZdNvxpB/PfMGUcDEojUetfmW6xIjJJkE9GRHfRIi4h5xznCzlHRJh95627jOjCGSyoWFBkCzGFZkPcrQ75ccjuZ8OiWvvRIsyrm1Ed140lLH5E6wDLwTJYHNwEcxVGdbqbmWRs0GRqrRO2UddBNg6mel9c7FsyvFtskj+QRFLI7RVWCErkXGT7BnvMINWhbp6BAMhI5jG1NNRYi0B61d4LMo4uL47ePpzi8hz6LTxt79q6rH5F5tdwxV+ax2lvYHME/gxBjFGgrBJWsJvJ/9WlJ7AobfZWpqp7tyUeSjNuK3pc5OHHlb713fUQ9dRP8yPdtoKD+gTG5ZoDfOPVOV60r0utB+h5Tun+uS/UNOnbn3tj+iKswPwo60t4d4AbFUUxbBhAOvW98H6hCCHvEQIY0CJRFSACUJbCqQYN8aT3ufps7IhCW7mr528c4JwgL0hIigR/AZdRWCJuEmajou/kunQRHu9SvsWVL7SWKjiodjEm3kqrkRbX/VlCofRvvFvM+xToMHu0IAAA68aDpPYbWkDXr5g+CDznemrFHLTeyZp9Wls7OtXCIqQInUl5x1vmBEkfYbhCFyMKXuvnRTRkQPHRRltePbL9tM2cYleJidusebOzQIsEHbtnrj2qxMnBpGfJ5eugeJOV3ZJu49kXmJPezwr1jEAABTd2BbAw4Kr1COW2Skn5g6jnP/qBrNknuDUcPcMbTNKlUuywhHt0yXWEOfaaa89gTzmadidg+qD5APTcaVq+yvPXT2u4r70kCuDSNK4b2lyPt1kkBoFWLmlvccaIIBDZVOnaSPVvKKo2rZszqZyjS2peyGGhfB2fhDEFO2yoAekWOLs3wSkAL6AbbUZ8+OAUeyWAShgp50cwUlIkxvVzzF2TJJD+yp8H/zfpjnKcipzAU5Mh0QAD/U6beguJOpcBi+uAJLFchj0ngW/iwhgLnEZyFkEebKYfFDsmIEVZXj2sefWQYtLJ3sgLImbf2lBW9ZPCHI64IHFZqSvw8XgXV0z1yYBJG4oq57JIDZXMyJQ05L+h5aobs1if6nohphC8AQhh35BG+5jkdGNjtarumy3lVy101jzf1eqdIzb7H9Ldd7CEq+qZWTrfmafpZI3i97pCO1xwrI+VHCY5RPzmH2SkZ5Gc4/0MTZVVVqxK9IVWwYp0Jw7Z1CfSBNZGpOOlfktxxaJeobWjemUKKPFNF1NWYUBN5byvE48jIkN7MGA86rHHJbNrQyREo11UkVMqsDRJhVR6DdwKE1sgrnJPhtT7eTgRrqlxTha3xqCFFwqhZf1ZuuNaDfh3OoRgGoDoZ7Bi4TbHuiDUQ5ygDxy010+cZvOVVmp+Zb0MgNL7Oc1a/jIA9FhK2z2whyxENbXLGqCEJnOk68DHN4qST2Pqqi944RUR/sRXMqCKosPehGTyvjoaGipGU9dGYlIFU4qFI2bZbHC07l6PXSIS6hzxk5cknA6UZHcCe4Dzt8VwfXMWY7AxxcrdBKqeiMCWd8jOPdvi4bHEKzsZyI/Nk28d5MLfazgLftfZGccfQAlneNQUugpOcH8YerXGHZBi1fNJY1TCdz49u29+BPaH4Ww2uUNbB5vd4L6MdBYMF2yfRIwYDhcGfcnP+PmIkk7XvJMtQCOw6iq9JeNp7KmEuV/lkacRC6dQN+uw+bGGf7s6vkyPUGvCB66ykOzzTnuG3BvzWAJfismSqnwSD4sPApPnFT29TDD8Htn2ss+gZygkveB4Ry/6xDuAbNckYOPSpl/M0kkErxL+sy/74UfxZT7UyqPxpCFcDVMqoML0Y2CMAAAAAAABZtimzpBcGjIuqjp/dSQ0Y+AxRf0ToGnnQruNfAHaBLAANTOOjKjnztK1msBXXZTUyL/qG53CW0be6qUfCtOXNhZbH6uRJ/dw1xY3Y3wZvSQWtqGMSZ8VsLFFsplGdKwk61yujbW5A2z89hjBTKr62X0hV9EjvMiJL9ZdJ9P8iT3mLp1gnJvQQ0QqgpBZ+fN+XIcQNkmVKz3Qk8qrJn27EyUjxhaQfs21nYrwprK5I/wjZZVgOO3uM6bKMoL6AhQCRithRWTUcroyb5+Y89wB6gFKHAbQoYcr7/mzUNznwAl3EhYADU6dHz9ZHmAOdvu4GegAKRUZNav8Vf0ANrAQdpBmSp4NT39cXA69EwU6BpiUfA4CiyeRYzrIpBO3k2K5piJ3ghTpXCGAv3+5iGdcEueZzOAzzJn0jS+1M4BCvSRQejuFQ+c8rihBs9jxW6VPXtTkSxWcPwJblLFQy1NrPpYsX6aR1UL5WJoIsXsZWa3qEIYslRizPVZ3a2w0ecKiTp8ui4XB9202T9kWvkWvkdUI9mI9mIrVxmD7hcHkAUvsiyJvlAnAHTfKA13kXKjOdg6z28r5te4PzW0aNk2Wwk7yzn+/7LmPwfllAaYH+3P4GBtEPPGMSZ0oyjVvmmnb+lTFmh3PWbsA38YZJfxzfmPGYbokmMSkTVSThfl1IIxIoGwLnemAm1JSgXJF83Q6C4XtUxoLcJypIrweGRgKP0QkQGSndkRQaV9a40NQXLJBB1EgGGEd4Zzpb7SCEQoKoR2fZGj3MO8QexT1IhdJb/9AcxesHt3O6cbUJ1mW0WUpFgr49CjIqpQLekWPE5RN6SUDsjjM7I0frgiYTvwA8yOR09dJq5SP48LwldlV5aGPYnJBc+4y6IuVc5fPyxfYsxfRv0geqojIvOg7nsT0pId2dbFFYnO2munEXPe0krYdIjgJtxac8bApF+4MRv47MalMQXZioPM3UZ6OulBfIgmdlPg4fSOAoCVbRPDwit/wm8Im/0rpFO562PNXZuH0GR8DrmxTPOGDqCHqFqwWad9Z3MbKGxY0DVx7aur1ylQgFLxoFsWpE6RxtdldQvcTxv0Yz1ZMeZ/5HUpN9hOlowoCkkNBjtMMLbiRqdDbOdIoT+Fu9lhx49TdxIpP09VQcvqFPk8sW9hqTN9+hhNo786S0kTzfu7B2UAZbhOIFpI9eJykjM+7dwZzizNObH5XlG+UIcD8eflqyryc42FFatAJhZuBY84H/xQHxCTaioPK4CgeVkvg9kZ0QWFlyJVQrZ5gg9FA0AKb0CaaFUDeXmH3xFVUVBxqdQ4ujqAmtMz2VbHleJSpw/TnQF6MGX5ytrzVa1s1gt6h9epzlOHiiYf+6U9DvkFnj+vWxtZ67uA+64RXloKglryFi7jAAA==;" vertex="1" parent="1">
          <mxGeometry x="2133.13" y="165.5" width="56" height="56" as="geometry" />
        </mxCell>
        <mxCell id="p6dHSxEKcSRuwTVCDza4-73" value="" style="endArrow=classic;startArrow=classic;html=1;rounded=0;entryX=1;entryY=0.5;entryDx=0;entryDy=0;entryPerimeter=0;exitX=0.5;exitY=0;exitDx=0;exitDy=0;exitPerimeter=0;" edge="1" parent="1" source="p6dHSxEKcSRuwTVCDza4-56" target="p6dHSxEKcSRuwTVCDza4-57">
          <mxGeometry width="50" height="50" relative="1" as="geometry">
            <mxPoint x="2263.13" y="345.5" as="sourcePoint" />
            <mxPoint x="2313.13" y="295.5" as="targetPoint" />
            <Array as="points">
              <mxPoint x="2273.13" y="320.5" />
            </Array>
          </mxGeometry>
        </mxCell>
        <mxCell id="p6dHSxEKcSRuwTVCDza4-74" value="Private subnet&amp;nbsp;" style="points=[[0,0],[0.25,0],[0.5,0],[0.75,0],[1,0],[1,0.25],[1,0.5],[1,0.75],[1,1],[0.75,1],[0.5,1],[0.25,1],[0,1],[0,0.75],[0,0.5],[0,0.25]];outlineConnect=0;gradientColor=none;html=1;whiteSpace=wrap;fontSize=12;fontStyle=0;container=1;pointerEvents=0;collapsible=0;recursiveResize=0;shape=mxgraph.aws4.group;grIcon=mxgraph.aws4.group_security_group;grStroke=0;strokeColor=#00A4A6;fillColor=#E6F6F7;verticalAlign=top;align=left;spacingLeft=30;fontColor=#147EBA;dashed=0;" vertex="1" parent="1">
          <mxGeometry x="1733.13" y="685.5" width="310" height="204.5" as="geometry" />
        </mxCell>
        <mxCell id="p6dHSxEKcSRuwTVCDza4-75" value="10.2.0.0/16" style="rounded=0;whiteSpace=wrap;html=1;" vertex="1" parent="p6dHSxEKcSRuwTVCDza4-74">
          <mxGeometry x="210" width="100" height="20" as="geometry" />
        </mxCell>
        <mxCell id="p6dHSxEKcSRuwTVCDza4-76" value="Private-RouteTable2" style="outlineConnect=0;dashed=0;verticalLabelPosition=bottom;verticalAlign=top;align=center;html=1;shape=mxgraph.aws3.route_table;fillColor=#F58536;gradientColor=none;movable=1;resizable=1;rotatable=1;deletable=1;editable=1;locked=0;connectable=1;horizontal=1;labelPosition=center;fontSize=8;" vertex="1" parent="p6dHSxEKcSRuwTVCDza4-74">
          <mxGeometry x="170" width="40" height="40" as="geometry" />
        </mxCell>
        <mxCell id="p6dHSxEKcSRuwTVCDza4-77" value="Private-SG2" style="fontStyle=0;verticalAlign=top;align=center;spacingTop=-2;fillColor=none;rounded=0;whiteSpace=wrap;html=1;strokeColor=#FF0000;strokeWidth=2;dashed=1;container=1;collapsible=0;expand=0;recursiveResize=0;" vertex="1" parent="p6dHSxEKcSRuwTVCDza4-74">
          <mxGeometry x="10" y="40" width="130" height="150" as="geometry" />
        </mxCell>
        <mxCell id="p6dHSxEKcSRuwTVCDza4-78" value="Private-RDS-userDB1" style="outlineConnect=0;dashed=0;verticalLabelPosition=bottom;verticalAlign=top;align=center;html=1;shape=mxgraph.aws3.rds;fillColor=#2E73B8;gradientColor=none;strokeColor=default;shadow=0;" vertex="1" parent="p6dHSxEKcSRuwTVCDza4-77">
          <mxGeometry x="30" y="40.63" width="72" height="77.75" as="geometry" />
        </mxCell>
        <mxCell id="p6dHSxEKcSRuwTVCDza4-79" value="" style="endArrow=classic;startArrow=classic;html=1;rounded=0;entryX=0.5;entryY=1;entryDx=0;entryDy=0;exitX=0.5;exitY=0;exitDx=0;exitDy=0;exitPerimeter=0;" edge="1" parent="1" source="p6dHSxEKcSRuwTVCDza4-76" target="p6dHSxEKcSRuwTVCDza4-59">
          <mxGeometry width="50" height="50" relative="1" as="geometry">
            <mxPoint x="1783.13" y="725.5" as="sourcePoint" />
            <mxPoint x="1833.13" y="675.5" as="targetPoint" />
            <Array as="points">
              <mxPoint x="1923.13" y="665.5" />
              <mxPoint x="1808.13" y="665.5" />
            </Array>
          </mxGeometry>
        </mxCell>
        <mxCell id="p6dHSxEKcSRuwTVCDza4-80" value="Private-S3-Rollback" style="sketch=0;points=[[0,0,0],[0.25,0,0],[0.5,0,0],[0.75,0,0],[1,0,0],[0,1,0],[0.25,1,0],[0.5,1,0],[0.75,1,0],[1,1,0],[0,0.25,0],[0,0.5,0],[0,0.75,0],[1,0.25,0],[1,0.5,0],[1,0.75,0]];outlineConnect=0;fontColor=#232F3E;fillColor=#7AA116;strokeColor=#ffffff;dashed=0;verticalLabelPosition=bottom;verticalAlign=top;align=center;html=1;fontSize=14;fontStyle=0;aspect=fixed;shape=mxgraph.aws4.resourceIcon;resIcon=mxgraph.aws4.s3;" vertex="1" parent="1">
          <mxGeometry x="1833.13" y="265.5" width="64" height="64" as="geometry" />
        </mxCell>
        <mxCell id="p6dHSxEKcSRuwTVCDza4-81" style="edgeStyle=orthogonalEdgeStyle;rounded=0;orthogonalLoop=1;jettySize=auto;html=1;exitX=0;exitY=0.5;exitDx=0;exitDy=0;entryX=0;entryY=0.5;entryDx=0;entryDy=0;entryPerimeter=0;" edge="1" parent="1" source="p6dHSxEKcSRuwTVCDza4-59" target="p6dHSxEKcSRuwTVCDza4-80">
          <mxGeometry relative="1" as="geometry">
            <Array as="points">
              <mxPoint x="1693.13" y="580.5" />
              <mxPoint x="1693.13" y="297.5" />
            </Array>
          </mxGeometry>
        </mxCell>
        <mxCell id="p6dHSxEKcSRuwTVCDza4-82" style="edgeStyle=orthogonalEdgeStyle;rounded=0;orthogonalLoop=1;jettySize=auto;html=1;entryX=0;entryY=0.5;entryDx=0;entryDy=0;exitX=1;exitY=0.5;exitDx=0;exitDy=0;" edge="1" parent="1" source="p6dHSxEKcSRuwTVCDza4-30" target="p6dHSxEKcSRuwTVCDza4-71">
          <mxGeometry relative="1" as="geometry">
            <mxPoint x="1198.05" y="523" as="sourcePoint" />
          </mxGeometry>
        </mxCell>
        <mxCell id="p6dHSxEKcSRuwTVCDza4-83" value="Approved" style="edgeLabel;html=1;align=center;verticalAlign=middle;resizable=0;points=[];" connectable="0" vertex="1" parent="p6dHSxEKcSRuwTVCDza4-82">
          <mxGeometry x="-0.707" relative="1" as="geometry">
            <mxPoint x="-1" y="29" as="offset" />
          </mxGeometry>
        </mxCell>
        <mxCell id="p6dHSxEKcSRuwTVCDza4-84" value="&lt;span style=&quot;font-size: 30px; font-weight: 700;&quot;&gt;{Continous Deployment/Delivery} Phase&lt;/span&gt;" style="text;html=1;align=center;verticalAlign=middle;whiteSpace=wrap;rounded=0;fontSize=30;" vertex="1" parent="1">
          <mxGeometry x="1573.13" y="990" width="850" height="50" as="geometry" />
        </mxCell>
        <mxCell id="p6dHSxEKcSRuwTVCDza4-85" value="&lt;span style=&quot;font-size: 30px; font-weight: 700;&quot;&gt;{Continous Integration} Phase&lt;/span&gt;" style="text;html=1;align=center;verticalAlign=middle;whiteSpace=wrap;rounded=0;fontSize=30;" vertex="1" parent="1">
          <mxGeometry x="120" y="990" width="850" height="50" as="geometry" />
        </mxCell>
        <mxCell id="p6dHSxEKcSRuwTVCDza4-86" value="" style="shape=crossbar;whiteSpace=wrap;html=1;rounded=1;direction=south;strokeWidth=7;dashed=1;perimeterSpacing=0;fillStyle=auto;rotation=-90;dashPattern=1 1;labelPosition=left;verticalLabelPosition=middle;align=right;verticalAlign=middle;horizontal=1;textDirection=vertical-rl;" vertex="1" parent="1">
          <mxGeometry x="1242.05" y="477.95" width="90" height="581.37" as="geometry" />
        </mxCell>
        <mxCell id="p6dHSxEKcSRuwTVCDza4-87" value="QA Environment" style="shape=image;verticalLabelPosition=bottom;verticalAlign=top;imageAspect=0;aspect=fixed;image=data:image/png,iVBORw0KGgoAAAANSUhEUgAAAlMAAAGoCAYAAABi/GCvAAAABGdBTUEAALGPC/xhBQAAACBjSFJNAAB6JgAAgIQAAPoAAACA6AAAdTAAAOpgAAA6mAAAF3CculE8AAAABmJLR0QA/wD/AP+gvaeTAAAAB3RJTUUH6AcDDyUNC0ir1gAAgABJREFUeNrsnXWYE9f3h994Nuu+sIu7u7tbsba01GgLLfVSd5fvr+5OhTqUAoXS4lDc3d193S3J748JLaW77GQ3yUbO+zx5kNyZzJx7Z+Yz5557DgiCIAiCIAiCIAiCIAhCZaATEwiC4Mf0BYKBc2IKQfA4QUCxmEEQBMF3MQPHABvwO9BKTCIIHqEN8LnjJSZMzCEIguC7PATYL/pYgZ+BRmIaQXA5BuBmYPsl192dYhpBEATfJBg4f8lN/WJR9QPQQMwkCBXGAtwHHCnletssJhIEQfBN7irlxn7xpxj4Dqgj5hIEpzEBE4AzKq61+mIuQRAE32O7ihv8hU8h8D4QLmYThDLRAqOAg05cY4+K2QRBEHyLfk7c5C/+nAXGI6ucBaE0hgB7ynFtrRDTCYIg+BbTyimmLny2An3EjILwN42AuRW4poqBaDGjIAiCbxAJ5FdQTF34/AbUE5MKAUw4yhR4kQuup5FiTkEQBN/gdhcJqQufAuBtJFeOEHhcC5xy4bX0nphUEATBN/jLxWLqwuc0MEbMKwQAtYE5briGNolpBUEQvJ+qKDmk7G78zAKqi6kFP0SHsuou103XjhWIEDMLgiB4N66e4ivtkwXcj7JEXBD8gfrASg9cO/3E1IIgCN7NLA+JqQuflUiAuuDbaFDSgWR76Jp5UkwuCILgvQQBOR4WUxe8VHc5HkqC4EskAos9fL1MF7MLgiB4L4PV3MzjY4Ld9ZCYjxKzJQi+wDAguRJePo6J6QVBELyXd9TczJ+9t7M7HxTnHKJOELwVM/ARYHP1+G/WIFZt2zjpBkEQBO9ks5ob+ZGld9otQQZ3CiqbQ9gZpUsEL6MeSnZ/l497rVZj/+LVAWrb9/JH48pqFEEQfJ1ooHlZjWokhlEjMYzmDWLdeSwa4EFgFUq+HkHwBoYC69RcJ+Whaf0Y+napqbZ5YxFTgiAI3kdPNfeyLm2SAGjdJN4Tx9QGWA8MkO4RKhEN8DhKaaQId/1It7bVqJkYTnREkJrmjURMCYIgeB/d1TTq3FqJD2/dNN5TxxUF/OF4mMlqP8HTRDjG32vuftZ3bl0VjQZaNlYVDiWeKUEQBC+ko5pGFzxTnVolevLYdI6H2RQgWLpK8BC1UaaaB3nix7q1qwZAozrRIqYEQRB8EDPQsqxGIRYjzerH/n3Dj4owe/o4R6HUDUyQLhPcTGdgDR6aTquRGEa1KqEANKwTpWaTeJQ4RxFTgiAIXkJrVKyca9YgBp1OmWnTaKBjy0pJCdXW4S1oKN0muInrgEVArKd+sHenGn//vWFt1RrJ7+KmREwJguDLdFDTqGXjf8dJdW6dWFnHWwulDE036TrBxTwO/IjirfUYg3r8s2i1YR3VYsrvpvpETAmC4Mu0U9OoRcN/v6h3aZNYmcccBSwAhkv3CS5AgxKX9xoeXuig12npd1FKhKpxIQSZ9SKmBEEQfIxWqhpd4pnq1CpR7U3fXZiAacAN0oVCBYXUeyheKY/TpU0iEWGmfw5GA4nxoWo2lWk+QRAELyEIJavzZdHpNDStH/NvJWPU0bVtUmUfvw6YhBLnIgjOYgB+Au6vrAO4eIrvAkkJqsRUfRFTgiAI3kFThyC5LPVqRmEJMvzn//tcFDhbieiB74Ex0p2Ck+PmZ2B0ZR5ESWLqwsq+MkhynIOIKUEQhEqmpZpGl8ZL/S2mOtfwlvPQAV8DV0qXCirHy7fAVZV5EEkJoTQroTSTSs+UHqgmYkoQBKHyaaamUeO6MSX+f6vG8cRGWbzpAfkjSmkcQbjcM/tL4PrKPpAR/eqhKSHcPUmdZwqUla0ipgRBECoZVfma6tWMLFm96DRc0buON52PGaWGWgvpWqEENMDHwC3ecDA3jmhS4v+r9EwB1BQxJQiC4CNiqn6tyFK/G9anrredUzgwx98eNIJLeAa40xsOpF7NSDq0qCJiSsSUIAg+TjBKEKuKG3/pJS76d61ZYnB6JVMFxUNlkW4WHFwLvOgtB3Pj8CalfletiogpQRAEX6EhKhIUJsQGExZSerUZS5DBW1b1XUoL4FPpZgElW/63eDghZ2loNHDD8NJzbsZEWjCbVC3Uk5gpQRCESqaBmkb1a5ZdeHX0FV5bKm8McK90dUBTD5iBkuTVK+jYsip1qkdcVmxVjQsRMSUIguADqLoRlxZ8fjHD+9UjxGL01vN8B+go3R2QBAG/AtHedFClBZ5fTExUkJpdVfEmkShiShCEQKS6q8RUcJCBEf3qeet5GlCmeCR+KvD4CGjuVerOrGf0kLIrwUSFq6q1rFV7HYuYEgRBqEQxVb1qmKqdXS4GxAuoD7wqXR5QjAHGettBXT+0MVERZQulqIggtbusKWJKEASh8lAVNa52mXa/LjVVC69K4n6gq3R7QNAY+MQbD+y+Ma1VtVPpmQKoKmJKEASh8lDlmUpMUBUIi06n4Y7rWnr7vfoblMSegv9yofh1sLcdWPd21WjRKE6dmIoQMSUIguDtxKh52Gg0kBivOucNt1/bHJNR583nXReYIN3v10wA2nnjgT02vr3qtpFhqsVUFRFTgiAIlYMqr1RslMUpcRQbZeGqgQ28/dyfwMtWdwkuoxbwkjceWItGcQzuqb70UnSk6pgp8UwJgiBUEi6Nl7qYh8e1K7F4qxcRATwrQ8Av+QwvnN4DeOKODk5dF+KZEgRB8H5UeabKI6ZaN4lnUI/a3n7+dwG1ZRj4FVcA/b3xwBrWiWbUIOcS20rMlCAIgp+IqcRyiCmAp+/u5O3nbwQelmHgN2iAl7314P73cHd0OufctU6s5kvAS8rkiJgSBEHEVAnERgWVa+edWyfS2zvr9V3MGCBchoJfMApo6Y0H1qlV1XIltHUiz5QZiPKHThQxJQiCrxGrplF0RFC5f+D1x3qg1Xr1C3MIcLMMBZ9HB7zorQf3+mM9yxVDGBrsVHkmv4ib0stYFgTBx1D1JlsRMdW2WQI3Dm/MdzN2erMd7gE+BOx+0q8Xav9EoEz9hJfxwp8B2Er5zub4Phco8OJzHgF4ZaXt64Y2olu7pHJtG2TWo9NpsFpVDc2qwA4RU4IgCJ5FVWoAJ5Znl8irD3fn17n7yM0r8lY71Ae6A0sr8RjCHP0RddGfJX3CULxpeiAUxSMT5hBL7p6uvFhY5ZXx92zgDHDe8Ul2/DvTTcc2zhsHVmiwkbee7FWhfQQHGcjMLlTTVDxTgiAI3iqmYiooppISQnnmnk489dYyb7bFUDeIKQNKYHB1INHxufjvF4skX3iGaFG8XpEV2EfBRQLrjENknQfOOT6ngGPAUYc4U0M1vHQF3/P3d6FqXEiF9hFsMaoVU3H4ASKmBEHwJUIAkyrFVUExBfDo7e35dc5eNu08681i6pFyiNH6KEkiE4Ekx4O9quPPBCSe9lJMDjupmfdKcQir4w5xdQjYDxwEDvPPtOMtKB46r6JtswQm3NKmwvsJDjKobRojYkoQBMGzqF75U5GYqb9vkDotX782iHYjv6Oo2OaN9qgPNAD2XvL/RpTyMw0cbeqjxOY0QDKou5tox6dVCd/ZHCLrANDM6xSjUcekNwaj11VcS4dYVIupWH/odBFTgiD42oOqTIwGnbMrikqlRaM4nr67Ey98sNJbbXI/sO0SwVQTL/R6CGhRMvh7Ze6Nlx7oSpN6rnEUBVvEMyUIguDTYiosxOjSsjDP3NOZFRtPsHDlUW+0yd0yLISK0r1dNR4e195l+wu0aT6ZFxcEwZdQdeO1qL+Rq0Kn0zDl/eHUSAyTHhD8jrhoCz+9N9TpTOeXFVMBNs0nYkoQBF9C1YosV4spUOqN/fzeMMwmcegL/oNOp+Gnd4eSGB/i0v2GWFRPs4tnShAEwcOoCkC3mN0jeDq1qsoPb1/h0jd4QahMXpzQlT6dXR/C5YRnKhwlHYeIKUEQBA9hcfGN3GmuGlifj1/oJz0h+DzXDW3EU3e5p7C3Ex5cDX7gnRIxJQiCL6GqHH2Qm6fi7riuJS890FV6Q/BZeneqwaQ3Brt0ocbFGA1OLSb1eTElk/+CIPidmHJHzNSlPHtvZyxBBh59bQl2u3TMxWg0EBFmJiLURFioifAQE2GhRsJCTISHmigstPLV1G0eO57a1SIYP7oFWTmFZOcWkp1TRGZ2ARlZBWTnFpGVU0hKWh4p6XkUFFr9vn+a1o9h2scjnBU8TmEyOrVvn899JmJKEAS/E1PunOa7mIfHtSM02Mhdz83HZvNvRWU06KgaH0JSQihV40KIi7YQG2UhJiqIhJhgYqMsxEYFERttKTNhqt0OKzedZM/BFI8c+3VDG/H4HR1Utb0grM6n5pLsEFjJqXmcOJPFmeQcjp9S/jxxJsub6zaWSsM60Sz87loiwkxuHy9OEO7r14eIKUEQ/E5MBXlwxd340S2oEhfMjQ/NVluLzCuJDDdTp3oEdWtEUr1qGEkJoVSvGkpifChJCaHExwS7bEpIo4H7xrTmnucXeOTcRvavp7ptaLCR0GAjNZPKfr5nZBVw8mw2x05lcuh4OoePZ3D4xIU/M0jLyPeqPq5bI5JF319LfEyw23/LSc+UiClBEARvE1M6nWfDQYf2rsu66WMYcdcMj3lbykNYiJFGdaJpUDuKujUi/xZPdWpEuKT8jjOMGdmEp99eRnpmgVt/p0ZiGK2bJLhl3+GhyrRl47olz1KlZeRz8Fg6ew6lsPtACnsOpbL7QAoHjqZ5vDxR3RqRLP5hdIULGKtFPFOCIAg+Lqa0Ws+nLmhQO4q1027ijmfmMXn27ko1UmiwkUZ1o2laP4ZGdaJp1iCWRnWiqV7Ve5KOhliMjBvVnLe/Wu/W3xnZv77bgqzLIjLcTNtmCbRt9m8xV2y1cfBoOrsOpLB1zzm27DrHlt1nOXoy0y3H0a55FWZPvIq4aIvHzl08U4IgCN6LqkAPbSU9PcNCjPz83lCuHFCfu5+bT3Jantt/MyrCTJumCbRuEk+bpgm0aRpP7WoRPtGZ99zUmvcmbcBqdV+82ZX963vfg1enpUHtKBrUjvrXFGRaRj6bd51ly25FYK3bdpq9h1Ir9FsDu9di6kfDnUmi6RKc9Ez5fGkBEVOCIPgSqjxTmkrOqTlqUAO6t0vi/pcW8cufe1y2X0uQgXbNEujUOpE2TRXxVCvJd1/qayWFM7R3XX5bsN8t+4+PCaZz60SfsUdkuJnenWrQu9M/STRT0vNYs/kUa7acYvXmU6zbepqsHHWxeXdc15IPn++LQe/5LEjimRIEQfBxMVUZ03wlPcinfDCM+8a05qH/LWH9ttPl2keXNol0bZtE59aJtG4SXykPRncy4ZY2bhNTw/rU9fls9dERQQzpVYchveoAYLXa2bk/mb/WHmPRqqMsW3/8P3FnZpOej1/ox9hRzSrtuI0ipgRBELwWVXMV3iCmLtC1bRJrp93Ej7N28tKHq9h/JK3UtrFRFvp2qUHfzjXp1i6JejUj/b5De3aoTvOGsWzbc97l+75yQH2/s5dOp6F5w1iaN4zl/pvbYLXa2bjjDItXH2XJmmMcO53F928N+U+clsfFhXOLQERMCYIgeBBVGRW1Gu/yRmg0cOPwJlw/tDF//HWQVz5ezbqtpzGb9HRtm0jfzjXp26UGrRrHe5UQ9BT339yG256c69J9hoea6N2put/bTqfT0L5FFdq3qMITd3b0quNyAouv94OIKUEQfIliteLFG9FqNQztXZehveuybc956tWMJMgst+HrhzbmiTeWujRgf0ivOm7N8C2UIaaceykw+/r5Sm0+QRB8iSJ/OZHmDWNFSDkIMusZP7qFS/fpjav4AkpMOTfNJ2JKEATBg6ia5vN0QkSh4txzU2uXBdcHmfUM7FFLjFqZYko8U4IgCF6Lqmm+QChW629UjQtxWcD4wO61CA4yiFErU0zpREwJgiB4K6qm+QoKi8VSPsiEW9q6ZD8j+tUTY1a6mHJKXvh8ALqIKUEQfAnxTPkxnVpVpV3zKhXah0GvZWjvumLMyhZTzk3z+XzwoIgpQRBETAlew/03t67Q9r06Vicy3CyGrGQ0msBK8SFiShAEvxNThUUipnyVa4c0IjE+pNzbj5RVfD6pvURMCYIgeA5VhY7zCyRmylcx6LWMH92yfA80rYbhfWWKzyvUkXPySMSUIAiCBwlS06iwUFIj+DJ33dASs8n5MJpOrapSJS5EDOiD2kvElCAIgufIVNMoTzxTPk1slIVrBjdwejtZxSdiSsSUIAhC2WSpUlzZBWIpH+eBW51Pk+CPhY1FTImYEgRBqBQxlZElYsrXadU4nq5tk1S3b9EojtrVIsRwXoKT2exFTAmCIIiYEtzB/Te3Ud12pEzxeRXVqoQFlJiSKpuCv6MHqgNJQA2UsgXpFz2YDwNHAHn6+gbqYqbyiykqtrms1ptQOYzsX49qVUI5frpsDS1TfF5243Xu2vP5XCYipgR/pT9wJ9APKGt5jx04BewB1gPrHJ+TYkavI1u16souIDoiSCzmyw8onZZ7bmzNE28uvWy7ujUiadYgVgzmu/j8y6y8tgn+Rl1gETAPGKlCSIHiYk4E+gBPANOBE8Bx4EvgaiBCTOsVZKltKFN9/sH40S3KLFp81UDxSnkbTuaZyvd54S9dLvgRw4EfVAooNSQB4xyfYmAVMAuY4hBbgufJVNtQxNTlsVrt7D6YwqadZ9i08yxbdp0jJT2P9MwC0jMLyM4tJDjIQFioiYa1o2jRKI5+XWrSt0sNjAadx44zMtzM9cMaM3HK1lLbSNZzLxRTzoVBFfj++QqCf3A9MAkweOC3bMBqYCrwM3BOzO8xBgBz1TRc/MNoenWsLha7iGKrjSWrj/Hr3L3MmL+f86m5Tu8jIszEHde15KGx7YiLtnjkuHfsS6b5kK+x2//7XWJ8CMdX3I1GnmZeRVpGPlFtPlDbfBfQxJfPV6b5BH/gJuB7DwmpC9dNF+A9lKnAqUAveTnxCClqG6ZnimfqAhlZBfzfZ2tI6vIp/W/5hS8mby2XkLpg19c/X0udXl/wyY+bSxQ4rqZp/Rh6d6pR4ncj+tUXIeWFOFnoWGKmBKGSaQ58Volj2YgSU7UYJYD9cSBSusVtnFfb8FxKTsAbKzu3kGfeWU6N7p/x1FvLOJuc49J93/P8AobdMY2cvCK3n0tpaRKuHCApEfwAiZkS/BILUBMlKDv6kk8Q/wRjh/CPNyjPcUHkAIUogcK5KFNgJ4GzKCvmzrjwwgkHpjmO1xuoD7wGPA18DbyFxFZVmpg6m5wb0IaaMX8/E15eqCqtQEWYvfggvW+czLxvriEizOS237miVx3qVI/g4LH0v/8vOiKI7u2ryVXhhVhtTtXH9HnPlIipwEUH1EHx7DQFGjsEVE3A3WuM04DTwMESPkccYkwNz6Os3vM2QoEJwF0ocVyvA4dkyLmEXMenTAHtSi+ML5GeWcC4J+cwfd4+j/3muq2nufre35jz9Si35fbSajXce1NrHnx18d//N6xvXfQ6mWDxRgoKnUodJZ4pwWeoAnQGugKdHCKqspLwRDo+jUt6oQGOAQeAHSiBiTuA3UDGRe3qAfd4uc2NwHhgLEqg+qvAXhmKFeacQ/RfljMBKKY27zrLqHtn/st74wxV40KIijATEWYmOMhAsdXGkRMZHD6Rgc12+eCoRauO8uhrS3jvmT5uO79br27Gc++tICtHed+SwsZ+I6byREwJ3ooFJW/SEJTElbV95Lh1QC3Hp98l3x1ziKodQHuHWPGV6+wm4DpgIvACsgKwIiSrEVOB5pmaMX8/1z/4O/kFxaq3adYglisH1Kdjy6q0aRpPbFTJDr/zqblM+WMPb325jqMnS89O8eF3m7hyQH26t3PP1Ft4qImbr2zKR99vIsRipH/XmnI1eCnOjEP+qUrhs8gaCP8iChgFjAB6opROEbyPLJSpv3dRpqwE5/gTGFRWo7o1Itm/6PaAMMiXv2zjzmfnYbWWvbQuxGLkzutbMnZUMxrViXbqd3Lzipjw8iK+/GVbqW0a141m2x9j0enc83jZfySNhv2/5OqBDZjywTC5GryULbvP0WroJLXN3wUe8uXzlclm38cCjEZJJnkaZWXbQBFSXk0o8AqwDxgjLzVOoyoI/cz5wPBMffT9JsY/PbdMIWU26Xn67k4cWXYHbz7R02khBWAJMjDxfwN5eFy7UtvsOpDCj7N2uu1869WMZGD3WozsL1N83oyT03wZvn6+IqZ8lzooK8eOo8TjDMV3pr0EhUTgW2ApJcePCRUQU9m5hR5Zsl+Z/DBzJxNeXlRmrqc+nWuw7Y9beeWhbi6pV/jG4z0Z0K1W6d9/sc6t5/3Ibe0Z3LOOXAleLaYCa5pPxJTv0Q+YjeLVeBxlak/wbboBm1BWJ5rEHGWiOt7Mn+Om5i0/zNjH51w2MFyv0/LG4z1Z8O211KvpuvRnWq2GL14dgKWUmnk79yezbP1xt517r47VCQuRd0dvJr/AKc+UiCnBYwwB1gDzHX+XvvMvTCiB6VuA7mKOy3JSbUN351iqLPYfSeO6B36nqLj0XD5REWYWfn8tj97e3i0ZwqtXDeOu61uW+v33M3bKSA1g8vKd8grLNJ/gdgYD61G8UR3EHH5PQ2AJ8AYybVuqRlLb8MiJDL87+Zy8IkbcOZ20jNJT8yTGh7Ds5+vp4eaElg+ObVdqoPnMhQdUBcQL/klahlN5ONN8/XwlNYL30ghlhcMALzmeLMfbQ6bjzwvzJxcynl/AgJIZPQTF2xLOP1nTg6RbVb/kPIqS2uIGlDI1QjnE1OWW8fsqD76ymF0HSi9RWDUuhGWTr6d2tQi3H0tifAgDu9fmjyUH//Pd+dRc1m07TadWVWXEBiDpmU7l4UwXMSW4mkiU6Z678FzhXlDKnmxHSZZ5zPHAOo6SkfwMYHPBb4QAcUA8EOP4ezWgxkWfJMQjc4HWwEaUJcOfizn+5pRjPJbpWT9y0r88U7MWHWDilK2l3zzCzcz9ZpRHhNQFruhVp0QxBbBs3XERUwFKZnahM81FTAkuZQTwCUq2cncLp6Uo8TkXPskeOL9sx+dypVW0KKvc6gENUKa9Gjg+1Qm8qWkLSrqLAcAtKJ7BQKcAZUVffFkN/ckzlZNXxL0vLCj9wtFq+OndoTRrEOvR4+rVsXqp363ceFJGa4CSpt4zZXe8sIuYEipMJEqag/Fu2n8WsBZY6Phscgxgb8TGP16xxZd89yUwLkDHyEigiUNw75ZLhuNqxJQ/xUy98vHqywbUP313JwZ2r+Xx42pQO4rE+BBOns3+z3d7DqXISA1QnJjmS8MPCh1LAHrlMxilXpurhVQy8CnQAyVeqR9K1u2NXiykyiIswMdKfWAl3hNHV9liquxGpzP9Igh676FU3vlqfanf9+pYnefv61Jpx9e9lED3w8czLrviUPBnMaVaH53xh/MVMVV56FG8UbMBV/nlc1CSQA5CmSq8G1iGa+KdvIEIGTZEAn8Aj4iYKpuiYhunzmX7/Mk++OpiCotKztsTFWHmp3eHuq18ixoa1Co53V2x1cahchZdFgJGTJ32lwe64HmSgMmAq14ljwMfoRTRTfNju4XJ0AGUYtBvAk2B24DiALTBCbUNj5zIoFqVUJ890bVbTzNnaelhhv97uDsJscGVeow1k8JL/W7fkVQa1Jbcwq7m5NlsDhxN48DRNI6ezCQ5LY+zyTkkp+aRnJb7d9LMzOwCrDY7J1feTZDZc498J6b5zoqYEspDK5Q6ekku2Ncm4H2UcjJFAWC7bBk+/+JmIBq4BsgLsHM/orbhwWPpdGuX5LMn+tKHK0v9rm2zBG6/tkWlH2ONxNLfcw4dy5ArtYIcOp7Oms2nWLftNOu2nmbrnvPkOlkqyW737HT32RTVNdz9YppPxJRnuRplGs5Swf3sAZ4DpgaY/SSa9b9cAcwBhhFYK/0OqG2493Cqz57ktj3n+fOvkr1SGg189EI/tNrKr5NdI7F0z1RmdoFcpU6Sl1/MX2uP8edfh5iz9BAHfWyq1Gq1cy5FdSmnUyKmBGd4DiV/VEXufKdQ6rd9A1gD0IbJMoxKpAfKKs3BAWSj/SgLKcq8nnYf8F0NvmPfecJDTWRk/VeQDO5Zhw4tqnjFccZFl/5+mJVTKFeoSlZtOsmkaTuY8sduZ/M0eRXnU3OdWfghnilBFRrgPeD+CuwjHyVY/S3+yTweiOyT4VQq7VByh/XFTwI6yyDbcRMuU03sPui7Yur6YY0Z2b8+vy3Yz7fTd7Bw1ZG/H1LP3tvZa47TZNSJmConhUVWvpuxk7e/Ws+eg/7hfD/jXIFxCUAXykSHkrm6IrmRtqLExmwVc7JcTHBZGqMUwu4BpAbA+R5QI6YOHUunoNB62Qe+NxNk1nPd0EZcN7QRJ89m8/2MHezYn+w1XikAvU6LTqcp0RshYqqUN+SCYj77aQtvf7WeE2f8qyD3aedW0B4WMSWUZdvvgdHl3L4AeBFl1VaxmPNvYZmOpEi4HE1RFjj0B3L9/Fz3A93KalRstXHwWDqN60b7/AknxofwxJ0dvfLYTEZ9iUHRWdkipi5l9uKDPPDKIrfEQkVFmIkINRNk1mM2KY/4yHATOp3nMiGdOa/aM1WMEytzRUwFHlqUuKbyCqnNwBhgh5jyX1iB34GbxBSXpQvK4oQR+Pcqz/1qG+4+kOIXYsqbMRl1JYopbwiQ9xZOnMnirufmM3vxwXLvIyzESNP6sTSsE0WDWlE0qB1F9aphxEUHExsVhNFQ+R7Y0+rF1HF/uUeJmHIPHwI3lnPbH4DbUeKkhP/yvsO2coe+PIOBSQ7h6a8pqNWLqYOyENTd2GwlBxxf8I4EOr8t2M9tT84lJd25LCbhoSb6d61Jt3bV6No2keYN4io1QasazqqPmTrsL/0ro9z1/B9K5nFnsQKPA2+LCS/LRhSv31gxRZlcD5wEHgt0MbX3UKqMBjdit0N2bmEpYkoX0LYpKrbxwMuL+OTHzU4JqFGDGnDlgPr06VzDK7xNzuBETcxDIqaEkrgfeKIc26UB1wHzxISq7dwWaC6mKJNHgHXAr354bgdQvG5lBoMsXHWE9dtO0655FRkRbiAvv6jUpfCB7JnKzi3kmvtmXTaD/cXUrxXF3Te0Ytw1zQixGH32vA+rF1NH/KWvpTaf6xgIvFOecQd0ECHlFDkohZu3iSnKRAN8DTT0w3PLReU0wbmUXNpf+T39bp7Chu1nZFS4mMut2PPVVZQV5fS5bLpd+5MqIVW/VhRTPxrOnvm3MeGWNj4tpEApcK0Sv/FMiZhyDY1QSro4e9fYh7KMfb+Y0GnOAR2BD8QUZRIK/IZ/1jbcrqbRhXiehSuP0m7kd/S7eQqbdp6VkeEisnNLjyG2mA0BZ4/zqbn0uWkKW3afu2y7EIuRD57ry445Y7l6YAM0Gv8499KmfEtxJoiYEgClNtofOL9cfxfQE2U1g1A+8oAJKAHp6WKOy9IA+BL/C9zfXp6NFq48StsR3zJ0/DQ27xJRVVHSMkpfLxMfExxQtkjPLGDALVPLXPTQvV01tv5xC/eNaY1B7z+PYie8UgAH/eW8RUxV3H7fA7Wc3G4r0IvAyFTtCX4EaqNkic8Vc5T8vEPJGO5v3qnt5d3Qblfy/bQd8R1Dx09jaxleBKF0Tp4tPelkQmzgiKmiYhvD7ri8QNdo4PE7OrDkx9HUrhbhdzZwIl4qGTgvYkoAeAoYVA4h1RtlmkpwrVh4EqiLkj4hXUyCHaXEzI1AVZTA/Qw/O8ftFd2BzWZn9uKDtB7+LdfcN1NW/pWDy2XwDiQx9dCri1m+vvQclCajjh/evoLXHu3ht/m3Dh1Xfevd6U/nLWKq/PRGKVzs1D0HGEJglPqoLE4DDzjEwxhgmUNUBAo2lNV7z6AEnfdE8dz5a96yA646N5vNztQ5e2k88CuuuW8m+4+kydWkkuOnSxdTVQJETP00axcffb+p1O+NBh2/fDic64c19ms7ODHNt1vElBDreEA5E3Ce6RBSJ8V8HiEPZQq2B1APeBBYCBT66bn+DowHElFWh75KYBSGLnb1TfmCqGoy8CvGPPIHB46KqCrzLfEynqlAiJk6cDSN258ufUG2Qa9l+icjGNanrt/bwokEubtETAmfAglO3vCvQZbyVxYHgfdQ0inEAFcBHwEb8M1SBmeA6cDDQGeUxQ/DgImO7wKN7e7YaVGxje9/20njAYqocmL6IvDEVCmeqRCLkfBQk1+fu81m57Yn55ZYSucCH73QjyG96gTEWNgToGJKknY6z/WOh7Ez3I3kkfIWshxCZLrj30FAGxRvTiuUVW8NUNIJVDaFKGkzdl302YAf5WbxZjF1qaia8scebrmqKc/d14XE+BCx+kWU5r2rVzPS78/9s5+3sHRd6YuyJ9zShvGjWwTEODibnENymupyOSKmApiqDo+GM7zr8BgI3kkesMLxuZhElJijuo5+r4rijUx0/BkDGCr4u1koCxFOoMR6HQdOoUwFH0DxqBVJF5XJBo8o2yIrX0zeyqRpO7jlqqY8f38XqsaJqMrIKuDk2ewSv2tQO8qvz/1cSi5PvLG01O9bN4nnjcd7BsxY2HVAtVcqDT9bzS5iyjk+Bpx51VqNUm9P8D1OOj6LLtPGAIQA4YAFxctV6rMYyEZZZZiJUotRcA0bUVlWxpWi6tvpO7j5yqa8cH8XqgSwqLrcA9TfxdSLH6wsNfu7JcjAT+8O9bm6ehXBiXip3f527iKm1DMAGOFE+1SUKUHxLPgvRY43LIlQrlyyHDfnJp780YJCRVT9MHMXt13TnCfv7BhQaQD+EVPJpYupWv4rpvYdTmXilK2lfv/sPZ38Xkz+ZyzsVy2mtvjbuUsAujqCgE+caG8HbsKPijgKgpezrrJ+ODeviA++3Ujd3l8w4eVFnE3OCSjD776MZ6p+Lf+NmXr23RUUFdtK/K5p/Rgevq29COvS2ShiKjB5EiXDtlomAn+K2QTBY6yv7API+VtUTeSJN5detsSKfz1ASxZTWq3Gbz0zB4+lM23e3lK/f/up3n5VIkYtO/erFlObREwFHokoS9DVcgR4RMwmCIElpi6QnVvI65+vpUb3z3jizaWkZxb4teE37ig5G0f9WlGEWIx+ec7vfLUeq7XkXMD9u9akf9eaAXcBbth+hnMpqqp55eNn2c9BYqbU8CJKcLEa7MBYlBgOQRA8x1aUFZJBnv7hiDATEWFmIsPMjr+biAw3ExFqJjjIwB9LDnLNkIZ+6ak4ciKj1Ado6ybxfjnQUtLzmDR9R6nfv/Rgt4C56Ox2WLjyCJ/8uJlZiw6o3WwbfhhLLGLq8jQAbnai/SRgiZhNEDxOkUNQdSzPxmaTnshwM5EOIaT83XzJ303/+f/YKEtATudcYN220le3t22W4Jfn/O30HaUm6OzdqQYdWlTx+37PzC5k8uzdfPDtRmem9i6w0R9tImLq8rzmhI3SkDQIglCpz3a1YmrMyCa8/lhPIsJMmE1yGywv67eVnnC/TVP/9Ex9N6P0GarH7+jg1/29bc95PvlxMz/8tpOcvHI7lzb5o23kLlI6LYDhTrR/GjgvZhOESmM5cL+ahrsPpgZkGgOXq9etJXumtFoNLRv5n5jatPMsW3efK/mB0SiOfl1q+t05FxZZmbnwAF9M3sKiVUexV7xsvHimAownAY3KtluBL8RkglDpYsqu5rrdvPMsGVkFflE3bv+RNLaU8oD3hLgoidgoS6lCy5f5ZlrplYt6dqjGolVHPXo8rZrEER3hnjDBM+dz+Hb6Dj7+YRPHT7ssDNgvg89xQiwEGrWBvU6IzcHAHDGbIFQ6u1HKAJXJb5+NZHjfej5/wu99s4EHX10sPR+AzJ90Df1cvHJw444zvD9pI5Nn7y41j1YFWAb08Me+EM9UyTzhhG2WiZASBK9hqVoxtXDlUb8QU0LgotW6zh+SmV3I/z5dzbS5+zhyIoNiq80dh7zSX/tCxNR/iUbJXq6WJ8VkguA1LAfuUNPQ01MyguBqdDrXiamwECOvPdqD1x7tQVGxjeOnM9m5P5ld+1M4dDydnfuT2b73PJnZhRX5mRUipgKHWwCzyrYLgVViMkHwGpaqbbj7YAonzmSRlBAqVhN8Eld6pi7GoNdSu1oEtatFMLR33X99l5aRr4isA4rI2rHvPH/+dRh72ZHpNmCNiKnAQAOMd6L9G2IyQfAqTgCHUFn+adGqo9x8ZVOxmuCT6LSez3EWGW6ma9skurZNApQVnX8sOaRm0x1Aqt8KWxmO/6I3UF9l2y0onilBECqfOGAU8D4QrnYjmeoTfPoBrq38NWQrNp5Q3dSf+0I8U//mVifavo6yDFsQBM8TBHQHBjg+jcuzk4WOvDkaH17XPKRXHRIvmqrMyCrAZnPvremnWbtYuu54id/dcV1Lvysl88w7yzmf+t+yOcFBBr55YzAAeflF5BdYPXpcdapHVLptVm06qbqpP9+QJDXCP1iAs0CIirbngWpAgZhNEDxGbaCv4zNI5bVaJjvmjKVJvRixrhM0GvAVew6m/Of/tVoNJ1fe7VcJUdMy8olp92GJArVP5xos/O7agB4LVTp9zJnzOWqa1gKO+KsdxDP1D1c4cXP+SoSUILgdM9ALGOq4Pqu540fmrzgiYsoJ9h9JK1FIgVKPz98yyy/fcKJUT1+XNokBPRYOHE1TK6QO+bOQAomZupjrVLazO8SUIAiuJwYYA/yC4in+E7jLXUIKYNbCA2J1J5gxf1/pb6S96vjd+a7efKrU7zq3Dmwx5UTM4QJ/t4V4phRCgIEq2/4FyN1XEFxHXeAqYATQ3tMvecs3HCclPc9tZTn8jZmXEZ9X9PY/MXX4eHqp33VsWTWgx8KClUdETDkQz5RCX9TnlvpZzCUIFaY2MAFlhc8+4DWgY2Xck6xWO29NXO+KAq5+z9nkHNZsKdlTU61KqF8WNz5yIqPE/48MN/tFbceKXDdL1hxT1RRY4u/2EM+UwiCV7YqA6WIuQSgXzYFrULxQDb3pwF77fA2/LdzPLVc2ZfzoFkSGm6W3SmDWogOlxg8N6VXHp1dFlkZpRX6r+FlsmLNs3HGG1PR8NU3X48f5pS4gninnxNQCIEXMJQiqqY5S63I7sBV42tuE1AX2HEzhiTeXUqP7Z9zxzDy27j4nvXcJvy3YX+p3w/rU9ctzzskrKvH/Az1zvkzxiZi6lKaoD26dJeYShDKJRKkksBQ4DPyf4zrzCbJyCvli8lZaDp1E2xHf8cXkreTlFwd8p2ZmF7J4dcnTOhFhJnp3quGX5221luyJi48JbM/UghWqxVRAJLcWMQU9nWg7V8wlCCViQklh8B1KSZfPUZJqevQeo9NB41oGxg4N4fMnoqmTWLFIho07znDHM/Oo2vljJry8iEOXCUb2d6bO2UN+Qcmi8qoBDTAZdX553kXFVrm6LyEnr6jU2LlL302A1YFgE4mZgs4q2+0EpPaEIPz7ZawncCNwJU6UcXEl1RP0dGlmonNzE+0amwgy/RO406ddEAdPZlX4N9IzC/jg24189P0meneqzvjRLRnZvx56XeC8j343fWep342+opHfnrdBr6Og8L+CqqT/CxQWrz6q9vwXocQai5gKALqqbCdeKUFQaOkQUKMBjyfaCTZr6NBEEU+dmplJiivdI9K7rZkvfsty2W/bbHYWrjzKwpVHqRoXwk0jm3DvTa39Pn7myIkMlm8ouXxMQmwwvTpW99tzj4u2kJ1b+J//LywKXDHlRG62gAmNCXQxVRP18VJL5RkqBDChKIlt7wBae/rHI8O0dGluon/7IDo1M2E0qFs21qimgcRYHSfPu/7Bd+pcNq9/vpZ3v97A8L51GT+6JX061/DLFW2Tpu8oNXXENYMbotP5b2WyuGhLidO7gRpHZ7PZmb3koKqmKEl3RUwFAG1VtrMTIPO+gnAJ7VCCyUfjolp4aqlVVU+vNmZ6tzXTpLYRbTmf1z1bm/lxXo7bjrOwyMrUOXuZOmcvXdokMumNwdStEek3A8Buh+9nlD7Fd93QRn59AcRFW0r8/8Ol5J/yd9ZuPa22hMwqlCoGIqYCgBYq2+0GkuW5KgQIYQ7x5FEvlFYDDWsa6N7KzIAOQdROdM3tqXdb94kpnU5Dy0bx9O1Sg76da9KjQzUMev+Ko1q+4Xipgfd1qkfQoYV/ZwGvV7NkYXzoWDoFhVa/DbwvjVmLZIpPxNR/aaaynXilhECgA4oX6lrAI+u+jXoN7ZsY6dUmiJ5tzMSEu16ItG5gIjJMS1qmzSX7a1A7in5datKva016daxOaLDRrwfF5QLPrx/W2C+nNf/1xt0orsT/L7baOHA0LeCKZM9auF/ElIipcouprfKcFfyUcJRg8ttR76mtEDoddG5mZlAnRUAFm937NNZqoXtLMzOX5apqr9Hwr/ig6IggeneqTt8uNenftSY1k8IDZnBk5xYydc6eUvpRw7hRzf3eBi0axpX63a4DKQElptZvO82uA6ryVu8H9oqYCgxCgFoq226TZ67gZ7QH7kIp72Jx949pNNCirpFBnYMY0CGIyDDPToX17xCkWkzZ7dCycRzXDG5Ivy41ad0kHq1WE5CDZNK0HWRmF5b43cDutamRGOb3NmhYJwqzSV9ijq3Fq48yalADvz13ux027zrL7MUH+X3xATbuOKN205mBdq0EspiqBai9Q+6QZ6/gB2iBIcD9KMW93U7tqnr6dwxiSOcgqidU3u2mU1MTUWFaUlVO9bVvXoUn7+wY0IPFboePvt9U6vd3XtcyIOxgNOjo1i6pxIzff6hb1eZT5BcUs2LDSX5ffIAZ8/eVWpuwDGaImAosMaWGU0g9PsG3iQRuA+5FqZXnVuKjdAzspAioBjUMXmEAnU7xTk1eoC4QfeqcvXz4fF+MBl3ADpo/lhxk76GS69NWqxLKoB61A8YWg3rULlFMHT+dxa4DKTSuG+3T53c+NZc5Sw8xe/FB5i47TFZOYUV2d5wAjDMWMVU2BxEE36QOihdqHG4OKA+1aOnRWskD1bWFGZ0XapBBndWLqbSMfBauPMrgnrUDdvC8/+2GUr+77ZoWfp1b6lKG9KzNQ68uLlV0+qKY2rTz39N3peURKwc/o6QTCigCuTZfTZXtpISM4Gv0BWYD+xxiyi1CSqOB9o1NvH5PJIs/jufVOyPp0do7hRQoMVuXy5Z+KT/M3BmwA2jHvmQWrSr51qfXaRl3TfOAskf9WlE0qB1V4neTpm33yXOKiQzCZNSRlVPoSiEFMCUQr5lAFlNqy2AckWez4AOYUTxQ24AFKLFRbrm+Y8K1jB0awqy34pj4VDQDOwWpzkhemWg0MKiT+lj7GfP3k5qeH5CD6YNvN5b6gB3ery6J8SEBZ5PSVi7uOpDCX2uP+dz5VK8axuN3dGDP/NvYMWcsj9/RgYTYCr937QU2iZgKLNT6ZcUzJXgzCcBLwDHgS9Sn+3DuRqGBLs1NvDMhinkfxDPh2jCqx/telMDgLkGq2+YXFPPjrF0BN6CS0/Iu65V75Lb2AXmh3XJV01ITdH720xafPrcm9WJ47dEenFhxN3O+HsWNw5sQYilX/rTJgXojDuSYKbVi6rw8rwUvpA7wODAGMLnrR+IidYzoYWFkDwtVY30/GLt2VT0NahjYe1RdIfsvf9nKfWNaB9TAevfr9aXWnevRvhodW1YNyAsuNsrCyP71mTx793++mz5vH6fPZVMlzrc9djqdhoHdazGwey3yC4pZsPII38/Yya9z96qdCvwlUG/IgeyZUptpTcrICF71Egl8B+xBSbTpFiHVoIaBN++LZO578dxzdahfCKkLDO2q3ju1bc95Nmw/EzCD61xKLh98W/oszWPjOwT0xXf/zW1K/P+iYhtvTFznV+dqNukZ2rsuD45tp1ZIbQV2BerYCGQxpbYSaao8vwUvoB1K7pbtwE242atcI0FP/w5BXhtMXiEx1c2CUa8+xuvLXwInZ+/rn68lO7fkZfHNG8YGVDqEkujUqirD+tQt8btPftjsl8WPv/lVdYD9z4E8NgJVTGkAta+nIqaEyqQHMA9YB4xAfaLZCrFkYz7p2Ta/NGhEiJZebc2q2/80a1epAsOfOH0um89+3lLq94/d3sHv6/Cp4dWHu5eYFqKwyMrLH63yq3PNyy8utZzQJRQD34uYCjyMTjyUchEEz9MVWAT8BfT39I8XFdtZuC7Pb417ZU/1q/qycgr5dc4+vx9wr3y8mty8kmPJqlUJ5ZohDeWqBJrWj+GGYY1L/O67GTvU1q7zCabO2UN6ZoGapnNRElwHLIH6nhEKZKpsawIKEQTPvNwMAZ5FmdarVFrUM/Ld8/5ZxNVuh6GPnOP42WJ1yrZtEssnX++3A+/oyUwa9JtIQaFVrsIK0r9rTeZNusYvzqXXDZPVpn24Cpge6DfvQERt0K4dKJLbg+BmDMDNwE5gljcIKYCt+ws5fKrYLw2u0cCIHuq9Uys2nGD3Qf+tKvXSRytFSLmI+SuO8ONM34/DPnQ8naXrVAmp8yhJggP+TTgQURu8W0gApsUXPHr93YCyAmYS4HXzKH+s9N+pvuHdnAuw//A7/8xFuOtACt9N3ylXowt54JVFJKf59rUzadoOtav4fkRmbwJWTBWJfYRKRANciZKt/Aegrrce6Kzludj8Mw6d2Egd3VqoD0T/bvoO0jL8LyP6g68sothqk6vShSSn5fH4G3/57gOy2ObMKtavpcdFTJWFgcCNKxPcQ19gLTANJWeUV3M21cqGPQV+2xmj+6kvn5GTV8TEKVv96vz3HU7lr7XH5ap0A0tWHyMz2zcdNr/O2cvpc9lqmq5HSdciYipAz9uZEW6UYSK4gM7AYpS6ee186cB/X+6/U30dm5qoXVV9yq6Pf9jsV16c+rWi2Dl3LH0615Ar1EVoNDB+dAu2/nErYSG++fj45MfNaptOlB539HsAi0i10ZZhQJYMFaGcNAeeAUb56gkEmTQs/jgBi9k/bxe/LMzh1Unqky3+8uFwRg1q4Fc2sNvhq6nbeOz1v5yaygwy6+ncOtEv80+dS8ll2x7nqok1rhvNl/83iE6tfLfkztbd52g5dJKapulAEpAjt/nArc1nQ8kfpWY5T4iIKaEcNANeBob5+ktLXoGdRRvyGNrV4pcdNay7hY9+zSJDZZLS9ydt8DsxpdHAbdc0Z2jvOjz62l98/5u6gPS8/GIKi6x8/soAGtWJ9ht7TJ2zl7ufm6/+QarT8vBt7XhxQtdSiyH7Ch99r3qhxZcipP5BF8DnfjeK16ksvkGKHQvqqQm8DnwONMJPvL/ZuXaGdfNPMaXXaUjLsrF1v7rZ/+OnsxjcozaJCaF+Z4sQi5GR/evTs0M1Vm8+RUp62VO8x05l8sXkreTkFdGtXTX0Ot+NHjl9Lpsxj/zByx+tIjdfXVqQFo3i+P2LKxkzsqlPnztAemYBYx+fQ1FxmS8WduBWpELI3wTyajW1gyBKhomggniHgNoPjPe3F5X1uws4dd5/8xCN7huM1om74QffbfTrwdyzQ3W2/H4Lz9/fBaOh7KFcVGzj9c/X0mzw1yxefdQnz3nqnL00Hfw1vy3Yr6p9kFnPa4/2YONvN9OmaYJf9PtXU7eRk6dqfdYcx71OEDFFmogpwQUEAU9dJKL8curcboc/VvlvZaWqsTp6tlafJmHqn3s5pW61k+8ObLOeF+7vwobfxtCxpboYoP1H0ug7ZgpjHvlDlVfLGzhyIoP+t/zCNffNJDVdXbxY17ZJbJ51C4/f0aHEOn2+SFGxjfcnbVDb/CO59f+bQJ7mG466JImLgE0yVIRL0AA3Ar8BI1GfVb9MWtYz8vKdEXRvaWbdrkIKCr0jb+yZVBvX9Qv222K3sRE6Zi5TJxitNjtajYb+XWv6/UCPjwlm3KjmVI0PYdm646oypW/bc57vZuwkLtpCi0ZxXvuCMHHKVkbeNUN1dvuwECOvP9aTT1/qT2yUf017/zRrF99O36Gm6QHgASShtYgpBz1Qt0R9C0qxWUG4QEdgCjABCHfVTutVM/DkzeE8ckM4ibF66iQZGNo1iKNnrBw9XfllXTKybXRpYSI+yj9vG1VjdKzZXsCZVHXTmVt3n2P8dS2xBBn8/81BA22aJnDLlU1Vr3LLzi3itwX7Wb/tNF1aJxIRZvaa8zl0PJ2r7/mND7/bRGGRuv4e3LM2f341iv7daqLxszcKux1ueuQPzqWoepl4GVgtjwERUxdohpJAsSwOAzNlqAhAPeAz4G2guqt2WidJz1M3h/PEmHDqJv37wWwxaxnUKYg6iXrW7iykoKhyXwb1Og3dW5n9toOjwrTMWa1ueqqo2IZBrw2oHE2hwUqAetumCazceJKMrLITuu4/ksbEKdvQ67R0bFUVrbbyhIjNZmfilG2MuHMG+46oi/SIDDfz/rN9eOep3oSHmvyyX+csPcS736ia4stAqSNagPDvF44APvfrUWoKlcVioI8MlYAmEngcxbXtsrtprap6xg0LYUhni6rg59PJVl74Mp01OyrvPhZi0bL4o3hMRv+8ddjtMOqp8+w/rq5IQliIkSNL7yQy3BxwF0VuXhEvfbSKt75ch9WqTuS3aBTHF68MoH2LKh4/3p37kxn7xBzWbT2teptRgxrw8Yv9/G5K71J63TCZv9aqKmr8P+BpeSSImLqYrsByFe0OAXVkqAQkRuBelKSbka7aaVKcjjuvDFUtoi592P+yKIf3JmeSm185Xqo374ukf4cgr+mkJz9Jo9iFCw1PJ1vZflB9kYQm9WJoXNczOZa0Wg2T3x/mVRfJlt3nGP/0PNZvO636HG67pjlvPdmL0GD3Zwgvttp4+8v1PP/+ClXxXgBV4kL4+IV+jOxfr1Jte+ez80l1cyB/akY+i1apWoFpA/4A3Fmg8lZ8NHdVIIupasAxlQMoFCXJpxA4XIWSL8plQjohWsftw0MZ0SMIfQVXAJ04Z+X5iWls2O352l/dWpr56BHvWeTa/tbTlT796Sl0Og3Fex/1uuMqttr4+PvNPPvucrJy1I3JqnEhfPh8X64cUN9tx7Vtz3nGPjGHjTvOqHsgauD2a1vw5hO9vKIUTFKXTzh5NpsAIhIls7qIKR9CC2QCaiqdtgM2IAQCjVGW/fZy1Q7DgrXcPjyE0f2CMRpcd8nZ7TBtSS5v/5ThUS+VTgfzP0ggJtw7MquImPIeTp7N5v6XFjJ93j7V21zRuw6fvtSfJBcmQS0qtvHOV+t57r0VqgPMa1eLYOL/BtC7k/fEwImY8i1BEajYALVXfFPRGH5PMPACsNlVQkqv03B1bwsz34xjzOAQlwqpC2/RV/e28Ov/xdG2kefeoq1WmLNKHLXCf0mMD2HaxyOY9cWVqsXR7MUHaTroa96ftBGbreKieM2WU7S84hueeHOpKiGl12m5/+Y2bPvzVq8SUoKIKV9it4gpARgK7AKeR4mTcgkTrg3j2bERRIW59zJLjNXx5VMxPDs2giCTZ5zNvy0VMSVc5oLqXZcdc8Zy/81tVK3ey8gq4IFXFtFt9E/s3J9crt/Myy/miTeX0vXaH9l1QF3eqGYNYlk19Qbef7YPwQGQ4kIQMSViSnAH9YF5wCxcmOrgAt/PySavwDPTTxe8VFP/F0vrBu73Uh04UczeY0UygoRSCQ818f6zfVg++Xqa1ItRtc2qTSdpNXQSE15epLasCQArN56k1bBJvP75WlUrCw16LY/f0YENv42hXfMq0lmCiKkKskNlu2YyVPyKUOAtR//3d9ePnEuz8v0cz8Y7VIvX89UzMTx2UzhGvXu9VL8vz5ORJJRJ59aJbP79Ft57Rp33p6jYxgffbqTFkG9YsOLIZdvm5hXxxJtL6X7dT+w9pK7caqdWVdky+1Zee7SHqrqDgqDqhTbAz1/tij6AWCBZhozPc51DSFX1xI8FmTT8/lYcsZGev2kfPFHMs5+nsfOwezxI0eFaFnyQgK6Sn0f3vpVKUbF7PIB2O2zdX0i+ypI+Op2GLq0TMRrdYxStRsO8Sdf47MV36Hg6dz07n/lliKSLKS3X07L1xxn3xFwOHFWXfNMSZOC5ezvzyG3tfaae3nUP/E5ymuun1LfuPsf5VFUvQ6l4tpzaSMAnI+4DXUwBnAbUlPwejjIdJPgm9YEPcaMnqtSB093CS+MjKuWkrVb49s9sPp2WRaEbBMdHj0TRraV/J6z8fUUuz3yWrrr9XTe04pMX+8kVdxmmztnLPc8v4HyqOqEQGW7mtUd7cPu1LcjMLuCx1/9i4pSt2FUO6QHdavH5KwOokRgW8LZft/U0Ha/+Xq3tegDLZMSqeJESE9DL8aAtizMo8TWCbxEK/B/wrcp+djn7jxXRraWZuErwTmm10KqBkd5tg9hxsJDz6TaX7r/Yilcl8HQH9ZIMLFibR1qWOttt2XWOUYMb+H3W7IrQpF4Mt17dzFHn71yZ7fMLipm9+CBL1x3npQ9X8dfa46p+JyrCzKcv9eetJ3sREWYSwwOjH/idY6cy1TRdALwiFhMx5YzHoqeKdkbgCzGXTzEE+BMYWJlj3Y4y5Taih4XKqo8aFaZlZI9gzCYNm/YWYnORpjp21so1fYMxG/3Xya3RKPZbsE5d4meb3c7Z5FyuGdxQrsDLYAkyMKJfPXp1qs7aLadJTit72unIyQzVSUGv6F2HP74cRbd2SWJsBzMX7ueNL9apbX4r6sNgREyJCTADN6poFw98gHtT6QuuIR74FCWDebg3HNCZVCv1qhuonaivtGO44KXq2drM9oNFJLvAS2WzQVKsjia1jX49oGonGlizo4AzqeoSQO46kEL/rjWpVkWmlcqiRmI4469rSXCQgeUbTqiu81caCbHBfPPGYF55sJtXZDH3FqxWO6Pum6l2anUeSh0+QcSU+ucc8Bhlr2zUAitRn+hTqBxGodSP6uRtB7bzUCGj+gRXevBrdLiOkT0sBJm0bNxTSEXzJGbk2BnZ07+ntDQaqFlFz2/L1AcDHziSzq1Xy0JgVQ8irYaubZO4dkgjdu5P4fCJjPJd/IMa8OdXV9O2aYIY9RK+mrqNr6duV9PUDtwEnBCriZhyhkKUpI2JKtqeQplHFryPWsAU4AnAK5/sWbl2goO0tKpf+W/LWq2GVg2MdGluYsv+QtXxQCVxNtXK4M5BRIT4d6aVKjE6Dhwv4tCpYlXtj57KpG3TBOrXipKrU63QjwhizMimZOUUsnrzKdXb1UgM49ePRvD4HR2wmCX55qXk5Rdz9b0zycxWNUU6DXhXrObkPVVMAKhfrdBTTOWVY3g8sA0XrNTT6zRujWua+FsWyRk2rzFe0zpGJr8Sy9ihIWgrcDcIlJxTD4wOw+BE/q5HXluiujacoBRMfuOLtXz8g3Or8c+n5rFi4wmxdSm8OXEdJ85kqWlaBDwtFnMe8UwpmFDyD5VFPPAxINkKvYMWKOkq7qCCZWC0Ghjew8LHj0bTv0MQJ85ZOXne9TfmomLIzbfRo5X3pBPQ6zR0bGqiczMTW/YVkl4OL9XJ81ZuGBBSaQH2niI8REtmjp1tB9QFQaek5REcZKBrWwmCLovte88zbPx0vpux0+m4qaJiG0vXHmfWogO0aBgnsWoXcfx0Ftc/8DtFxaqu68+A78VqIqbKyyngYaCs6GAtSgmaLWKySsUAPAr8hAvKwDSqaeCtCVFc1y+YIJOGuEgdQ7tZaFXfyOGTxS5PJ7DnaBF92pqJDveuyy8+SsfInhasNth6oFB1Dh+AnDw7bRsZSYzV+/3ga1bXwPS/clUn8ly9+RQ3DGtMRJhZrtxShNBbE9dx3QO/c/x0VoX2dTY5l29+3c7BY+l0a1cNi9TbY9yTc9i657yaptkoMafZMipFTJWXQpR8U7VU2uxnMVml0Q2YA4yu6PgNtWh5/KYwnhkbQZXo/+4qKU7Plb2CqZOkZ9+xYjKyXSOq7HY4ctrKsG7eF9p1wUvVqamJTXsLnTpnDRp6t/V/wWAyaDAZNKzcVqBaLJw8ky2pEkpg444zDLntV36ctQuripUQ1aqE0qB2NKfOXv55v23Peb6bsZOE2GCaN4wLWPsuWnWUJ99UnXPzVZTFO0I5kAzo//AI8KaKdvlAHJAlJvMowcAbwF2uGLd925l58uZwYiLU6bFiq53fluby2Yxszqe5Zvrvw4ej6N7Ke8VHXoGd9ydnMnlhjiovlcWsYdFHCVjMnr2tjHzsnFuyu5fpBUm1OVXGJiE2uMLB0Tqdhn0Lb/f5i7mo2MY7X63n2XeXq5p+0mjgxuFNeP/ZPoSHmvjyl208/L8lZOeWPd3avV01Pn25P43rRvucnTqP+oGzyeUrJ2MHTp7JUhtHZgWOA5Ud0NkKyPTFMS1i6h+aoL7w8WiUlWOCZ+gAfIcLMpjHROh4YkwY/dqXL2t3fqGdn+bl8M3sbDJzKnbfqVlFz7TXYtF7eZ2wLfsKefaLdI6dKXsV2yt3RjC0q2c9bu1vPU1BkT0gLgSdTkPx3kd9+hzWbDnFuCfmsOtAirrrJCmcia8OpG+XGv/6/8MnMrj9qbksWnW0zH0Y9FoeGteOF+7vgtnkO1PRSV0+4eTZgJp1iwTSffHAZTXfP+wEjqpse6WYyyMYURLHrayokNJqYFSfYGa+EVtuIQVgNmoYOzSEP96JY+zQEEwVyPx95HQxvyzM9fpOaFnfyNT/OVb8lXG6s5bJ2gyhZPLyi3nizaV0vfZHVUJKo4Hxo1uw/c9b/yOkAGolhbPg22v59s3BRIZf3sNbVGzj9c/X0nTQ18xbflg6Q3A54pn6N+8AD6pol40y1SdPDvfRBMUb1bqiO6oer+fZceG0b+z62lzn0qx8PiOLGUtzsZZj9i8sWMvvb8f5TI6m1TsKeHFiOqdTrKU+AP94J57EWM+FY4pnyvtZtekk456cy56D6rxRtatF8OX/DaRXR3XrS06fy+bu5xfw24L9qtpf0bsOn77Un6SEUK+2m3imfAfxTP2baSrbhQBSFt59An8CsLGiQkqvU7xI016LdYuQAoiL1PHs2AhmvB7HFV2DyvTcXEpmjo0vZvhO+F2npiamvRbH1b1LrjNot8Ofq3JlFAvAP96obqN/UiWktFoN40e3YNuft6oWUgBV4kKY8elIfvlwODGRZXueZy8+SNNBX/P+pI0VLl8jCBceXMK/xeUJoIqKtt8DY8RkLqU28C3QtaI7alHPyPPjIqiT5Nn4iP3Hi/jit2zmr1XvtNTpYOqrcR4/1gp7G7YV8OJX6Zy5xEtVPUHPrDfjPJZzSjxT3sny9ScY9+Qc9h9JU9W+Sb0YvnptEB1aVKnQ755NzuHR1/7i+992qmrfukk8n77Un/YV/F13IJ4p3xIPwj/YgBkq214JhIrJXMYYlPxdFRJSZqOGCdeGMenZmEoRJ/WqGXjzvkgmPRtDS5VlY6xWeG+K7y1g6dzcxLT/i+Xq3v8OOD92ppjtBwtlRAcouXlFPPHmUnre8LMqIaXXaXn8jg5snHlzhYUUQHxMMN+9NYRZX1xJYnxIme037TxLp1E/cMcz89SWWxGE/yCeqf/SA/hLZdtbgUlisgpRBfgSGFzRHXVraeaZW8NJiPaO9Gl2Oyxcn8dHU7M4crrslXCfPxFNx6Ymn+zEvzbl8/JX6X+XyhnVJ5hnbg33yG9/NDVLVY4id7NmRwG7DhepF941I7lygHPrKrQaDf97pLvXjoN5yw8z/ul5HDul7uWgWYNYvn5tEG2buacwcXpmAY+/8RcTp2xVld6jSlwIrz3anTEjm3qFPf/36Roys9XlMzt9Lpvvf9uFXV223RTgayo/FcKlvIiPxiKLmCrZJoeAmiraLkXq9VWEq4FPgZiK7CTYrOGh68O5qpfFK8uZWK3w27JcPpuexbnL5KiqV83AL6/GVqhGXmWSkW3j/77NYM7qPMKCtSz8KB6TIXBuMbn5dq568hynnChD9MuHwxk1qIHPn3tGVgGPva5etFxIVfDSA10xGtz/8jN32WHueEa9yBvSqw4fPt+XWknhPmH/wiIrbYZ/y459yWo36QcslEeQ65AM6CUTh5JpuyxqAD8AaWIy5/QP8AVK2oMKJSVq28jEZ49H06GpyWvrwmm10LiWgev6BxMfpWf7wULyC/77xEnNtBEXqaVxLaNPdqrZqKFv+yCa1jawYlsBSbE66iQFTjkPg15D/eoGZq9Q/2K9ZM0xbr6yKSEWo8+e97L1x+l9w2T+Wntc3TXbLIE/v7qaG4Y1RqfzzJtD3RqRjBvVnPTMfDbuOFNm+/1H0pg4ZRs6rYYOLaui03r3S8Fz761g2rx9apt/D7wtjyERU57gFHCvinYaFJekKHz1NAbmAf0rshOTQcO9o8J4blwEYcG+4crRaTU0rmXgql6Kftx9pIjiS5wYOw4WMap3MEYf9ujUSNAztKuFgyeLaVgjsGqjJcbqOZ1iZc9RddN9ufnF7D+SzugrGvnsOeflF/PepI0UWy8/Y2Q26XnloW589dogqsSGePw4TUYdV/SqQ8+O1Vmx4SSpGfmXbV9UbGPRqqNMn7ePrm2TiI8J9kr7r9lyinFPzlFbSzMFGA7kyKNIxJQnSAauAKqqaNsQ+BAoFrOVyRhgJpBYkZ3UrKLns8ej6ds+yGu9UWUJwY5NTVzdKxitFnYeKuLCcyivwI7Njs/GTl0gyKQJOCF1gXaNjPyxMo+cPHVPt72HUmlSL4Ym9WJ88nxjoiwYDVoWriw953GnVlX586urGdGvHtpK9vLUTAzn9mtbUGy1sWbLqTJFSH5BMQ/f1p7wUO+7JnPzihg49leSU1V7Q+8AVsujSMSUJ9EDQ1S0swD7gG1islKJQHEtPw1U+Ak7fmQovdr4fkHdIJMiqq7oYqGgyM6eI0XYUcTVwE5BhIfIYltfxGjQUCNBz5zVgTPd16lVIgtXHuX46X/nTAsy63nlwW58+b9BxEV7T2Fvg15L3y41Gda3Huu2nubM+dIdNW8+0ZP+XWt6pd0ffHUJc5cdUtt8MfCoXKEipjzNXpSpPjWvI1WAr8RkJb+oA/NxQe6oC9iBK7pY/MZAocFaerQy07d9EOlZNvYfLyI53Ub/DkEyenyUGlX0HDtTzP7j6hzWufnFHDyWzrVDfHO6T6PR0KV1Il9N3f73dF+XNon8+dUohnuBN6o0EmKDGTuqOcFBBpatP/GfVaFtmyXwxSsDvfL4F648yv0vq44wyQUGIvG9IqYqgUKgFtBGRdsk4A+UWCvBcX91vAX9SAVX613K2RQbNw4MwaD3r5ViUWFa+ncIolNTE0s25lMtXk/VGLlEfZUOTUzMWZVHtsrpvj0HU4mNCqJ98yo+eb4xUcpq2jVbTvPyg9348n8DiY3y/pcenVZD17ZJjOhXjw07znLKkSRTr9My83N1uao8TXpmAQPH/kJGluq8WE8Bf8pVKWKqsjgNjFfZNgz15Wj8nVjgF+Bud4wxqw2a1TFSq6reL42XEK1jeHcLhcV2IkJlqs9XMRk0NKyprO5TmwVr8epjXNG7DgmxwT55zp1bJ3LzyKYM6VUHjY8FNMbHBHPr1c2wmPWs3HiS+29uw81XNvXKYx3zyB+s3qz63X0DcDvel1PK77wHQtkDUY13qhioCxwNcHv1RkkX4dbX66t7W3h2bISMTsHreffnTCb9ob4kSN0akWyadTOhwUYxXiWx91AqSVVCCQ7yvkUUn/+8hTufna+2eQHQFtghvepexDOlbjCOUNFOixLOMy+Ax9KLwEQUL51bSclQpvo08jogeDltGhpZtqWAlAx1joHUjHwOn8jg6oENxHiVRExkkEeSiTrLzv3JXH3vTIqKVTuZHgVmSY+6H5lDKJvJwBmVbW9DWbkWcPceh4h81lNj6myqlf3Hi2R0Cl6P0aDhtbsjMRnVK//Js3fz7XRxJgj/kF9QzPUP/k5unur73grgA7Gc57wJwuWxoqQ/6KWirQnIBpYHkH1aoSQtbe3pH64Srad1A5kKEbyfyDAtwWYtK7cVqN5mwYojXDmgPjFRFjGgwN3PL2DOUtVpEDJREiPL6j0PIZ4pdXyG+uKLDwKhAWKXGx1vP7Uq48eXbcmXkSn4DNf1D3YqP1pOXhHXTphFfoHkAw50pvyxh4lTtjqzyUPAEbGc5xDPlDpyUQofq/G+WIB0YKUf28OIkvX9f7ggCWd5OZdmZXS/YMxGCZwSvB+NBjo3NzFvbR5ZuerW951NziU5LY8retcRAwYoO/cnM2z8dAqLVBfQno0k5xQx5cXsBu5BnTevFfApSq4qf6MqSr6SkRV5qDSoYSA1s2Irde12aFDdQL1qBhmdgk9gMmpoVd/ErOV52FQO/407zlA1LoQ2TRPEgAFGRlYBfcf8wunzqleDngEGI7X3REx5MalAE8enLCwoBSX9rQZSN5T4qHKnaY6L1PHBQ1FMuDaMFvWMrN1VSG6+vdwHZDZq6NNOMoULvkNcpI7gIOfip+YtO0y3dknUTAoXAwYIdjvc8NBsVmw4oXYTG3AVUtqsUpCYKef4H6jOv/ckHkgR4EHGO4RUuV+POzU18fMrsbRtpFTo6dTMxNRXY+ldgTp7K7YWqH7DFwRv4YYBwfRtp37cFxXbuPqemRw6ni7GCxBe+XgV0+ftc2aT14AFYrnKQTxTznEWpdZcfRVtLUA+sNTHz9kCfI1SpLhc40WrhfuvCeOZsREEm/8d3xRk0jCwUxBJcTrW7CigyMlY24JCO52bm0iIlqEs+BZdmptYsC6fzBx1bwN5+cUsXXecm0Y28cocSILrmLvsMOOfnoddvdN+FXAzkuVcxJQPcQQYp7JtG5Qklnk+eq61UIoU9y/vDiJCtbz3YBRDu1kum2CzQXUDgztZ2HWkiDMpVqd+IyZcS4cmJhmZgk9hNGho08jI7BV5FKsc8meTc9h7OJVRgxpKwlo/Zd/hVAaN+5W8fNVvlmlIGgQRUz7IcaATSumYsjChTKX6ouu1E8q0XrmXETWsaeCLJ2NoXEtdgHhosJahXS2YTRo27inEpvKtLCffzqg+wTIyBZ8jJlxHraoG5q9T/761+0AKGg307FBdDOhnpKbn02fMFE6eyXJms7H49+pxEVN+zF6UbOdq3g1bAd8DGT50fjcA04FyR7sO727h3QeiiHSyUK9WC60aGOnawsyG3YVkZJfttU7NtDGyp4WQIAkBFHyP2ol6CorsbN6nfvHv0nXHadYglkZ1o8WAfkJRsY1h46excccZZzb7GHhDrCdiylc55RBJDVW0NQBxDnHi7WiAxx0XqL5cA0qnxEc9dH0Yel355yHiInVc2dNCTr6dHYfKLp9Qq6pBtQdMELyN9o1N7DhYyPGz6qe4//zrEIN71iYhVryy/sBdz85nmnMB56uB61CqdAgipnyWHcCdqPNONUOZMjvuxedjAr5ByZxbLhUUF6njk0ejGdTJNakK9DoNXVuYaVbXyNqdl0+hoNXCwE6SIkHwTTQa6NbSzKIN+aq8sQCFRVZmzN/HiH71iI6Qse/LvP3Vel77bI0zm5wF+qIkiBZETPk051DyLTVVc69E8WJ946XnEouSiPOK8u6gTUMjXzwZQ62qepcfXPV4PUO7Wjh6upgjp0sOyjybauWmwSEV8oYJQqW+zRg1dGhsYvaKXNWrWnPyipi77DDXDmlEsEU8s77I74sPcNtTc51ZuVfkuFdLJWwRU37DJhTvlBoFUQ3YBez0snOoh+I1a1XeHVzd28Ib90a6NWYpyKRhkCOFwurtBf9Z/VRshTYNTVSL18uoFHyWqDAtDWoYmbc2T/XDNTU9n/krDnPdFY0xm2T8+xLrtp5m2PjpFBQ6NVP3EDBVrCdiyp9IB6JQVr6poR3wBeAtlUv7oqw0TCyvwHnlzkjGDQtFq/WMR6hBdQMDO1nYdaiIM6n/vgGFh2jp0sIso1Lwaaon6ImJ0LF0s/pC3meTc1m39TSjr2iEXicLMXyB/UfS6HfzFNIzC5zZ7CeUuFZBxJTfsR4lO7iaoIUIlKRqS7zguG93XJjlil6tEq3j8yej6djU8/mdwoK1DOtmQaOFTXsL/36DT8uyccOAEBmRgs/TuJaB7Fwb2w4Uqd7myIkM9h1O46oB9dFIEiqv5uTZbHpc/zOnzmU7s9lWYATKNJ8gYsrvyEPxNKlNbNkJxUWbUknHqwFeAN4ub/83qGHgiyejqZFQeVMKWi20a2SiS3OTkkIhx0Zmjp3BnYOICJE3c8H36dTMzP5jRRw+rd6RvXN/MudScrmiVx0xoJeSkVVAv5t/Yd/hVGc2OwP0AZLFgiKm/JlNwPVApEqb1wV+rITjNDp+957y7qBvOzMfPRLtNYIlPkrH8B4WMrJt7DpcRGKsjhb1jDIiBZ9Ho4Eerc2s3l7A+XT1VUI2bD+DTquhR/tqYkQvI7+gmCHjprFu62lnX9gHocTcCiKm/BorcAwYrbJ9XZTK3ns8eIzBwAwUN3G5uH5AMC/cHolB711TCEa9hh6tzNSvZmDV9gL6tZdl4oJ/YNBr6NHazIK1+WTnqV/utWTNMWKjgmjfvIoY0UsoLLJy1T0zWbjyiDOb2YExwDyxoIipQGEP6svM4Gj7JVDogWOLclyMPct7Q3/+tghuGxbq1fXAaifqadfIhNnkmYM8croYk1HjdeJS8C8sZi3dW5uZvzaPvAL1gmrO0kNEhJnp2LKqGLGy37atdm56eDYz5u93dtMXUZIoCyKmAoq1KMHoaoKJwgGLB944qqCkPmhTno3DgrV8+HAUfdr6hrfHU0IK4I7XU3jzxwz+2pTP+XQbwWYt0RE6KUAruJzwEC1tG5mYuzpPdQ4qgHnLDxMeaqJjKxFUlYXNZufmx/7g5993O7vpVOA+saCIqUAk1SGSOqts3x73ZkavjbJysFF5Nq4Wr2fik9E0qS0xSJeSkW3j7R8zsdngfLqNDbsLmbYklykLc9h1uIjMHDtRYVpCLBIML7iGuEgdTWobmbcmH5v6ECrmLT9MaLCRzq0TxYgexm6H8U/P49vpTufXXIMSklEsVhQxFaisBW4GQlW01TgE1ZcoKRNcSRuHkCpXFGqbhkY+fzKaKtEyREpi5dYC5q7J+8//5xfaOXiymGWb8/lhbg4L1+XRu42ZYCnCLLiApDg9dasZWLAuz5mM2cxfcQSDXkv3dhKU7kkefW0JH/+w2dnNDgD9gAyxoIipQKYA2Ieyuk8N8ShxU8tceAw9gLkosVJOM7BTEG9PiHJrRnNfZ8rCHFUFmIuK4Z6rw2TqT3AZtarqiQnXsmyzU8keWbz6mKzy8xB2Ozz46iLe/WaDs5ueQoltPSlWFDElKGKqKdBYZfsuwDRck0NkJMqqPaeTcWo0cM/VoTwxJlxq3JXBOz9lkpZVtjOxa3MTgzrL6kLBtTSuZUSvg3W7nFu/smTNMfFQuRmbzc5dz83nE+c9UhkoVSn2ihVFTAn/sBwYh7rM6HqU1X3fULHpvjHADyj5pJxCq4Vnbo3gpkGSQbwsktOtfPBLlqq21/YLplkdiTkTXE+bhiZsNti4xzlBtXj1MTRAzw7VxYguxmq1M+7JOXw9dbuzm+YDQ1HCRAQRU8JFZKN4moapbF8FZYpweTl/bwLwWXn61KjX8Ma9UVzRVTwoavhrUwEL16urm/bQdeFEhcl0qeAe2jc2UVxsZ9Ne5wTVX2uPc/JMFoN71vZYXc1AEFK3Pv4n381wupa9DbgB+FOsKGJKKJktKFN4tVW27+a4oE47+Tt3AB+iBLQ7hcWs4b0Ho+jeSgoEq2XyAmXFXllEhWl5YLTESwnupUMTEzl5drYdcE5Qbdp5lu17zzO8bz0MehH8FaGwyMroCbOY8ke58jDfA3wrVvRt5ApyL3aUvFM5KtsbgK9wbppuPPBpeYRUeIiWz5+IplMzk/SUMwp5n7qHVocmJhFSgkd4+PowruvnfM3y3xbsp9cNP3M+NVeMWE5y8ooYfsd0ps/bV57Nn3TcvwUfRzxT7icdJVdIP5XtExwid7GKtveiZMd1+pFdJUbHV0/H0KCGQXrICbJybbzzUyZqVqVf1z+YxrUkXkpwPxoNdGlhJjnDqsprejEnz2Yzc+EBhvSqTWS4eKid4XxqLv1vmcqydeVKFfgC8KpY0T8Qz5RneAfY6OTbSs8y2twOfFAeIVW7qp5Jz8ZQs4peesZJtu4vwqYyv0/rBuLxEzwrqJ65NYIbBjjvodp3OJX2I79n9eZTYkiVHD2ZSbfRP7F+2+nybP4eSqkYQcSU4ATFKCv7ipzol++AyMsIqc/LI6Sa1DbwzbMxJEgyznKhdoov1KKlZlURq4LnBdVjN4UzfkSo09umpOfRb8wUZi8+KIYsg537k+l67Y/sPZRans0/Ah4UK/oX8kT1HGdR0iR0U9k+HKiBkn/qYu6mnDFSnZub+OTRaEKlxEm5mTgzm5PnrWW2a9/YyBVdLGIwoVJo37h8aROKim1M/XMviQkhtG4SL4YsgWXrj9P/5l84l1KuOLMvHfdwQcSUUAGWA4MBtVVHmwJHgK2Of99FOWOkBnYK4s37IjEZJSK6vFit8H/fZVBctpZiWHcLbRrKNJ9QuYLKqNewdqdzmdJtdjuzFh0gK7uQvp1rSuqEi/huxg6uuW8WOblF5dn8W5RZBbtY0v8QF4VnKUTJJ5LjxDYfAnWBO8srpK7saeH/7o7EoJebYkU4cLKIvAJ198GW9STwXKh8xg0L4albwsu1qvSdr9fT+8bJstIPpTzMCx+s5JbH/qSg0FqeXUwExuL6GqyCiKmAZS/wkBPtQ4FFwCflEVKj+gTz3LgI5OWy4uw6pO5tVKeDppL1XPASru0bzPPjItCVYx5i2frjdB71Izv3Jwes/fLyixk9YRYvfrDSqeLSl7wQ3yFCSsSU4Hq+AH5zon318gip6/oH83Q530qFEsTUEXViqn41A0EmMbrgPYzsaeGdCVHlmuY/cDSNTlf/wNQ5gVcy7sz5HHrd8DO//LmnvLt4E7gfmdoTMSW4jbHAcXft/KZBITx+kwgpV7LzoLpg3ia1JXeX4H30bG3m88ejCQt2/raflVPINffN5IFXFlFUHBgOlo07ztDhqu9Zu/V0eXfxCvCYjDwRU4J7ScNNc+hjh4bwyA1SxsSVFBXb2X+8WFXbRjVlik/wTlo1MPLNszHERZZv7dH7kzbS47qfOH46y6/t9O30HXS99ieOncos7y6eAZ6VESdiSvAMC4F3XbnDmwaFMOHaMLGsi9l/vJjCYnWe+qbimRK8mLpJer57PoZa5cyDtnrzKVoPm8TcZYf98KXJxn0vLuSWx/4kv6C4PLuwoqQ+kMzmAYakRqh8lgJXoJSRqRA3Dgzm0RvDxaLu6KTNBSzbnF9mO6New6M3hqGTiH/Biwm1aBnYKYit+ws5k+L86rTc/GJ+mrWLjKwCenasjl7n++/lZ87ncMXt0/h1brljwwqA61ESLgsBhnimKp8LF2CF1h+P7GnhkRtESLmL/cdVBp/XMEgKCsEniAjR8sUT0QzpElSu7e12ePebDXS6+gf2HEzxaVus2nSStiO+ZcWGE+XdRSYwCPhVRlZgIp4p7yAZMFJ2Pb5ShdTz4yIkRsqNTPojh1PJZb/B92htpnsrKRYr+MgDQKehd9sg0DifLf0CZ87nMGnaDmKjLbRpmuBT52+z2Xn987WMeeRPMrIKyrubMyiF7FfLiBIxJVQudVBKxIQ4u2H/DkG8cmek5JFyM+/8nEl+YdkxUyN7WGhSWwLQBd9Bo4F2jUzUTtSzbEsB1nLkpCwqtvH74oOs2XyKXp1qEBbi/dfA+dRcrrlvFp/9vAWbvdyZCw4DfYCdMpICG5nmq3xigT+BchXC2nesiJw8yQXnTpIzbKRnqbNx3WoSfC74Jv07BPH549FEhJb/sTBv+WFaDPmGybN3e/W5Ll59lBZXTGLO0kMV2c1qoCOwX0aPIGKqcgkD5gL1y7uDI6eLeeyjNGyip9zGgePq63DVSdSLwQSfpVUDIz+8EEPdpPKP45T0PK574HeuuW8myWl5XnV+xVYbz723gn43/8Lpc9kV2dVkoDdwTkaNADLNV5kYUbKgd63ojo6ftVJUbKdjUyms6w7+2lTAqm1lx1PEReq4fUSoGEzwacJDtAztauHYGSuHThaXez+7DqTw5S/biAw307pJQqXHdB46ns6IO2fww287sVcsH/kHwHigSEaLIGKqctECPwFDXbXDLfsLqZ6gp55MM7mc35bmsltFKZnm9Yxc0dUiBhN8HoNeQ7/2QZiMGtbvKih3LZT8gmJmLz7I0nXH6dImkeiIII+fi90OE6dsZcSdMzh4LL0iuyoAxgGvI+VhBBFTXsF7KNnPXcqKLQV0amYiLkq61ZV8N0fdSr7ebYPo3Ey8g4J/oNEo036NahpYtiWfovI7qThyMoOvp27HbNbTrnkVtB5aMXPybDaj7v2N9ydtrGgZnGRgCPC7jAyhJCRmyvM8h1L40uUUFNl56P00ktOtYmUXcvysuqdI7aoSLyX4Hz1am/nxxVhqVqnY+M7JK+Lh/y2hzfBvWb7+hNuP+6dZu2g2+GvmrzhS0V1tBdoDK2Q0CCKmvIPxwIvu/IGzqVYefC+NwiLxQrtEoBbaOZemTpxWTxAxJfgntarq+enlWAZ0rPg03bY95+l+3U8MHT/NLTX+Tp/L5qp7fuOGh2aTlpFf0d1NBrqgpEAQhFKR+SDPMRL41lkB26W5iVPJVqcCJs+mWjl53kqftkGSyLOCHD5VzC8L1SWnv3dUKMFB8n4i+CdGRxxVeLCWdbsKK7yCeN/hNL6aug2jQUfbZgnoKliSxmaz88mPmxl51wy27K7wIrti4FHgESTQXBAx5TX0AGagrOBTTc/WZt5/UMn7smKrc9l59x8vxmqD9k0khqcibNlXxLy1ZS/vNhs1TLg2TMSr4Pc0q2ukawsza3YUkJVbMQ94QaGV+SuO8N2MnURHmGneMK5c19CBo2mMum8mn/ywmYLCCoc5pDhefn+U3hZETHnRvQeYj5PZzds0NPL+Q1EY9Bqa1TGSnG5l12HnXpA27S0kIUpHo5qywq+8LN2cz5odZQvZ2okGrukbLAYTAoLYSB1Dulo4eKKYY2eKK7y/jKwCfluwn0Wrj9KkXgxJCepSjOQXFPPqJ6u5/sHfOXA03RWnthElf9Rm6WVBxJT3UAVYjJPZzesm6fns8WiCzf+4vbs0N7F5XxGnzjv31rViawHN6hipFi/xPOVhzqo8dh4qW8S2rG90STyJIPgKZqOGQZ2CMBo0bNxTiM0FYZrHTmXy1dRt7DmUSouGcZdNpTB78UGG3TGdGfP3Y7W6JEb0E2A0imdKEJxCAjzcRyhKmZjqzmxUNVbHZ49HExb8767R6zS8dV8kibHO6d9iq51HPkxl3zGZ9i8PaoPPq8WJWBUCD40Gxg0L4bvnY1y2AMNuh8mzd9Ow/5dcc99MDh1P/9f3h46nc819Mxk6flpF80ZdINMhou4B8qVXhfIgnin3oAemA92c2SgiVMuXT8WQGFvyTcls0tChqZk/VuQ6lfOlqBiWbS5gQMcgCZB2km//zOZ8etmRtgM6BtGsrhQ4FgKTuEgdw7tbOJtqZd+xYpfs025Xsqh//vMWktPyaFQnhne/Wc8ND85m257zrjr0tUBfYKX0olChFwsxgVv4HCUNgmqCTBq+fCqapnXKfiD/tSmfB99Nddqt3qC6gW+eiyHYLN2ulj73nCE5o2wx9faEKPq2M4vBhIBnwbo8Xvoqg8wcry4Yagc+RFmxVyi9JlQUcVO4niecFVJ6nYa3J0SpElKgrPJ76Powpw9s77EiHvkglaJiyUGlhqJiO6mZ6h4I8VFyKQkCQL/2QUx+JZYW9bzWU5sCXAFMECEluAqZ5nMt16AEMap2/Wg08MJtEfRr71zwcot6RjKybew46Fws1PGzVo6dtdKnneSgKouzKTZ+mJujqu1dV0mOKUG4QFiwluHdLZiNGjbvLcTqXU6qc8CrQLb0lOAq5O7vOroB3zlr0wdHhzG8e/mK4z52YzjdWzk/tTR3dR6vf5chPVYGyRnqgs+1WogOk/cSQbj0uhg7NISfX4n1tvQsNYG5QKT0kuAq5AngGhoAC1BW8KnmxoHB3H11WLl/VKNRpvxWbSsgOd25V78dh4rQAG0bSVLP0th7tIg5q8tO2BkToeOWISFiMEEogagwLSN6WAgyaV2WQsEFxKMkU56CTPUJrnh5EBNUmBiUSuJRzmzUvZWZh68Pr/CPW8waPnokiirRzuviT6dnqZ7GCkTSstQJ1KhQuYwE4XLodRrGDg3h2+eiqeU9BcE7AjMBWTkiiJiqZCzAbKCeMxs1r2vkrfsi0brI+jEROj58JIrgIOeDoN7+MYO5KrwvgYja1UihwXIZCYIamtYxMuWVWG69IgSdG+dFosNUX5O9gZ9R0tkIgoipSkADfAV0cGajxFgd7z0Yhcno2ujvetUMfPBQFEa9c/u12eHpz9Kdrv0XCKhdyRcpnilBUI3JqOGB0WFMfjmWJrVdG0t1oUbmH+/E07qB6tWEI4Bv5HkoVASJmSo/L6FkzFVNRIiWr56JoUqMe8xeNVZPzSp6Fq3Px5mwBJsdlmzMp30TE/FRMiQusGBdnqp6iK3qG+nRWmYKBMEZosN1jOgeTHiolk17CymuYH3iri1MfPJYNN1bmTHoNfRpZ2bF1gJSMlS9FDUHooE50jOCiCnPMRp4HydSIJgMGj5+NJqGbl7VUifJQHiI1mlPU7EVFq3Pp0tzEzERMiwAZq/I4+DJsrM5d2pmomNTCeQXBGfRapWwh4GdLBw6WcyJc84rqrBgLY/dFM6jN4YTatH+657bu20QSzbmq52yb48y3bdEekYQMeV+2gMzANWqSKuB/7s7kq4tPOO9aFbHSHGxnU17nVukUlBkZ8H6fLq1NBMVJh7vWcvzOHambDHVo7WZVvWllIwglJewYC1XdLFQJUbHlv2F5BeW7VvXauDKXhbefyiq1Ck9i1lD91Zm5q/NJzdflb++O5ADrJJeEURMuY+qwEKcXLn3wHVhXNUr2LOKr7GJs2lW9hxxLqlnfqGdhevy6N7STGSAC6ppS3I5lVz2m3KvNmbV2esFQSgZjQYa1jRwVS8LBUV2dh4uwl6K/mlU08DbE6K4tm8w5jLiT8OCtXRpbmbemjwKClUJqn7AaWCj9IogYsr1BAHzgIbObHRVLwsTrg3z+MFqNNC9pZkDJ4o4fMq5wqN5BXaWbMynVxsz4SGBK6imLsrlXFrZYqpvuyBvS0ooCD6LyaihawszPVqZ2XO0+F/XYFiwlgmjw3jhtginYk+jwrS0bWRk7po8NUXiNcAQYB+wQ3pEEDHlOrTAZJTq4qrp1tLM/90dWWllWzQaZQpq455CzqQ4F4uQk29nyaZ8+rQL+lccQiDx84IcVcGrAzoGUa+aiClBcCWxETpG9rRQLV7Hpr2F9G1v5sOHo2nfxFSue2p8lI7GNY3MX5uPrezLWgMMQ/FOHZDeENQMGKFsXgGedmaDBtUNTHouBou58k2cnWvjtv+lsNvJKT+AavF6vn4mmrhI53R3YZGds6lW0rJsZGTbyMyxk5FtIyPHRkaWjcxc299viDl5tr9rd2Xn2bHZ7Gj4d/6mS/+tvKVqLvn3v4NPLWYNFrOWUIuGINM//w6xKH8GmTQEX6Z/hj58jmNny36NfWdCFH3ayWo+QXAXRcV2DHrX3EvnrcnjiY/T1GZizwUGAsulFwQRUxXjBuB7Z2wVE67lx5diSYj2HsdfWqaNsa8kc8jJKT+AWlX1fPV0DNHh/xYzKRm2v6cRTydbOZ1i5XSylVPJVlIyrKXGO3gboRZFWAWZNAQHaf7+95odBaoCYT9+NJquLWQ1nyD4ClMX5fDKN6rrk2agJPfcJJYTREyVj44oy2RVux1MRg1fPx3tlQHJZ1Ot3PJyMqfOO7/8uG6Snuv6B3PgeDEHThaz/3gR6Vk2GSEoCVOrJ+iIi9ARFa4lPkpHVJiWuCgd0eHK37VypQmCVzFxZhYfTc1S2/w8Si2/3WI5QcSUcyQB64EE1cbUwOv3RDKgY5DXntTxs8Xc8nIKyelW6WEPodNBVJiOuEgtCdE6qkTrqBKjJyFaR0KUloQYPTHhkopCEDzNWz9m8v2cbLXNTwDdgCNiOUHElDrMwDKgnTMb3XVlKHdeGer1J3fgRDHjXkkmPVs8S96CUa8hIUZHQpSOqrE6qsXrSbrwZ5wuoFdVCoK7sNuh331nOa/+5fKAQ1CdEesJIqbKZhJwszMbDOoUVKkr95xlwbo8HvkgTXraRwgL1pIUpyMpTk+1eOXP6vF6aifqJcGqIJSTWctzefbzdGc32w70BFLFgoKIqdJ5AHjXmQ2a1DLw9bMxZSaPq2xOnbeyZFM+89fmsXV/oc8EiAuXJ9Si/Vtg1U7UUydRT1KcnjpJekwGucQFoSTSs22MeOwcaZnl8tCvQ0mVkyWWFERM/ZdewHyU+kyqqBKt44eXYr025iU108ac1XnMWp7rdDZ0wbcx6DVUi9NRJ8lA3SQ9dasZqF9NEVpacWYJAc5Tn6bxx8q8iuxiEUpyzwKxpiBi6h9qoAScx6rdINisYdJzMdSv7l0JG61WWLoln5lLc1mxtYBiq7ighH8wGTXUSdRTr5qBOol66ldXxFZspOTwFQKDVdsKuOuNFFfs6jdgFFAsVhUxJYAFWAG0UruBVgPvPRhFj9bek6wxJcPG9L9y+HVxrtMZzwUhKkxLw5oGGtYw0KimgYY1DVSL0/tMHKAgqCG/0M5VT5zjxDmX3SO/B24BZEWPiKmA50fgemc2uP+aMMYNC/GKg99/vIhJf2Qzf00+hcXihRJcR3CQ5l/iqlFNI7WryjSh4Ls4mQ5BLR8B94l1RUwFMo8CbzizQd92Zt66P6rS39g37y3k69nZLN+SL8HkgscIMmloUMNA41qOT00jtRPFgyV4P3uPFXHds+exusdx/wrwrFhZxFQg0g+YgxMFnxvWNPDtc5W7cm/T3kI+mprJxj2FMoK9g7nAD0A8SrLXOMef8UAiEOrvBogO19KktpFmdQw0qW2kaW2D5MYSvAqrFa5//ry7F+I8Crwl1hYxFUjURgk4j1K7QWSYlp9fiqVKTOUE6u48VMRHv2ayaptHFo8UAiuBpjgRlB+gzAKGX+Z7i0NUJQA1geqXfGo62vjPjUUDtaroaVHfSKv6RlrUM1Kzil5GilBpfDM7m/cmZ7r7Z+zAeOBLsbiIqUAgCFgFtFS7gV6n4Ysno2nT0PM1904nW3l3cibz1+a5ezpvF0pqiPkoGeBzgEbAQqCqXC6lsh5oX8F9xDiEVTWgFlDH8anrEFsGXzdSZJiWFnWNtHQIrEa1DJIHS/AIp85bufKJc+QVOH8D1WiU+pv7jxepvf9aUWJwfxHLi5jyd74GbnVmg6dvCeeavsEePcjcfDtf/57Nd3OyKSh0i4qyAxuA6Y7PvlLa1XEIqppyyZTIcYcQchc6x/7rXiSy6gD1gXqA0ReNZtRraFzbQNuGRto0NNGyvhGLWcSV4HrufC2F1Tuc8+hrNNCtpZl7rgqlYU0Dk/7I5t2fVXu2CoERKGEkgogpv+R24AtnNri6t4Vnx0Z49CAXrc/nte8yOJfmlkjJncB3wM8OIaCGag5BVV8umxJvnGaHOPU0ehRPViOgIdAAaOz4e4QvGVGngya1jLRpqHxaNzARHCTiSqgYzpaMuVREXcz7UzL5+nfVKwFzgYHAcukFEVP+RhuUfFKqk0O1amBk4pPRGPSeMdXpZCv/910GSzflu3rXqShB0t8BG8u5jwRgAUoclfBvYoFkLzumBIfIagw0A5oDTYAwXzCoVguNahho3dBE+8ZG2jQyESyeK8EJ0rNsjHhcXcmYy4moC9jt8PLX6Uxbkqv2EDKA3sAm6Q0RU/5ClENE1FT9JIrW8dNLsUR7oFSM3Q5TF+Xw7uRMcvNd6uDYAnyMkksrzwX7iwbmOYSp8A/NUQqg+sI1X9MhiC8IrKYoHi2vjhDX6aBZHSMdmpjo0MRE87oGj73kCL6JmpIxakTUxdhs8NhHaSxYp/p2eh7oAeyWHhEx5etogd+BwWo3MBk0fPNcDE1quT/u90yKlRcmpjs9p3+56x1lhdnbKJ44VxMO/AF0kUvob4YAf/rw8ZscoqoNSiWA1g6hZfbWAw4yaWjT8B9xVb+6QXJdCX9TVskYZ0XUxRQW2bnv7VTWqL9nnwC6AUekZ0RM+TLPAi85s8GLt0cwoof7V6svWJfHC19mkJ3rkkoERShxUK+jrMxzJ8HATKCPXEaAf+aX0aNMEba+6NPS0fdeR2SYlo5NTHRpYaJzM7NHPMqCd3K5kjEVEVEXk5tvZ/z/pbD9oOp8fweA7sBp6SERU75If5QVFarvrJ4IOC8qtvPOz5n8NC/HFbuzotSHetHDbz5mYCpwhVxKTMLJFaI+ig4l7qo90MHxaYwTiW89cmPTQIMaBro0V4RVy/oG9DpxWwUKJZWMcZWIupj0bBu3vpzMoZOq6xxvB3qixLAKIqZ8huoocVIxajdoVsfI189EY3Rj/pvTKVYe/SDNmTea0rCjVC1/Bvd7okrDgJKgbkyAX0vrHMIiEAlBmR7scNEn0ZsOMDhIQ4fG/3itqsbqEPyTS0vGuENEXcy5NCs3v5TMqfOqV16vBfoC2dJbIqZ8ARNK4knVyRSjwrRMfiWW+Cj33WiXb8nnmc/SSc+u8LTeJmAC7omJKs84egN4JICvpWyUVXJSJVEhCeiKElfXBSX+ymsUTJ0kPT1amenW0kzLekYp3OwnWK1ww/Pn2X2kyO0i6mKOnSnmlpeTSclQfV9fjBJnmS+9JmLK2/kQuFdtY50OvngimraNTG45GJsdPp6ayVe/Z1c0i/l54GngK5RAc2/iEYeoCtT5lFpIgGlphAKdgM4OkdUBxaNV6USEaOnSwkT3lmY6NzcRFizKylf5ZnY270/J9JiIupg9R4oY978UZ+JfZwJXA8XScyKmvJWrUWJ51KuAG8K4aZB77u0FRXae+Syd+WsrlJnADnwLPIx3z7ePcQi9QCzE5usr+jyJHmiBssKpl+PPyMo+KJ0OWtU30q2lmR6tzNSqKvUEfYXTKVbem5zJrUNCPCqiLmbjnkLueiPFmYoVPwA3e+GLsSBiitooU2Dhajfo087M2/dHuWVZdWaOjQfeTWXjngrFRx0G7kSpmecL9AVmeIvnwYO8CLwgt5UKXbt9HZ/eKDnNKpWkOB3dW5np3z6IlvWNknrBiym22r1ikcGyzfk8+F4axVbVguoT4B7pQRFT3oQJJYaordoN6ibp+f6FWLfUBDt13so9b6Zw6FSFvLjfokxX+lqwYidgNkqy1EBhiUMECBVHixJn1dPx6UEll8epGqujT9sg+rQ106K+Ea0IK6EUZq/I45nP05wJ6XgVZSGRIGLKK/gAuE9t4xCLlp9fiqF6gutd+buPFHHvW6kkp5e7tl4mcDdK5nJfpTFKtvSkALme8hwP/EIEV6MD2vGP56oTlVjgOSZcS882Zvq2C6JdY6OkXRD+w0/zcnj9+wxnNnkYeEcsJ2KqsrkS+FXtOWk08Nb9UfRt5/oEz5v3FnLPmynklL8szHrgOuCgH/RLdWAuSo24QKArsFJuLW4nGCUB4gVx1ayy7mdhwVq6tzLRp10QXZqZMBlFWAkKn0zL4vMZWWqb24FxwDdiOd982/MHaqEE/gap3eDGgcFuCTjfsq9CQsqOkkX7RryvaG55yUDJyt4JqBEA19QBvCNdhb9T5LD1fOAzx2czkAtUwYNZ2guK7Ow7Vsy8NXn8MDeHPUeLsdqgSrTOrfnqBO+nXWMT6Vk2dhwqUuvcGALsAPaI9XwLf7jSjY6HVzu1GzSva+SbZ6Nd7prful9ZyZGTVy4hlY3ijZrtp2PN5Hjjus7Pr6m5wCC5tVQqWpT6ggMdfdGxMl4cjXoNHZqa6N3WTK/WZiLDJOVCIGKzw5MfpzF3jerV3PkOUbVYrCdiypO8h5K8UhURIVomvxpLlWjX3lu3HyzkjtfKLaROoJRk2RoA4+1V4Ek/PsdsIBZJxudNRKJMBQ50fKp6XN1poW1DE4M7B9G3vZlQiwirQOHQyWKe+TydnYecCqXMQql7ul4sKGLKE4wApqs9D60GPnwkmq4tXJuYc+ehIsa/llLeYsWbgKHAqQAad7ejLAf21yQ+I1AS8gneec9r6Xh5GYqy8tej90GjXkPXFiYGdQ6iRyuzxFj5KVYrfPtnNp9Oy6KwuFwv2ckocYG7xZoiptxJdWALTiT6u314KPeOCnXpQZw4Z+WmF86TmlkuIfU7yrRXTgCOvYHALyiZsf2NH4Cb5PbiEyQ4hNUVQD/A4skfDzZr6NXWzODOFjo2MaGTkoF+waGTxTz7RTo7Kl5/9QTKopajYlURU+5Ah5LTp5vaDdo1NvHFE9EurcGVkW1jzIvJHDldrjxSHwEPANYAHn8tUWLEEv3svDKAeKBAbjE+RRBKnrChKDErHk3pERmmZUCHIAZ1CqJFPUkQ6ou4wBtVEvscz7pzYmERU67mOZRs06qICdcy5X9xxIS7TkkVFtm58/WU8mY2f5vALgp8MdWAP1CWtvsTQ/HfxQSBcm9sA1zl+NTz5I9XjdUxsGMQgzsHUa+aQXrDB3ChN6okNqOUXcoQS4uYchVdgL9QGW+j1cLEJ11bwNhuhyc/SWPO6nLV2nsTeEyG3r8IQ8kR1s+Pzulb4BbpWr+h2UXCqqknf7hukp5BnS0M7hRE1ViZB/Q23OSNKollKOEReWJ1EVMVJcKh0Guq3eCuK0O580rXhuUs3ZTP/e+Uq9bw68ATMuxKxIAy9TneT84nA2WaKFu61u+o7xBVV+JE6aoK36w10KKukYGdgxjQIYgoSbVQ6bjZG1USsx3jrkisL2KqIkwGrlXbuG0jExOfdG2cVHKGjdHPnOd8mtOhTv8HPCVDrkwmoEyD+sMr+N3Ap9Klfk2Ni4RVJ5QcV25Hp4POzcwM7x5Ez9ZmDHoJsPIkHvRGlcQPwM2ATXpCxFR5uBX4Wm3jyDAtv7waS1yk657JxVY74/+vXHFSnwN3ynBTTX9gCpVc2NYF7AaaoGS2F/yfGGAwMAoYgOJtdTuhFi0DOpq5oouFVg2M0gtuxtXeKJNRQ9UYHUdOFztTGPkT4B7pDRFTzlIPJR+TqvovGg18+HAU3Vq6tu7eG99n8OM8p7MYzHS8uVpluDlFI5TUEXV8/Dz6AoukOwNSWA13XPt98FBR5gY1DAzvbmFI5yAiQmUa0JW4yhtlMmpoVNNA6wZGOjQx0aqBEZNBw9RFObzyjVPx5S8CL0jPiJhSixFYhbKyRhVjBofw8PVhLj2IvzblM8H5OKk1jhtprgy1chENTAN6+PA5zERJ4ikELuHAMGA0itfV7clqDXoNPVqZGN7dQpfmZslfVUEq4o0qTTyVxMSZWXw0NcuZ3U8APpAeEjGlhjeAR9U2blrHyKRno10aQ5CcbuXqp86T5lxizgNAZ+C8DLOKPRdQXNq3+eoLLVAXOCJdKaCUGroGuB4lxsrt9+CYCB1DuwYxrLuF2lX10gPOXLzl8EY5I55K4q0fM/l+jup1KzaU+KkfpLdETF2OXsBCVAZ1hli0THkllqQ4172G2e1w95sprNrmVP7FNKADsF+GmMt4AHgL3wxM/xoYJ10oXEIth6i6HmjsiR9sXtfI8O5BDOwYRIjUB7wsar1RFRVPJT1znvsinVnAXuiiAAAbeUlEQVTLVU9oFKMsgPhdek3EVElEoBT+ra52gzfvi6R/hyCXHsRP83J4/Xun5rFtKC79P2R4uZxBKCs6w3zsuK0oeYqkxpZQGi2BG1CmAt2eed1k1NC3nZnh3S20a2xCK4sB/7lYy/BGuVo8lXYMD72fyl+bVNdLz0PJQbVMelDE1KX84Li5qOKqXhaeGxfh0gM4dd7KlU+cI6/AqWDDF3AiO7vgNI1R4pDq+thx/waMlO4TykCLUtz2BpTg9Uh3/2CVGB3DulkY2cNClZjADq4qyRvlCfFUEgVFdu5+I5UNu1XPimSglEPaJJeRiKkLXIOyNF4VNavomfxKLEEm157Ona+nsHq7U9N7f6B4pST/h3uJBH5GWX7uS3QGVkv3CSoxoXhjr0cpT2R2549pNdClhZlr+ljo2sLs0vx83s7F3iiNlkoRTyWRk2dn3KvJ7D6iOkfnOZQ6fvvk8hExVRXYDkSpaazXafj2uWia1nHtyuNZy3N59vN0ZzY5CzRHilF6cuw+j1Kn0VcmKZY7vA6C4CwWlOLLY1Cmc9waSR4bqQStX9M3mCrR/u2tOnneys/zczDoqXTxVBLpWTZufTmZQ6eK1W5yAugKHJXLJnDFlAaYi7J8WBUPjA7j1itCXDt4s20Mf+Qc6dmqHUx2xxvkPBlSHuda4Csg2EeO9zqUuC9BKC8JjnE0FjfXCdTpoGdrM6N6B9OhqX/GVtntSm5Cb+Z0ipWbX0zmbKrqdIW7HS9uyXK5BKaYuh94X23jNg2NfPlUjMvd0a9OyuCXhU4l53wfZbWZUDk0B2YAtX3gWFNQsqKflW4TXEAbFG/VDSh52dxGtXg9V/a0MKKHReoCVgLHzhRzy8vJpGSofsnfCvQE0sV6gSWmGgEbAVXL8cJDtPz6f64tFwOw/3gR1z5zHqv6fOW7gdZAvgynSiUaxePT1weO9VeUkiOC4CqCUJbH34qSUsZtaseo19CnnZmrewfTtpGUr/EkOw8Vcfv/ksnJV70oaglKiSN5PrkZb5kM16NUw66hdoOXx0fQop7rL+SnP03n2FnVSsruuIEdkqFU6eQBP6EE7XbBu+OoGjtE+E7pNsFFFKPEmn6HktfsHIqn1uWrAa02OHCimFnLc5mzKo+8Aju1EvWYjZJfwd3ERepoXtfIvDX5WNU5qGqheO5/RRZGBYSYegElBkAVI3tauG1YqMsP4q9N+Uycme3MJhNRsnML3oEdJcnrfpQYNoMXH2tPYBJSakhwPZnASuAjlEUPepT6pi4PWs/ItrF2ZwE/z8/h+Fkr0eFa4qOkdo07SYzVUzvRwIL1eWoLIzdAydc4S6zn32KqDfAtKt3S1RP0vP9glEvLxQDY7PDoh2mkqi8Zcxolb5C4T72P7cAclFVPEV56jMGON8afHSJQENzxcnEYmA58DBwD4oBEV/+Q1Qp7jxYx469clmxUbom1qhpcfp8WFGon6omP1LF0s+rHT0uUZMeySMpPxZQJJTdTFTWNtVr44KEokuJcvyp4zuo8flnkVND5XcB6GUJeyxnge6AF3pvgsy7KkvcF0l2Cm8kHNqB406cBBY7x5/JVsCkZNpZtKWDKwlzSMm1Ui9cRHiIB666mUU0DZpOGNTtU50LshDIdvFys53oq+7XhVeAptY3HDg1hwrWuryRitcKIx89x7IzqPB7rgI7iUfAJtCi5qJ7FjUG5FeQGlHiv0qjmeLNs6HjxiEVZHn9xPEwhkIXiMT0CHEdJ3Lce8Z4KJWMErkAJWh/krpdrrQa6tTJzff9gOjQxeX0aAl/j/SmZfP27U+EpdwOfiuX8R0y1RckGrcrNVL+6gR9fjMHohmRqvy3L5fkv0tU2t6NkmF0pw8enGITiqYr2wmPLQ0myt8lxTbZCWYHT0yGiKnLMBQ5BtRwlfYR4U4WSSAJuB25DSZzsFmon6rm+fzBXdLW4vGJFoGK3w8tfpzNtierwS5vjBU7y3fmBmDKhpEFooqaxQa/hxxdjaFDD9fHENjtc+fg5DqvPLjsVpdyN4HvUdPRfWy88tmMowfODUDntXU52oAS+fweclyEhXIIepSTWnShpRtzyjAi1aBnZ08K1fYNJipOA9Qo/x2zw2EdpLFiXp3aTImA4Smyp4AIqaxS/gpJSQBV3XRnKgI5BbjmQJZvymbxAdaxUMUrx0VQZOj5JOop3Kg5l4YM3EY7ikQp18+/EoVQYuNNx/W9w3FgF4YLXYrfjOvkJZfq4AUpsn8soLLKzdX8hk+fnsOdoEZFhWhJj9TIFWE40GiVT/faDRZw4pyq1jw5lAdVSlJAAoaJ9UAm/2R5YpVbINa1j5LvnYtC5SfaNeTGZrfsL1Tb/DrhZho1fcAtKWougALfDSeBhnCgsLgQcZpQks3eiFOt2C3WSlCnAIV1kCrC85ObbGf9/KWw/qPqZloZSdmaHWM+3xJQZJS6kkZrGJqOGKa/EUquqe2p6btlXyM0vqS5dVOw47gMybPyGFigrm+qIKfgSpZxTnphCuAzNHaLqRtzkRQ0LVqYAR/cNpmqsTAE6S3q2ozDySdWhKydREh1LYeQK4OmR+gowQm3jB0eH0aO12W0H8/6UTPYfVz3gvgO+kSHjV5x19GtjlKmMQKY10AMlJ1GBDA3hMtfMHygJQY+iBK4nuPIHChxTgD8vyGHvkSKiwpUpQEGlx8KooXdbM4s25JOVq2rBeRhKrOYUJIlwufGkZ6o1sBaVq/faNjIy8akYt1UpT820MeD+sxQWqxpsdscDd48MGb+9Dh5FSdUR6HftTSirCLNkWAgq6YiSd+8alNkHl1M3Sc9Ng0IY3DnILSu6/ZFjZ4q5+aVkZxJRrwd6A9liPefxlGdKj5LKXlXm3SCTho8fjSbCjYnefpqXw6rtql/A5wAfyHDxa1YCc1FWMEUGsB2qoKRjmIzkURPUcQL4DcVbdRilHlycq19+/9qUz7QlueQV2KlXzSC1AMsgPERL52Ym5q3Jp6BI1aWc6BDGUwCrWNA7xdRjwE1qGz95cwSdmpncdjB2OzzzeZpaFyjAPUgx40DgFPADiheyfgDboR6Ku19yqQnOUICS8uYzlByC0SjxiC5TPXkFdjbsLmTKghzOp9uoWUUv2dUvQ3S4jhb1jMxdk4dVnTyqhZIZf4a8THmfmKrveMtVNX3SpbmJR24Id+sS2U17C/lhrup0CDtRpoCEwCDPMV6zgV54TzFwT9MV+AVJAyKUj4PAj45rSYOyeMdlb8jFVthxqIjJC3LYf7yIhGgdCdESrF4SVWN01K9mYP461YWRmwJRSA4qrxJTGscNuZ6axqEWLR8/Gk2oxb1vGl/NymLXYdWpdV5CKR8jBBarCOxpP73jhjpdhoJQAVIcD+WPUMoc1QNiXLVzO3DoVDEzluaybHM+JqOGuokGtOKs+hc1q+hJitOzZGO+WndTB6SOn1eJqTuB+9Q2fuG2CFo3MLr1gAqL7Dw/MUPtHHI+St0qWS4emJxCSV4YqKv9mjjOP12GglDRWy/KFOCnKIsc4lCmlFw2B3E+3cbiDfnMWZ2HTgd1kwzodRJXdYH61Q2EBmtZuU11rHAvxz1wk1ivcsVUIsq8q6rVHX3bmbl3VJjbT3jplgJmLVO9+vNXlBgaIXC5MO2XibLSJZDmErTAOXk7FVyIHdiLkpJkGooHtBHgslphGTk2lm8p4NdFueTm26mTaMBiFlEF0LyuEZsNNu5RldRTg1IjdDuykr1SxdQPKEkRyyQiRMvHj0V7JOvtxJlZzuSWeggJPBcUVgPzgX5ARACddzgwUbpfcAPngNkoAetpKPG14a7aeX6hnY17Cvl5fg6nk61UT9ATGSrzf+0bm0jLtLHzkKpQFy1KDb8VSFLPMpWnOxiJE7EWL98RwbBuFrefrNUKve45Q0a2qrwbZ1C8azYZJsJFRAJf40TyWR+nGCXTdb50veBm9I7r6n6gm8sfdhro2sLMzYODadfYFNCGttnhqU/SmLNadQRLBkpS360yTEvGHZ6pEMfbhqo3jA5NTDx8fbhHClxu2FPA1EWqp/i+d5yHIPzrhRclD8t5lGk/g5+frxYlh9Bp6XrB3c94YBdKpYnfUUJEGuHCRLrHzhQza3keSzflExKkpXaiISCLK2s00LONmV2Hizh2VlXOBDOKh2o6EkNZ6o3S1bwIVFPT0GTU8MzYcI8N5iUbnXq5nibDQ7gMn6AU7Q6EAqHx0t2Ch9mEUoy8OvAcShkbl7H7SBGPf5zGsEfP8eviHAqLAi+lkl6n4e0JUbSsr3rRVxWUlZnRMjz/i6s9Uy2Ar9SKtHuvDqOnG2vvXcob32eqneJLRlmFKFN8wuU4B0xCSSHQzo/P80+UIFRB8DQ5wDLgQ5SYnfq4MLVCZo6NZZsLmLFUycFUr7oBoz5wXFV6nYa+7cys2FpASoaqx10M0Bn4GSUEQHCgdfG+PkOlS7Z+dQNjBgd77ETPplo5ekZ13/8pA0VQSR5wN0qcYIqfnqNRulmoZAqAL1HSdQxzCCyXkZxu5d2fMxlw/1k+mppFWmbgvEeHWrR8+ng01eJVz6Z2RVmNKdH8bhJT41Hq+pT9oxp45tZwj+YAWberwJnm82VoCE7ym+NGP09MIQhuw4YST9UDaI0S2+qyF9+sXBsTZ2bR//6zPP1ZGsfOBsY7dUy4ls8ejyY2UvVk1SjgTRmO/+Cqab4YlMA0VUvyrhsQzFW9gj16oj/MyWHvMVVLQe3AvUjlbMF5clBKaKQBffCfnFQzgS3SvYKXcQYll+H3KJ6rZqjMa1gWVhvsO1bM1EW5HDtbTM0EA1Fh/u2ICQvW0rm5mXlr8igoVBVD1gklGH2tDEXX3ew/dRi2TBKidbw9Icrj89Jv/5RBZo6qAbIFeFuGhlAB1gILUVb7+UMpGhFTgjeT7rjevgCyUCoWhLhixzb7BVGVw96jRSTG6YiP8t+8vVFhWlo3UAojF6srjNwfSeoJuCbPVGeUhF6q9vXBQ1H08GDQOUB6lo0ed51R2/wd4GG5PwkuINzxojHQx8/jHpSAU0HwBUzATShJlxu5euftGpsYNzSETs38N1fVym0FTHgnlaJiVQ6IPBRP/GoRU+VHC6xB5Uqm/h2CePM+z7+oL9+Sz71vpaptfg0wVe5HgiAIPv986wNMAK5w9c4bVDdw0+BghnS2+GVh5cUb8nn4g1Rs6mLxU4AuKKWCREyVg9tRXKtlEmrR8tsbscREeN5F+vmMLD6ZlqW2eU0kbb4gCII/0Q54BLgKF8cy1kjQM3ZoCEO6BGHws7QKvyzM4dVJGWqbn0JJupqDUtgalAUDF3aQgZIvLBkl6fER4DCKZyugxVSkQ4XGqmn87NgIru5tqZSTnPBOKn9tUpWw8zRQVe47giAIfkkt4EFgLODSVVDxUTpuGRLCVb0smIz+I6omzszio6lZ7vyJc8B+YCewGyUR8kaUhTwBIabeR6mhVCatGhj55pmYSkvbP/Thc2qXuM4Ghsr9RhAEwa+JcTy/7kFJuuu6HYdruXlICKP6BBNk8g9R9eYPGfwwN8fTP7sfWI8Si7UExevltanqy+vubIrKTOdaLbz/UFSlTO8BFBbZeefnTOzquuA3lFUhgiAIgv+S63hAfwqkoqRVCHXJjgvsrN5ewLS/crFaoUEN38+q3rmZmVPJVrXphVxFtKNfBqMkRr4LaAsEASfxsunB8iqcn4E6ahqO6hPMyB6WSjvBw6etTFmgWlFPRKpiC4IgBAqFwCrgI+AEyuo/l3iq8gvsrN1ZwK+LcyksstOghgGTwTdFlUYDPVqZ2XusiCOnKy2RaTCKI2ckyor7Pigrpo/iBXkhyyOmrgCeVtMwPETLuxOiMFeiq3PT3kLmr1UtYP/PoXgFQRCEwMGKEqfzMUoscH1cVOC7oNDO+t2F/LIol/wCO/WrGzD7YEyVVgu925rZvK+QU8nWSj8coAZK2pkHUVYSah19VylqT1eO9tNRGXT+4HVhtGtUubk4Vm7LZ9V21aVkHgPy5b4iCIIQkNhRklB+BmxAWd1dzRU7Liyys3FPIVMX5pCdp4gqX4upUgojB7FqewHJ6V5Tv1CLMlM2EmUqMBZllWCqpw/CGcahZJctk9qJeq7pHVzpVj6bqrrDs1Ey6QqCIAgiqmajeDy6Of7ukuDnnHw7X/+ezaAHzvL69xmcS7P6lGGCgzR89ng0tarqvfHwolFSYOxFqeHY3lM/7IxnKhjFK6UqSO+N+yKdqULtNn5blsvBE6q8fkdQ5s0FQRAE4QLHUOKEf3c8rBviguohxVbYfrCIXxbmkpJho241AyEW38j+aTZp6NHKzIJ1+eTkeeUCOw3KVO3tQEdgH0oeLLf+oFqeB15Q07BvOzNvT4jyCove/FIyW/YVqmm6BKWWmiAIgiCURgOUkJAbAaOrdmrQaxjePYhxQ0OpGusb9f8OnSrmuc/TCQnSEBWuJTJUS2SYDotJg8WsfEKDtWCHrFxllqigyE5mjp3kdCvn02wkp1s5draYU8lWtavuy4PdIYifRnGcVJqYSkDJ+VBm8UiTUcOM1+NI9JLBMPKxcxw6pcozNRm4Tu4TgiAIggqqoawquw0XJgDV6zQM6RLEbcNDqB6vDxhj5uTbOXC8iP3Hi9myr5ANuws4neLyKdB84DWUxWaFrtyxWjH1AXCfmobjR4Ryz9WhXtNB/e47q3ZOeiIwXu4PgiAIghPEoNT/uw9lqb5L0OlgUKcgxo8IpUaCPiANe/K8ldXb81m4Pp/1uwoptrrMdbULZQpwlSfFVBKKV8pcVsOEaB0z34zzqmWfnW87TU6+qg54F6XKuCAIgiA4S4RDVE1AKbfmErRauKKLhdtHBJan6lIysm0s2ZjP9L9y2brfJU4lG/Aq8CJKaoz/b+/+Y+Ou6ziOP7/3q3e96w8GG26u7ZijZWzghOFYJnEQFspmRDNCdAgaiIaJJk5N+IcQTTT+jpLg1BE14jAUTJiazcy2RPaD2dEpK1u2sYFQNllX96tr70fvx9c/PrdkwbL7XL9f4Hr3eiTfpLncfZN++vm2r35+vD/ewq/Fe74PLLW52cP3NTN/TrhiGr/gwmN/tD5TqAezbkpERKRcaeB5TFX1MeBawHPFateFQ4NZnu4d49hwnvbWMI3xQM01bjTicNWcMJ9eXs+Kj8ZwgCNHc+QnH4Mc4OPAcqAb8HQAYakw1Qb81iZ0LbgizEP3NL1v5+9NJJtz2bDJujDqVmCHfh+IiIgHGWB7MVSdBT6MD2uqXBcOvZGlqyfJ8ZN52lvCZnF3DZrWGOCmRVFW3xwnFIRXBrNkJ1+qsw1YUwzCk97xVyok/QjLOg3feaAySiFcKFeAx/9kHab+DmzT7wEREfHBOLATWA8MY86Za/R604ILB143oWpwKEd7S5imRG2Gqlidw5IFddx5SxzHgf2vZclPrpZoArgb2IepUeVrmGoFfmMRuFiyoI61qxsqrqHz5YWp7cVAJSIi4pcs0IcZqTqBmf7zJVS9MpjjmeeSDJ8p0NEaJhGrzVAVjTjcuLCOzqUxBo/neHNoUnN/EeAuzBrxfX6GqYcxlV8vynHgh1+ZxoxLKq8uRj5fVpjaCTyn515ERN4FuWKo+jnwFmakyvPuv0LBjMh0dSc5dbZAR1uYeI2GqqZEgFXL6pk7K8Seg+OkMmXv/gsAdwD7gQN+hKkGYCMWO/huWRzlntsTFdmwAcdhwybrNWX9wN/0vIuIyLv5fz7wImb6701gIT7s/ssXYN9rZvrv9DkTquqjtRmq5s0O84llMQ69kePYcNmjVAHMOX+7MGf8eQpTa4FPlfqw48D3vnwJ05srs1qr48ATW0ZtF6YdBjbpORcRkfcoVP2zGKr+DSwAPB8dki+YY2q6epKcHXWLocqpucatjwZY9bF6ImGHPQcz5VZXDwKdwB+w3OUXfIfXNtok5ZsWRfn8ykRFN+hT3UnbOlPHig0nIiLyXikAL2HWVB0B5mMKgXoLVXkYODJOV88Y55ImVMXqaitUOQ5c1xFhycI6duzNkEyXlajiwNXAkzZvnmgM8GZgrs2Hv3hHouIbM1Fv3Xmm65kWEZH3SQ74PWaEag2mSrdn6XGX320eZeW6IR7tGuHMuULNNeyiKyNs/NZlzP1g2RUHbgfutQpuE7z2a+A+m8TXMAVOuB5NFSjY9Z23gFl6nkVEpAIEgM8Aj2AOV/ZFPOpwd2eCe1fGp8TfcD+NjBVY97NT9B8oq4L6CaAdUzPMOkxFi6GiuUY7bxMwomdYREQqRBAzUvUIMM+vmzbGA3xhVYI1t8Vravovk3X52k9P8cJAppyP/QT4Zqkf0oU6sRiVqmLP4qECqoiIiM9cYACzpup1TJ0qz7v/MlmXvv0Znn0+SSjk0NEWJhSs/lAVCjqsuCHGy69mOXrCeqffYsxa8jO2Yep+YFkNd9ptxU4rIiJSSc4vVF8PDGKOqWn2etNUxmXnQIa/7EgRqwvQ3hoiEKjuUBUKOtx6Q4ztL2U4edZqHVAQM3O32TZMfQmz+K1WHcYceCwiIlKpoep8SYX/FEOV5+KfoymXbf9K89ddaZoSAea1hCvqrF2/hUMOy66NsmVXirRdcc9rMGcVn7MJU5/Dx4VuU9AYZihPRESkkuUxxabXA0PAIkzBbU9Gxgr09qfpeTHFZU1BrpgVqtpQ1RAPMH9OmM07U1jEqRBmx2WPTZj6bI2HqUbgx3pGRURkCoWq3cBjwFHgej9C1emRAlv7UvT2p2luCPCh2eGqbLzZM0KMplwGjljt8JsHPIoZHVSYuog4sAEY1fMpIiJTLFTtAX4JnMaMVMW93vTUSIHu3Wn69meYPSPErOnBqmu46+dH6N6d5sxoyfVTCcwU60GFqdJ6MVVoRUREppos5ly5X2BqI30EqPd60+Mn8/x5e5K9h8eZMzPEjGnVE6pCQYeWy0NseSFl8/Z64Km3v/j2mdAnMRU/a9m3McN4IiIiU10D8FXgG/hw9h+Yot3Lr4vy4J0NXNlSPdN/D/zgJLteLll/Kl1sx9TFwpSIiIhUn0bg68C64teeBRy47cYYa1c30PaB0JRvoP4D49z/3f/avLUT2KowJSIiUpsuBR4CHsSH6T+AYBBmXlod037HhvO4pbf2layILiIiItVvJmYHYAZTZV2X/bVX3UdERETOawV+hVm4rqBkd2WBiLqOiIiIXOgq4AlMiQUFptJXh7qMiIiITGQh8DSmMKVC0ztfn7yw0QLqNyIiIlK0D7gLWIqpuygTa1eYEhERkYvpA24tXv9Qc/yfyxWmRERExEYvZpRqBeYoFZmAwpSIiIiU0gMsxkwBHlJzKEyJiIhI+VzgGeDqYqh6VU1iqAK6iIiITEYEuKZGv/ch4Ki6gIiIiIgP/gf0X2YDih/YDgAAACV0RVh0ZGF0ZTpjcmVhdGUAMjAyNC0wNy0wM1QxNTozNzoxMyswMDowMDWX/1UAAAAldEVYdGRhdGU6bW9kaWZ5ADIwMjQtMDctMDNUMTU6Mzc6MTMrMDA6MDBEykfpAAAAAElFTkSuQmCC;fontSize=20;" vertex="1" parent="1">
          <mxGeometry x="1070" y="620" width="112.27" height="80" as="geometry" />
        </mxCell>
        <mxCell id="p6dHSxEKcSRuwTVCDza4-88" value="Enterprise Environment Setup" style="text;html=1;align=center;verticalAlign=middle;whiteSpace=wrap;rounded=0;fontSize=25;fontStyle=1" vertex="1" parent="1">
          <mxGeometry x="1090" y="780" width="400" height="30" as="geometry" />
        </mxCell>
      </root>
    </mxGraphModel>
  </diagram>
</mxfile>
